%FSAX43Y43*%
%MOMM*%
G71*
G01*
G75*
G04 Layer_Physical_Order=2*
G04 Layer_Color=16711680*
%ADD10C,0.203*%
%ADD11R,0.600X0.500*%
%ADD12R,1.270X0.914*%
%ADD13R,0.914X0.914*%
%ADD14R,0.650X1.100*%
%ADD15R,1.100X0.650*%
%ADD16R,0.500X0.600*%
%ADD17R,0.762X0.762*%
%ADD18R,0.762X0.762*%
%ADD19R,0.450X0.450*%
G04:AMPARAMS|DCode=20|XSize=5mm|YSize=5mm|CornerRadius=0.5mm|HoleSize=0mm|Usage=FLASHONLY|Rotation=90.000|XOffset=0mm|YOffset=0mm|HoleType=Round|Shape=RoundedRectangle|*
%AMROUNDEDRECTD20*
21,1,5.000,4.000,0,0,90.0*
21,1,4.000,5.000,0,0,90.0*
1,1,1.000,2.000,2.000*
1,1,1.000,2.000,-2.000*
1,1,1.000,-2.000,-2.000*
1,1,1.000,-2.000,2.000*
%
%ADD20ROUNDEDRECTD20*%
%ADD21O,1.050X0.250*%
%ADD22O,0.250X1.050*%
G04:AMPARAMS|DCode=23|XSize=0.25mm|YSize=0.7mm|CornerRadius=0.063mm|HoleSize=0mm|Usage=FLASHONLY|Rotation=90.000|XOffset=0mm|YOffset=0mm|HoleType=Round|Shape=RoundedRectangle|*
%AMROUNDEDRECTD23*
21,1,0.250,0.575,0,0,90.0*
21,1,0.125,0.700,0,0,90.0*
1,1,0.125,0.287,0.063*
1,1,0.125,0.287,-0.063*
1,1,0.125,-0.287,-0.063*
1,1,0.125,-0.287,0.063*
%
%ADD23ROUNDEDRECTD23*%
G04:AMPARAMS|DCode=24|XSize=0.25mm|YSize=0.7mm|CornerRadius=0.063mm|HoleSize=0mm|Usage=FLASHONLY|Rotation=0.000|XOffset=0mm|YOffset=0mm|HoleType=Round|Shape=RoundedRectangle|*
%AMROUNDEDRECTD24*
21,1,0.250,0.575,0,0,0.0*
21,1,0.125,0.700,0,0,0.0*
1,1,0.125,0.063,-0.287*
1,1,0.125,-0.063,-0.287*
1,1,0.125,-0.063,0.287*
1,1,0.125,0.063,0.287*
%
%ADD24ROUNDEDRECTD24*%
%ADD25R,1.700X1.700*%
%ADD26R,3.000X2.100*%
%ADD27R,1.600X0.800*%
G04:AMPARAMS|DCode=28|XSize=0.6mm|YSize=1.4mm|CornerRadius=0.15mm|HoleSize=0mm|Usage=FLASHONLY|Rotation=270.000|XOffset=0mm|YOffset=0mm|HoleType=Round|Shape=RoundedRectangle|*
%AMROUNDEDRECTD28*
21,1,0.600,1.100,0,0,270.0*
21,1,0.300,1.400,0,0,270.0*
1,1,0.300,-0.550,-0.150*
1,1,0.300,-0.550,0.150*
1,1,0.300,0.550,0.150*
1,1,0.300,0.550,-0.150*
%
%ADD28ROUNDEDRECTD28*%
G04:AMPARAMS|DCode=29|XSize=0.6mm|YSize=1.4mm|CornerRadius=0.15mm|HoleSize=0mm|Usage=FLASHONLY|Rotation=0.000|XOffset=0mm|YOffset=0mm|HoleType=Round|Shape=RoundedRectangle|*
%AMROUNDEDRECTD29*
21,1,0.600,1.100,0,0,0.0*
21,1,0.300,1.400,0,0,0.0*
1,1,0.300,0.150,-0.550*
1,1,0.300,-0.150,-0.550*
1,1,0.300,-0.150,0.550*
1,1,0.300,0.150,0.550*
%
%ADD29ROUNDEDRECTD29*%
%ADD30R,2.700X1.600*%
%ADD31R,2.400X1.600*%
%ADD32R,0.400X1.350*%
%ADD33R,0.800X1.000*%
%ADD34O,0.300X1.800*%
%ADD35O,1.800X0.300*%
%ADD36R,0.700X0.225*%
%ADD37R,0.400X2.000*%
%ADD38C,0.250*%
%ADD39C,0.225*%
%ADD40C,0.400*%
%ADD41C,0.254*%
%ADD42C,0.500*%
%ADD43C,1.524*%
%ADD44R,1.500X1.500*%
%ADD45C,1.500*%
%ADD46C,0.500*%
D10*
X0026324Y0001530D02*
G03*
X0026324Y0001530I-0001064J0000000D01*
G01*
X0031404D02*
G03*
X0031404Y0001530I-0001064J0000000D01*
G01*
X0039277Y0021175D02*
G03*
X0038347Y0021577I-0000552J0000000D01*
G01*
X0038408Y0020723D02*
G03*
X0039277Y0021175I0000317J0000452D01*
G01*
X0037202Y0020425D02*
G03*
X0037114Y0020723I-0000552J0000000D01*
G01*
X0036486Y0019898D02*
G03*
X0037202Y0020425I0000164J0000527D01*
G01*
X0039377Y0016050D02*
G03*
X0039252Y0016351I-0000427J0000000D01*
G01*
X0038827Y0016776D02*
G03*
X0038525Y0016901I-0000302J-0000302D01*
G01*
X0037547Y0018023D02*
G03*
X0038477Y0018425I0000378J0000402D01*
G01*
D02*
G03*
X0037608Y0018877I-0000552J0000000D01*
G01*
X0038827Y0016776D02*
G03*
X0038525Y0016901I-0000302J-0000302D01*
G01*
X0038295D02*
G03*
X0037365Y0016838I-0000445J-0000326D01*
G01*
X0039377Y0016050D02*
G03*
X0039252Y0016351I-0000427J0000000D01*
G01*
X0035398Y0012700D02*
G03*
X0035523Y0012398I0000427J0000000D01*
G01*
X0035398Y0012700D02*
G03*
X0035523Y0012398I0000427J0000000D01*
G01*
X0034627Y0015425D02*
G03*
X0034102Y0015976I-0000552J0000000D01*
G01*
X0033530Y0015342D02*
G03*
X0034627Y0015425I0000545J0000083D01*
G01*
X0029852Y0025400D02*
G03*
X0029702Y0025778I-0000552J0000000D01*
G01*
Y0025022D02*
G03*
X0029852Y0025400I-0000402J0000378D01*
G01*
X0029702Y0030925D02*
G03*
X0029577Y0031227I-0000427J0000000D01*
G01*
X0029702Y0030925D02*
G03*
X0029577Y0031227I-0000427J0000000D01*
G01*
X0029100Y0019273D02*
G03*
X0030002Y0019700I0000350J0000427D01*
G01*
D02*
G03*
X0029965Y0019898I-0000552J0000000D01*
G01*
X0028002Y0032802D02*
G03*
X0027700Y0032927I-0000302J-0000302D01*
G01*
X0028002Y0032802D02*
G03*
X0027700Y0032927I-0000302J-0000302D01*
G01*
X0028223Y0019280D02*
G03*
X0028300Y0019273I0000077J0000420D01*
G01*
X0028223Y0019280D02*
G03*
X0028300Y0019273I0000077J0000420D01*
G01*
X0024574Y0026329D02*
G03*
X0023474Y0026304I-0000549J-0000054D01*
G01*
X0033575Y0018877D02*
G03*
X0032710Y0018252I-0000350J-0000427D01*
G01*
X0032049Y0018678D02*
G03*
X0031124Y0019027I-0000549J-0000054D01*
G01*
X0027152Y0014350D02*
G03*
X0026652Y0014899I-0000552J0000000D01*
G01*
D02*
G03*
X0026375Y0015002I-0000277J-0000324D01*
G01*
X0026652Y0014899D02*
G03*
X0026375Y0015002I-0000277J-0000324D01*
G01*
X0029927Y0011102D02*
G03*
X0029625Y0011227I-0000302J-0000302D01*
G01*
X0029927Y0011102D02*
G03*
X0029625Y0011227I-0000302J-0000302D01*
G01*
X0026952Y0012600D02*
G03*
X0026454Y0013149I-0000552J0000000D01*
G01*
X0025198Y0015623D02*
G03*
X0025500Y0015498I0000302J0000302D01*
G01*
X0025198Y0015623D02*
G03*
X0025500Y0015498I0000302J0000302D01*
G01*
X0026087Y0014148D02*
G03*
X0027152Y0014350I0000513J0000202D01*
G01*
X0024097Y0016752D02*
G03*
X0024173Y0016648I0000378J0000198D01*
G01*
X0024097Y0016752D02*
G03*
X0024173Y0016648I0000378J0000198D01*
G01*
X0023704Y0016526D02*
G03*
X0024097Y0016752I-0000054J0000549D01*
G01*
X0025851Y0012546D02*
G03*
X0026952Y0012600I0000549J0000054D01*
G01*
X0024701Y0012548D02*
G03*
X0025802Y0012595I0000549J0000052D01*
G01*
X0025100Y0011227D02*
G03*
X0024400Y0011227I-0000350J-0000427D01*
G01*
X0024025D02*
G03*
X0023723Y0011102I0000000J-0000427D01*
G01*
X0024025Y0011227D02*
G03*
X0023723Y0011102I0000000J-0000427D01*
G01*
X0037126Y0010796D02*
G03*
X0038023Y0010422I0000549J0000054D01*
G01*
Y0009081D02*
G03*
X0037525Y0008977I-0000148J-0000531D01*
G01*
X0037525Y0008123D02*
G03*
X0038023Y0008019I0000350J0000427D01*
G01*
X0039252Y0004574D02*
G03*
X0039377Y0004875I-0000302J0000302D01*
G01*
X0039252Y0004574D02*
G03*
X0039377Y0004875I-0000302J0000302D01*
G01*
X0037396Y0005149D02*
G03*
X0037875Y0004248I0000054J-0000549D01*
G01*
X0038675Y0004173D02*
G03*
X0038977Y0004298I0000000J0000427D01*
G01*
X0038675Y0004173D02*
G03*
X0038977Y0004298I0000000J0000427D01*
G01*
X0037875Y0004248D02*
G03*
X0038650Y0004173I0000425J0000352D01*
G01*
X0033050Y0002398D02*
G03*
X0033952Y0002825I0000350J0000427D01*
G01*
D02*
G03*
X0033050Y0003252I-0000552J0000000D01*
G01*
X0032373Y0002523D02*
G03*
X0032675Y0002398I0000302J0000302D01*
G01*
X0032373Y0002523D02*
G03*
X0032675Y0002398I0000302J0000302D01*
G01*
X0031404Y0004070D02*
G03*
X0030660Y0005084I-0001064J0000000D01*
G01*
X0031448Y0003625D02*
G03*
X0031573Y0003323I0000427J0000000D01*
G01*
X0031448Y0003625D02*
G03*
X0031573Y0003323I0000427J0000000D01*
G01*
X0029527Y0003385D02*
G03*
X0031404Y0004070I0000813J0000685D01*
G01*
X0028852Y0009602D02*
G03*
X0028550Y0009727I-0000302J-0000302D01*
G01*
X0028852Y0009602D02*
G03*
X0028550Y0009727I-0000302J-0000302D01*
G01*
X0030402Y0007875D02*
G03*
X0030277Y0008177I-0000427J0000000D01*
G01*
X0030402Y0007875D02*
G03*
X0030277Y0008177I-0000427J0000000D01*
G01*
X0024400Y0010373D02*
G03*
X0025100Y0010373I0000350J0000427D01*
G01*
X0025450Y0009727D02*
G03*
X0024621Y0009027I-0000350J-0000427D01*
G01*
X0024224D02*
G03*
X0024252Y0009200I-0000524J0000173D01*
G01*
D02*
G03*
X0024127Y0009550I-0000552J0000000D01*
G01*
X0026027Y0006649D02*
G03*
X0026551Y0007200I-0000027J0000551D01*
G01*
D02*
G03*
X0026054Y0007749I-0000552J0000000D01*
G01*
X0024197Y0006373D02*
G03*
X0025173Y0006317I0000503J0000227D01*
G01*
X0030660Y0005084D02*
G03*
X0030704Y0005301I-0000507J0000216D01*
G01*
D02*
G03*
X0030402Y0005793I-0000552J0000000D01*
G01*
X0029402Y0002528D02*
G03*
X0029527Y0002830I-0000302J0000302D01*
G01*
X0029402Y0002528D02*
G03*
X0029527Y0002830I-0000302J0000302D01*
G01*
X0028864Y0001530D02*
G03*
X0028791Y0001917I-0001064J0000000D01*
G01*
X0028673Y0004677D02*
G03*
X0028673Y0003463I-0000873J-0000607D01*
G01*
X0025902Y0005498D02*
G03*
X0026027Y0005800I-0000302J0000302D01*
G01*
X0025902Y0005498D02*
G03*
X0026027Y0005800I-0000302J0000302D01*
G01*
X0024998Y0005802D02*
G03*
X0024873Y0005500I0000302J-0000302D01*
G01*
X0024998Y0005802D02*
G03*
X0024873Y0005500I0000302J-0000302D01*
G01*
X0026324Y0004070D02*
G03*
X0025727Y0005026I-0001064J0000000D01*
G01*
X0024873Y0005061D02*
G03*
X0026324Y0004070I0000387J-0000991D01*
G01*
X0028187Y0002521D02*
G03*
X0028864Y0001530I-0000387J-0000991D01*
G01*
X0015552Y0034300D02*
G03*
X0014451Y0034354I-0000552J0000000D01*
G01*
X0015054Y0033751D02*
G03*
X0015552Y0034300I-0000054J0000549D01*
G01*
X0012902Y0037800D02*
G03*
X0012755Y0038155I-0000502J0000000D01*
G01*
X0012902Y0037800D02*
G03*
X0012754Y0038156I-0000502J0000000D01*
G01*
X0012056Y0038854D02*
G03*
X0011700Y0039002I-0000356J-0000354D01*
G01*
X0012055Y0038855D02*
G03*
X0011700Y0039002I-0000355J-0000355D01*
G01*
X0012952Y0034300D02*
G03*
X0012902Y0034529I-0000552J0000000D01*
G01*
X0012721Y0033852D02*
G03*
X0012952Y0034300I-0000321J0000448D01*
G01*
X0011898Y0034529D02*
G03*
X0012079Y0033852I0000502J-0000229D01*
G01*
X0024125Y0032927D02*
G03*
X0023229Y0032580I-0000350J-0000427D01*
G01*
X0019977Y0031650D02*
G03*
X0019852Y0032000I-0000552J0000000D01*
G01*
X0019123Y0032627D02*
G03*
X0018998Y0032325I0000302J-0000302D01*
G01*
X0019123Y0032627D02*
G03*
X0018998Y0032325I0000302J-0000302D01*
G01*
X0019966Y0032263D02*
G03*
X0020424Y0031579I0000534J-0000138D01*
G01*
Y0031579D02*
G03*
X0020373Y0030825I0000376J-0000404D01*
G01*
Y0029800D02*
G03*
X0020498Y0029498I0000427J0000000D01*
G01*
X0020373Y0029800D02*
G03*
X0020498Y0029498I0000427J0000000D01*
G01*
X0018998Y0032000D02*
G03*
X0019977Y0031650I0000427J-0000350D01*
G01*
X0019299Y0030804D02*
G03*
X0018696Y0030201I-0000549J-0000054D01*
G01*
X0019603Y0030324D02*
G03*
X0019478Y0030625I-0000427J0000000D01*
G01*
X0019603Y0030324D02*
G03*
X0019478Y0030625I-0000427J0000000D01*
G01*
X0016200Y0033902D02*
G03*
X0015845Y0033755I0000000J-0000502D01*
G01*
X0016200Y0033902D02*
G03*
X0015844Y0033754I0000000J-0000502D01*
G01*
X0014125Y0032998D02*
G03*
X0014427Y0033123I0000000J0000427D01*
G01*
X0014125Y0032998D02*
G03*
X0014427Y0033123I0000000J0000427D01*
G01*
X0015852Y0029400D02*
G03*
X0014751Y0029454I-0000552J0000000D01*
G01*
X0014808Y0032717D02*
G03*
X0015517Y0032008I0000192J-0000517D01*
G01*
X0004417Y0039392D02*
G03*
X0004327Y0039550I-0000517J-0000192D01*
G01*
X0004245Y0038145D02*
G03*
X0004600Y0037998I0000355J0000355D01*
G01*
X0004244Y0038146D02*
G03*
X0004600Y0037998I0000356J0000354D01*
G01*
X0003473Y0039549D02*
G03*
X0003708Y0038683I0000427J-0000349D01*
G01*
X0005402Y0037202D02*
G03*
X0005100Y0037327I-0000302J-0000302D01*
G01*
X0005402Y0037202D02*
G03*
X0005100Y0037327I-0000302J-0000302D01*
G01*
X0002350D02*
G03*
X0002350Y0036473I-0000350J-0000427D01*
G01*
X0006252Y0034800D02*
G03*
X0006127Y0035150I-0000552J0000000D01*
G01*
X0011050Y0033852D02*
G03*
X0011050Y0032998I-0000350J-0000427D01*
G01*
X0009352Y0033100D02*
G03*
X0008450Y0033527I-0000552J0000000D01*
G01*
X0005273Y0035150D02*
G03*
X0006252Y0034800I0000427J-0000350D01*
G01*
X0006127Y0036300D02*
G03*
X0006002Y0036602I-0000427J0000000D01*
G01*
X0006300Y0033527D02*
G03*
X0005998Y0033402I0000000J-0000427D01*
G01*
X0006300Y0033527D02*
G03*
X0005998Y0033402I0000000J-0000427D01*
G01*
X0008450Y0032673D02*
G03*
X0009352Y0033100I0000350J0000427D01*
G01*
X0006127Y0036300D02*
G03*
X0006002Y0036602I-0000427J0000000D01*
G01*
X0005498Y0032902D02*
G03*
X0005373Y0032600I0000302J-0000302D01*
G01*
X0005498Y0032902D02*
G03*
X0005373Y0032600I0000302J-0000302D01*
G01*
X0008802Y0031750D02*
G03*
X0008677Y0032052I-0000427J0000000D01*
G01*
X0008802Y0031750D02*
G03*
X0008677Y0032052I-0000427J0000000D01*
G01*
X0008224Y0032504D02*
G03*
X0008179Y0032673I-0000549J-0000054D01*
G01*
X0002164Y0031722D02*
G03*
X0002412Y0032400I-0000804J0000678D01*
G01*
D02*
G03*
X0000429Y0032888I-0001052J0000000D01*
G01*
X0023474Y0026304D02*
G03*
X0022665Y0025689I-0000274J-0000479D01*
G01*
D02*
G03*
X0022682Y0024614I-0000115J-0000539D01*
G01*
X0021948Y0028048D02*
G03*
X0022250Y0027923I0000302J0000302D01*
G01*
X0021948Y0028048D02*
G03*
X0022250Y0027923I0000302J0000302D01*
G01*
X0021302Y0025021D02*
G03*
X0021352Y0025250I-0000502J0000229D01*
G01*
X0023302Y0022975D02*
G03*
X0022482Y0023457I-0000552J0000000D01*
G01*
X0022472Y0022498D02*
G03*
X0023302Y0022975I0000278J0000477D01*
G01*
X0022423Y0019508D02*
G03*
X0022998Y0018627I0000427J-0000350D01*
G01*
X0022482Y0023457D02*
G03*
X0022552Y0023725I-0000482J0000268D01*
G01*
D02*
G03*
X0021650Y0024152I-0000552J0000000D01*
G01*
X0022548Y0019877D02*
G03*
X0022423Y0019575I0000302J-0000302D01*
G01*
X0022548Y0019877D02*
G03*
X0022423Y0019575I0000302J-0000302D01*
G01*
X0021352Y0025250D02*
G03*
X0020448Y0024825I-0000552J0000000D01*
G01*
X0021123Y0023423D02*
G03*
X0021219Y0023352I0000302J0000302D01*
G01*
X0021123Y0023423D02*
G03*
X0021219Y0023352I0000302J0000302D01*
G01*
X0022375Y0016773D02*
G03*
X0022629Y0016657I0000350J0000427D01*
G01*
X0023227Y0015002D02*
G03*
X0022925Y0014877I0000000J-0000427D01*
G01*
X0023227Y0015002D02*
G03*
X0022925Y0014877I0000000J-0000427D01*
G01*
X0023398Y0010777D02*
G03*
X0023273Y0010475I0000302J-0000302D01*
G01*
X0023398Y0010777D02*
G03*
X0023273Y0010475I0000302J-0000302D01*
G01*
Y0009550D02*
G03*
X0023176Y0009027I0000427J-0000350D01*
G01*
X0022217Y0016245D02*
G03*
X0022851Y0015673I0000083J-0000545D01*
G01*
X0020750Y0018352D02*
G03*
X0020202Y0018440I-0000350J-0000427D01*
G01*
X0019590Y0025744D02*
G03*
X0019603Y0025850I-0000413J0000106D01*
G01*
X0019590Y0025744D02*
G03*
X0019603Y0025850I-0000413J0000106D01*
G01*
X0020052Y0025200D02*
G03*
X0019590Y0025744I-0000552J0000000D01*
G01*
X0018598Y0025875D02*
G03*
X0018473Y0025574I0000302J-0000302D01*
G01*
X0018598Y0025875D02*
G03*
X0018473Y0025574I0000302J-0000302D01*
G01*
X0018352Y0025900D02*
G03*
X0017373Y0025550I-0000552J0000000D01*
G01*
X0018227D02*
G03*
X0018352Y0025900I-0000427J0000350D01*
G01*
X0019927Y0024850D02*
G03*
X0020052Y0025200I-0000427J0000350D01*
G01*
X0015354Y0028851D02*
G03*
X0015852Y0029400I-0000054J0000549D01*
G01*
X0014333Y0027842D02*
G03*
X0014402Y0027898I-0000233J0000358D01*
G01*
X0014452Y0027500D02*
G03*
X0014333Y0027842I-0000552J0000000D01*
G01*
X0014333Y0027842D02*
G03*
X0014402Y0027898I-0000233J0000358D01*
G01*
X0014327Y0027150D02*
G03*
X0014452Y0027500I-0000427J0000350D01*
G01*
X0020448Y0024275D02*
G03*
X0020573Y0023973I0000427J0000000D01*
G01*
X0020448Y0024275D02*
G03*
X0020573Y0023973I0000427J0000000D01*
G01*
X0020198Y0022623D02*
G03*
X0020500Y0022498I0000302J0000302D01*
G01*
X0020198Y0022623D02*
G03*
X0020500Y0022498I0000302J0000302D01*
G01*
X0019927Y0021625D02*
G03*
X0020052Y0021975I-0000427J0000350D01*
G01*
D02*
G03*
X0019927Y0022325I-0000552J0000000D01*
G01*
X0019073D02*
G03*
X0019073Y0021625I0000427J-0000350D01*
G01*
X0018527Y0021150D02*
G03*
X0018652Y0021500I-0000427J0000350D01*
G01*
X0020202Y0019900D02*
G03*
X0020077Y0020202I-0000427J0000000D01*
G01*
X0020202Y0019900D02*
G03*
X0020077Y0020202I-0000427J0000000D01*
G01*
X0019914Y0016898D02*
G03*
X0020216Y0016773I0000302J0000302D01*
G01*
X0019914Y0016898D02*
G03*
X0020216Y0016773I0000302J0000302D01*
G01*
X0019073Y0020175D02*
G03*
X0019198Y0019873I0000427J0000000D01*
G01*
X0019073Y0020175D02*
G03*
X0019198Y0019873I0000427J0000000D01*
G01*
X0019348Y0017625D02*
G03*
X0019550Y0017263I0000427J0000000D01*
G01*
X0018473Y0023776D02*
G03*
X0018598Y0023474I0000427J0000000D01*
G01*
X0018473Y0023776D02*
G03*
X0018598Y0023474I0000427J0000000D01*
G01*
X0017373Y0023631D02*
G03*
X0016798Y0022750I-0000148J-0000531D01*
G01*
X0018402Y0019098D02*
G03*
X0018527Y0019400I-0000302J0000302D01*
G01*
X0018652Y0021500D02*
G03*
X0018227Y0022037I-0000552J0000000D01*
G01*
X0018402Y0019098D02*
G03*
X0018527Y0019400I-0000302J0000302D01*
G01*
X0016798Y0021208D02*
G03*
X0016150Y0021448I-0000473J-0000283D01*
G01*
X0017851Y0017022D02*
G03*
X0017727Y0017350I-0000551J-0000022D01*
G01*
X0014202Y0026198D02*
G03*
X0014258Y0026267I-0000302J0000302D01*
G01*
X0014202Y0026198D02*
G03*
X0014258Y0026267I-0000302J0000302D01*
G01*
X0013500Y0025673D02*
G03*
X0013802Y0025798I0000000J0000427D01*
G01*
X0013500Y0025673D02*
G03*
X0013802Y0025798I0000000J0000427D01*
G01*
X0010600Y0024733D02*
G03*
X0009852Y0024993I-0000500J-0000233D01*
G01*
X0011526Y0024150D02*
G03*
X0011652Y0024500I-0000426J0000350D01*
G01*
D02*
G03*
X0010600Y0024733I-0000552J0000000D01*
G01*
X0011401Y0021700D02*
G03*
X0011526Y0022001I-0000302J0000302D01*
G01*
X0011401Y0021700D02*
G03*
X0011526Y0022001I-0000302J0000302D01*
G01*
X0015152Y0016500D02*
G03*
X0014250Y0016927I-0000552J0000000D01*
G01*
X0012052Y0016600D02*
G03*
X0011150Y0017027I-0000552J0000000D01*
G01*
X0015938Y0016450D02*
G03*
X0015998Y0016373I0000362J0000225D01*
G01*
X0016598Y0015773D02*
G03*
X0016900Y0015648I0000302J0000302D01*
G01*
X0016598Y0015773D02*
G03*
X0016900Y0015648I0000302J0000302D01*
G01*
X0015938Y0016450D02*
G03*
X0015998Y0016373I0000362J0000225D01*
G01*
X0014250Y0016073D02*
G03*
X0015152Y0016500I0000350J0000427D01*
G01*
X0011150Y0016173D02*
G03*
X0012052Y0016600I0000350J0000427D01*
G01*
X0013250Y0016927D02*
G03*
X0013250Y0016073I-0000350J-0000427D01*
G01*
X0010527Y0021147D02*
G03*
X0011299Y0021597I0000223J0000504D01*
G01*
X0010198Y0016298D02*
G03*
X0010500Y0016173I0000302J0000302D01*
G01*
X0010198Y0016298D02*
G03*
X0010500Y0016173I0000302J0000302D01*
G01*
X0009825Y0028428D02*
G03*
X0009701Y0028163I0000302J-0000302D01*
G01*
X0009825Y0028428D02*
G03*
X0009701Y0028163I0000302J-0000302D01*
G01*
X0009673Y0027351D02*
G03*
X0009853Y0026509I0000427J-0000350D01*
G01*
X0009701Y0028163D02*
G03*
X0009673Y0028011I0000399J-0000152D01*
G01*
X0009701Y0028163D02*
G03*
X0009673Y0028011I0000399J-0000152D01*
G01*
X0009853Y0026509D02*
G03*
X0009673Y0026402I0000122J-0000409D01*
G01*
X0009853Y0026509D02*
G03*
X0009673Y0026402I0000122J-0000409D01*
G01*
X0009236Y0025964D02*
G03*
X0009127Y0026151I-0000411J-0000115D01*
G01*
X0009236Y0025964D02*
G03*
X0009127Y0026151I-0000411J-0000115D01*
G01*
X0008677Y0027502D02*
G03*
X0008802Y0027804I-0000302J0000302D01*
G01*
X0008677Y0027502D02*
G03*
X0008802Y0027804I-0000302J0000302D01*
G01*
X0007798Y0027830D02*
G03*
X0007673Y0027529I0000302J-0000302D01*
G01*
X0007798Y0027830D02*
G03*
X0007673Y0027529I0000302J-0000302D01*
G01*
Y0026574D02*
G03*
X0007798Y0026273I0000427J0000000D01*
G01*
X0007673Y0026574D02*
G03*
X0007798Y0026273I0000427J0000000D01*
G01*
X0008726Y0018204D02*
G03*
X0009673Y0018289I0000449J0000321D01*
G01*
X0007998Y0019826D02*
G03*
X0007873Y0019524I0000302J-0000302D01*
G01*
X0007998Y0019826D02*
G03*
X0007873Y0019524I0000302J-0000302D01*
G01*
X0009673Y0017000D02*
G03*
X0009798Y0016698I0000427J0000000D01*
G01*
X0009673Y0017000D02*
G03*
X0009798Y0016698I0000427J0000000D01*
G01*
X0021345Y0009027D02*
G03*
X0020504Y0008316I-0000445J-0000327D01*
G01*
X0020523Y0007277D02*
G03*
X0020956Y0006450I0000477J-0000277D01*
G01*
X0020504Y0008316D02*
G03*
X0020523Y0007277I0000196J-0000516D01*
G01*
X0018122Y0015648D02*
G03*
X0018994Y0015806I0000378J0000402D01*
G01*
X0020956Y0006450D02*
G03*
X0021200Y0006373I0000244J0000350D01*
G01*
X0020956Y0006450D02*
G03*
X0021200Y0006373I0000244J0000350D01*
G01*
X0021052Y0001100D02*
G03*
X0020554Y0001649I-0000552J0000000D01*
G01*
X0019951Y0001046D02*
G03*
X0021052Y0001100I0000549J0000054D01*
G01*
X0019325Y0002878D02*
G03*
X0019023Y0003003I-0000302J-0000302D01*
G01*
X0019325Y0002878D02*
G03*
X0019023Y0003003I-0000302J-0000302D01*
G01*
X0007873Y0015550D02*
G03*
X0007998Y0015248I0000427J0000000D01*
G01*
X0007873Y0015550D02*
G03*
X0007998Y0015248I0000427J0000000D01*
G01*
X0007973Y0013498D02*
G03*
X0008275Y0013373I0000302J0000302D01*
G01*
X0007973Y0013498D02*
G03*
X0008275Y0013373I0000302J0000302D01*
G01*
X0015154D02*
G03*
X0015878Y0012548I0000321J-0000448D01*
G01*
X0011777Y0003003D02*
G03*
X0011475Y0002878I0000000J-0000427D01*
G01*
X0011777Y0003003D02*
G03*
X0011475Y0002878I0000000J-0000427D01*
G01*
X0011346Y0002749D02*
G03*
X0011949Y0002145I0000054J-0000549D01*
G01*
X0006352Y0029400D02*
G03*
X0006282Y0029668I-0000552J0000000D01*
G01*
X0005373Y0029750D02*
G03*
X0006352Y0029400I0000427J-0000350D01*
G01*
X0006627Y0016550D02*
G03*
X0006723Y0016726I-0000427J0000350D01*
G01*
Y0014925D02*
G03*
X0006848Y0014623I0000427J0000000D01*
G01*
X0006723Y0014925D02*
G03*
X0006848Y0014623I0000427J0000000D01*
G01*
X0006723Y0021047D02*
G03*
X0006050Y0021027I-0000323J-0000447D01*
G01*
X0005950Y0018873D02*
G03*
X0006723Y0018946I0000350J0000427D01*
G01*
Y0017074D02*
G03*
X0005773Y0016550I-0000523J-0000174D01*
G01*
X0002754Y0021251D02*
G03*
X0003252Y0021800I-0000054J0000549D01*
G01*
D02*
G03*
X0002151Y0021854I-0000552J0000000D01*
G01*
X0003100Y0021027D02*
G03*
X0002798Y0020902I0000000J-0000427D01*
G01*
X0003100Y0021027D02*
G03*
X0002798Y0020902I0000000J-0000427D01*
G01*
X0000823Y0020527D02*
G03*
X0000698Y0020225I0000302J-0000302D01*
G01*
X0000823Y0020527D02*
G03*
X0000698Y0020225I0000302J-0000302D01*
G01*
X0003427Y0017350D02*
G03*
X0003552Y0017700I-0000427J0000350D01*
G01*
D02*
G03*
X0002777Y0018204I-0000552J0000000D01*
G01*
X0007450Y0000573D02*
G03*
X0008352Y0001000I0000350J0000427D01*
G01*
D02*
G03*
X0007450Y0001427I-0000552J0000000D01*
G01*
X0006298Y0000698D02*
G03*
X0006600Y0000573I0000302J0000302D01*
G01*
X0006298Y0000698D02*
G03*
X0006600Y0000573I0000302J0000302D01*
G01*
X0005773Y0001400D02*
G03*
X0005898Y0001098I0000427J0000000D01*
G01*
X0005773Y0001400D02*
G03*
X0005898Y0001098I0000427J0000000D01*
G01*
X0000698Y0008467D02*
G03*
X0001298Y0007619I0000452J-0000317D01*
G01*
X0002573Y0001350D02*
G03*
X0003552Y0001000I0000427J-0000350D01*
G01*
D02*
G03*
X0003427Y0001350I-0000552J0000000D01*
G01*
X0000746Y0005949D02*
G03*
X0000429Y0005808I0000054J-0000549D01*
G01*
X0001252Y0001100D02*
G03*
X0001127Y0001450I-0000552J0000000D01*
G01*
X0000429Y0000620D02*
G03*
X0001252Y0001100I0000271J0000480D01*
G01*
X0039000Y0033397D02*
X0039571D01*
X0038700Y0021726D02*
Y0033397D01*
X0039100Y0021580D02*
Y0033397D01*
X0038900Y0021698D02*
Y0033397D01*
X0038500Y0021678D02*
Y0033397D01*
X0038300Y0021577D02*
Y0033397D01*
X0037500Y0021577D02*
Y0033397D01*
X0037300Y0021577D02*
Y0033397D01*
X0039077Y0021600D02*
X0039571D01*
X0037900Y0021577D02*
Y0033397D01*
X0039229Y0021400D02*
X0039571D01*
X0038100Y0021577D02*
Y0033397D01*
X0030202Y0021577D02*
X0038347D01*
X0037100D02*
Y0033397D01*
X0037700Y0021577D02*
Y0033397D01*
X0035100Y0021577D02*
Y0033397D01*
X0034900Y0021577D02*
Y0033397D01*
X0035500Y0021577D02*
Y0033397D01*
X0035300Y0021577D02*
Y0033397D01*
X0034300Y0021577D02*
Y0033397D01*
X0034100Y0021577D02*
Y0033397D01*
X0034700Y0021577D02*
Y0033397D01*
X0034500Y0021577D02*
Y0033397D01*
X0036500Y0021577D02*
Y0033397D01*
X0036300Y0021577D02*
Y0033397D01*
X0036900Y0021577D02*
Y0033397D01*
X0036700Y0021577D02*
Y0033397D01*
X0035900Y0021577D02*
Y0033397D01*
X0035700Y0021577D02*
Y0033397D01*
X0036100Y0021577D02*
Y0033397D01*
X0039248Y0021000D02*
X0039571D01*
X0039276Y0021200D02*
X0039571D01*
X0039129Y0020800D02*
X0039571D01*
X0039300Y0016295D02*
Y0033397D01*
X0037114Y0020723D02*
X0038408D01*
X0039100Y0016504D02*
Y0020770D01*
X0037201Y0020400D02*
X0039571D01*
X0038500Y0016901D02*
Y0020672D01*
X0038900Y0016704D02*
Y0020652D01*
X0038700Y0016864D02*
Y0020624D01*
X0037154Y0020200D02*
X0039571D01*
X0037173Y0020600D02*
X0039571D01*
X0037001Y0020000D02*
X0039571D01*
X0038100Y0018948D02*
Y0020723D01*
X0037900Y0018976D02*
Y0020723D01*
X0038300Y0018830D02*
Y0020723D01*
X0037700Y0018928D02*
Y0020723D01*
X0037300Y0018877D02*
Y0020723D01*
X0037500Y0018877D02*
Y0020723D01*
X0037100Y0018877D02*
Y0020106D01*
X0036900Y0018877D02*
Y0019933D01*
X0035500Y0018877D02*
Y0019898D01*
X0034900Y0018877D02*
Y0019898D01*
X0034300Y0018877D02*
Y0019898D01*
X0035100Y0018877D02*
Y0019898D01*
X0029702Y0029000D02*
X0039571D01*
X0029702Y0029200D02*
X0039571D01*
X0029702Y0028600D02*
X0039571D01*
X0029702Y0028800D02*
X0039571D01*
X0029702Y0029800D02*
X0039571D01*
X0029702Y0030000D02*
X0039571D01*
X0029702Y0029400D02*
X0039571D01*
X0029702Y0029600D02*
X0039571D01*
X0029702Y0027600D02*
X0039571D01*
X0029702Y0027800D02*
X0039571D01*
X0029702Y0027200D02*
X0039571D01*
X0029702Y0027400D02*
X0039571D01*
X0029702Y0028200D02*
X0039571D01*
X0029702Y0028400D02*
X0039571D01*
X0029702Y0028000D02*
X0039571D01*
X0028804Y0032000D02*
X0039571D01*
X0028604Y0032200D02*
X0039571D01*
X0029204Y0031600D02*
X0039571D01*
X0029004Y0031800D02*
X0039571D01*
X0028004Y0032800D02*
X0039571D01*
X0024008Y0033000D02*
X0039571D01*
X0028404Y0032400D02*
X0039571D01*
X0028204Y0032600D02*
X0039571D01*
X0029702Y0030600D02*
X0039571D01*
X0029702Y0030800D02*
X0039571D01*
X0029702Y0030200D02*
X0039571D01*
X0029702Y0030400D02*
X0039571D01*
X0029601Y0031200D02*
X0039571D01*
X0029404Y0031400D02*
X0039571D01*
X0029695Y0031000D02*
X0039571D01*
X0029702Y0026000D02*
X0039571D01*
X0029702Y0026200D02*
X0039571D01*
X0029814Y0025600D02*
X0039571D01*
X0029702Y0025800D02*
X0039571D01*
X0029702Y0026800D02*
X0039571D01*
X0029702Y0027000D02*
X0039571D01*
X0029702Y0026400D02*
X0039571D01*
X0029702Y0026600D02*
X0039571D01*
X0029814Y0025200D02*
X0039571D01*
X0029852Y0025400D02*
X0039571D01*
X0029702Y0024800D02*
X0039571D01*
X0029702Y0025000D02*
X0039571D01*
X0029702Y0024400D02*
X0039571D01*
X0029702Y0024600D02*
X0039571D01*
X0029702Y0024200D02*
X0039571D01*
X0029702Y0023200D02*
X0039571D01*
X0029702Y0023400D02*
X0039571D01*
X0029702Y0022800D02*
X0039571D01*
X0029702Y0023000D02*
X0039571D01*
X0029702Y0023800D02*
X0039571D01*
X0029702Y0024000D02*
X0039571D01*
X0029702Y0023600D02*
X0039571D01*
X0029979Y0021800D02*
X0039571D01*
X0029779Y0022000D02*
X0039571D01*
X0030179Y0021600D02*
X0038373D01*
X0029965Y0019898D02*
X0036486D01*
X0029702Y0022400D02*
X0039571D01*
X0029702Y0022600D02*
X0039571D01*
X0029702Y0022200D02*
X0039571D01*
X0038448Y0018600D02*
X0039571D01*
X0038330Y0018800D02*
X0039571D01*
X0038429Y0018200D02*
X0039571D01*
X0038476Y0018400D02*
X0039571D01*
X0036804Y0017400D02*
X0039571D01*
X0038276Y0018000D02*
X0039571D01*
X0038202Y0017000D02*
X0039571D01*
X0037004Y0017200D02*
X0039571D01*
X0039203Y0016400D02*
X0039571D01*
X0039003Y0016600D02*
X0039571D01*
X0039350Y0016200D02*
X0039571D01*
X0038802Y0016800D02*
X0039571D01*
X0038827Y0016776D02*
X0039252Y0016351D01*
X0038300Y0016901D02*
Y0018020D01*
X0037500Y0017001D02*
Y0018023D01*
X0036900Y0017304D02*
Y0018023D01*
X0036700Y0018877D02*
Y0019876D01*
X0037300Y0016904D02*
Y0018023D01*
X0037100Y0017104D02*
Y0018023D01*
X0038100Y0017067D02*
Y0017902D01*
X0037900Y0017124D02*
Y0017874D01*
X0038295Y0016901D02*
X0038525D01*
X0037700Y0017106D02*
Y0017922D01*
X0037204Y0017000D02*
X0037498D01*
X0039377Y0012400D02*
X0039571D01*
X0039377Y0012600D02*
X0039571D01*
X0039377Y0012000D02*
X0039571D01*
X0039377Y0012200D02*
X0039571D01*
X0039377Y0013200D02*
X0039571D01*
X0039377Y0013400D02*
X0039571D01*
X0039377Y0012800D02*
X0039571D01*
X0039377Y0013000D02*
X0039571D01*
X0039377Y0011000D02*
X0039571D01*
X0039377Y0011200D02*
X0039571D01*
X0039377Y0010600D02*
X0039571D01*
X0039377Y0010800D02*
X0039571D01*
X0039377Y0011600D02*
X0039571D01*
X0039377Y0011800D02*
X0039571D01*
X0039377Y0011400D02*
X0039571D01*
X0039377Y0015400D02*
X0039571D01*
X0039377Y0015600D02*
X0039571D01*
X0039377Y0015000D02*
X0039571D01*
X0039377Y0015200D02*
X0039571D01*
X0039377Y0016000D02*
X0039571D01*
X0039377Y0015800D02*
X0039571D01*
X0039377Y0014000D02*
X0039571D01*
X0039377Y0014200D02*
X0039571D01*
X0039377Y0013600D02*
X0039571D01*
X0039377Y0013800D02*
X0039571D01*
X0039377Y0014600D02*
X0039571D01*
X0039377Y0014800D02*
X0039571D01*
X0039377Y0014400D02*
X0039571D01*
X0033270Y0019000D02*
X0039571D01*
X0033575Y0018877D02*
X0037608D01*
X0036500D02*
Y0019894D01*
X0036300Y0018877D02*
Y0019898D01*
X0029992Y0019600D02*
X0039571D01*
X0029993Y0019800D02*
X0039571D01*
X0029682Y0019200D02*
X0039571D01*
X0029913Y0019400D02*
X0039571D01*
X0036404Y0017800D02*
X0039571D01*
X0036500Y0017704D02*
Y0018023D01*
X0036604Y0017600D02*
X0039571D01*
X0036700Y0017504D02*
Y0018023D01*
X0036204Y0018000D02*
X0037574D01*
X0036180Y0018023D02*
X0037547D01*
X0036180D02*
X0037365Y0016838D01*
X0035900Y0018877D02*
Y0019898D01*
X0035700Y0018877D02*
Y0019898D01*
X0036300Y0017904D02*
Y0018023D01*
X0036100Y0018877D02*
Y0019898D01*
X0034700Y0018877D02*
Y0019898D01*
X0034500Y0018877D02*
Y0019898D01*
X0035300Y0018877D02*
Y0019898D01*
X0034480Y0015800D02*
X0035372D01*
X0034300Y0015929D02*
Y0016098D01*
X0035073D02*
X0035398Y0015773D01*
X0034500Y0015777D02*
Y0016098D01*
X0034078Y0016000D02*
X0035172D01*
X0033980Y0016098D02*
X0035073D01*
X0033980D02*
X0034102Y0015976D01*
X0027131Y0014200D02*
X0035398D01*
X0027149Y0014400D02*
X0035398D01*
X0027092Y0014600D02*
X0035398D01*
X0026919Y0014800D02*
X0035398D01*
X0026914Y0012400D02*
X0035522D01*
X0026952Y0012600D02*
X0035410D01*
X0035523Y0012398D02*
X0037126Y0010796D01*
X0030228Y0010800D02*
X0037122D01*
X0030628Y0010400D02*
X0037356D01*
X0030428Y0010600D02*
X0037183D01*
X0029774Y0011200D02*
X0036722D01*
X0026780Y0012200D02*
X0035722D01*
X0030028Y0011000D02*
X0036922D01*
X0034626Y0015400D02*
X0035398D01*
X0034598Y0015600D02*
X0035398D01*
Y0012700D02*
Y0015773D01*
X0034579Y0015200D02*
X0035398D01*
X0034426Y0015000D02*
X0035398D01*
X0026639Y0013800D02*
X0035398D01*
X0027026Y0014000D02*
X0035398D01*
X0026914Y0012800D02*
X0035398D01*
X0026780Y0013000D02*
X0035398D01*
X0026204Y0013400D02*
X0035398D01*
X0026003Y0013600D02*
X0035398D01*
X0026403Y0013200D02*
X0035398D01*
X0032900Y0021577D02*
Y0033397D01*
X0032700Y0021577D02*
Y0033397D01*
X0033700Y0021577D02*
Y0033397D01*
X0033500Y0021577D02*
Y0033397D01*
X0032100Y0021577D02*
Y0033397D01*
X0031900Y0021577D02*
Y0033397D01*
X0032500Y0021577D02*
Y0033397D01*
X0032300Y0021577D02*
Y0033397D01*
X0031300Y0021577D02*
Y0033397D01*
X0031100Y0021577D02*
Y0033397D01*
X0031700Y0021577D02*
Y0033397D01*
X0031500Y0021577D02*
Y0033397D01*
X0030300Y0021577D02*
Y0033397D01*
X0029702Y0022077D02*
X0030202Y0021577D01*
X0030900D02*
Y0033397D01*
X0029700Y0030966D02*
Y0033397D01*
X0029500Y0031304D02*
Y0033397D01*
X0030100Y0021679D02*
Y0033397D01*
X0029900Y0021879D02*
Y0033397D01*
X0028700Y0032104D02*
Y0033397D01*
X0028500Y0032304D02*
Y0033397D01*
X0029300Y0031504D02*
Y0033397D01*
X0029100Y0031704D02*
Y0033397D01*
X0029702Y0025778D02*
Y0030925D01*
Y0022077D02*
Y0025022D01*
X0028900Y0031904D02*
Y0033397D01*
X0034100Y0018877D02*
Y0019898D01*
X0033900Y0021577D02*
Y0033397D01*
Y0018877D02*
Y0019898D01*
X0033700Y0018877D02*
Y0019898D01*
X0033300Y0021577D02*
Y0033397D01*
X0033100Y0021577D02*
Y0033397D01*
X0033500Y0018928D02*
Y0019898D01*
X0033300Y0018997D02*
Y0019898D01*
X0033100Y0018987D02*
Y0019898D01*
X0032900Y0018895D02*
Y0019898D01*
X0032700Y0018618D02*
Y0019898D01*
X0032500Y0018252D02*
Y0019898D01*
X0032100Y0018627D02*
Y0019898D01*
X0031900Y0019004D02*
Y0019898D01*
X0032300Y0018427D02*
Y0019898D01*
X0031700Y0019138D02*
Y0019898D01*
X0031500Y0019175D02*
Y0019898D01*
X0031300Y0019137D02*
Y0019898D01*
X0031100Y0019027D02*
Y0019898D01*
X0030700Y0021577D02*
Y0033397D01*
X0030500Y0021577D02*
Y0033397D01*
X0030900Y0019027D02*
Y0019898D01*
X0030300Y0019027D02*
Y0019898D01*
X0030100Y0019027D02*
Y0019898D01*
X0030700Y0019027D02*
Y0019898D01*
X0030500Y0019027D02*
Y0019898D01*
X0029900Y0019027D02*
Y0019381D01*
X0027900Y0032877D02*
Y0033397D01*
X0027700Y0032927D02*
Y0033397D01*
X0028300Y0032504D02*
Y0033397D01*
X0028100Y0032704D02*
Y0033397D01*
X0026500Y0032927D02*
Y0033397D01*
X0026300Y0032927D02*
Y0033397D01*
X0027500Y0032927D02*
Y0033397D01*
X0027300Y0032927D02*
Y0033397D01*
X0027100Y0032927D02*
Y0033397D01*
X0026900Y0032927D02*
Y0033397D01*
X0024125Y0032927D02*
X0027700D01*
X0026100D02*
Y0033397D01*
X0026700Y0032927D02*
Y0033397D01*
X0024100Y0032946D02*
Y0033397D01*
X0023900Y0033037D02*
Y0033397D01*
X0024500Y0032927D02*
Y0033397D01*
X0024300Y0032927D02*
Y0033397D01*
X0023700Y0033046D02*
Y0033397D01*
X0023500Y0032978D02*
Y0033397D01*
X0023300Y0032780D02*
Y0033397D01*
X0025500Y0032927D02*
Y0033397D01*
X0025300Y0032927D02*
Y0033397D01*
X0025900Y0032927D02*
Y0033397D01*
X0025700Y0032927D02*
Y0033397D01*
X0024900Y0032927D02*
Y0033397D01*
X0024700Y0032927D02*
Y0033397D01*
X0025100Y0032927D02*
Y0033397D01*
X0028002Y0032802D02*
X0029577Y0031227D01*
X0024924Y0027847D02*
X0025223Y0027548D01*
Y0025680D02*
Y0027548D01*
X0025100Y0025804D02*
Y0027672D01*
X0024195Y0026800D02*
X0025223D01*
X0024848Y0027923D02*
X0024923Y0027848D01*
X0024562Y0026400D02*
X0025223D01*
X0024471Y0026600D02*
X0025223D01*
X0025104Y0025800D02*
X0025223D01*
X0028223Y0019280D02*
X0028477Y0019027D01*
X0024904Y0026000D02*
X0025223D01*
X0024704Y0026200D02*
X0025223D01*
X0024574Y0026329D02*
X0025223Y0025680D01*
X0024300Y0026753D02*
Y0027923D01*
X0024100Y0026822D02*
Y0027923D01*
X0024700Y0026204D02*
Y0027923D01*
X0024500Y0026556D02*
Y0027923D01*
X0023900Y0026812D02*
Y0027923D01*
X0023700Y0026720D02*
Y0027923D01*
X0023300Y0026368D02*
Y0027923D01*
X0023500Y0026443D02*
Y0027923D01*
X0024900Y0026004D02*
Y0027872D01*
X0023423Y0020752D02*
Y0023873D01*
X0023301Y0023000D02*
X0023423D01*
X0023300Y0023021D02*
Y0023997D01*
Y0020628D02*
Y0022929D01*
X0031903Y0019000D02*
X0033180D01*
X0032023Y0018800D02*
X0032798D01*
X0028477Y0019027D02*
X0031124D01*
X0029300D02*
Y0019169D01*
X0029700Y0019027D02*
Y0019208D01*
X0029500Y0019027D02*
Y0019151D01*
X0032475Y0018252D02*
X0032710D01*
X0032327Y0018400D02*
X0032676D01*
X0034100Y0015979D02*
Y0016098D01*
X0033373Y0015498D02*
X0033530Y0015342D01*
X0032127Y0018600D02*
X0032694D01*
X0032049Y0018678D02*
X0032475Y0018252D01*
X0026414Y0015000D02*
X0033724D01*
X0028700Y0019027D02*
Y0019273D01*
X0028500Y0019027D02*
Y0019273D01*
X0029100Y0019027D02*
Y0019273D01*
X0028900Y0019027D02*
Y0019273D01*
X0028304Y0019200D02*
X0029218D01*
X0028300Y0019273D02*
X0029100D01*
X0027100Y0014584D02*
Y0015498D01*
X0026300Y0015002D02*
Y0015498D01*
X0026700Y0014893D02*
Y0015498D01*
X0026500Y0014983D02*
Y0015498D01*
X0026900Y0014813D02*
Y0015498D01*
X0026100Y0015002D02*
Y0015498D01*
X0030100Y0010929D02*
Y0015498D01*
X0029900Y0011126D02*
Y0015498D01*
X0030500Y0010529D02*
Y0015498D01*
X0030300Y0010729D02*
Y0015498D01*
X0029300Y0011227D02*
Y0015498D01*
X0028100Y0011227D02*
Y0015498D01*
X0029700Y0011220D02*
Y0015498D01*
X0029500Y0011227D02*
Y0015498D01*
X0029100Y0011227D02*
Y0015498D01*
X0028900Y0011227D02*
Y0015498D01*
X0028500Y0011227D02*
Y0015498D01*
X0028300Y0011227D02*
Y0015498D01*
X0028700Y0011227D02*
Y0015498D01*
X0027500Y0011227D02*
Y0015498D01*
X0027300Y0011227D02*
Y0015498D01*
X0027900Y0011227D02*
Y0015498D01*
X0027700Y0011227D02*
Y0015498D01*
X0026900Y0012834D02*
Y0013887D01*
X0026300Y0013304D02*
Y0013887D01*
X0027100Y0011227D02*
Y0014116D01*
X0026900Y0011227D02*
Y0012366D01*
X0026700Y0013063D02*
Y0013807D01*
Y0011227D02*
Y0012137D01*
X0026500Y0011227D02*
Y0012057D01*
Y0013143D02*
Y0013808D01*
X0026300Y0011227D02*
Y0012058D01*
X0025500Y0015498D02*
X0033373D01*
X0025900Y0015002D02*
Y0015498D01*
X0025300Y0015002D02*
Y0015548D01*
X0024173Y0016648D02*
X0025198Y0015623D01*
X0025100Y0015002D02*
Y0015722D01*
X0024900Y0015002D02*
Y0015922D01*
X0025700Y0013904D02*
Y0014148D01*
Y0015002D02*
Y0015498D01*
X0025803Y0013800D02*
X0026561D01*
X0025446Y0014148D02*
X0026087D01*
X0025500Y0015002D02*
Y0015498D01*
X0025604Y0014000D02*
X0026174D01*
X0024300Y0015002D02*
Y0016522D01*
X0024100Y0015002D02*
Y0016747D01*
X0023930Y0016600D02*
X0024222D01*
X0023900Y0015002D02*
Y0016583D01*
X0023578Y0016400D02*
X0024422D01*
X0023700Y0015002D02*
Y0016521D01*
X0024700Y0015002D02*
Y0016122D01*
X0024500Y0015002D02*
Y0016322D01*
X0023378Y0016200D02*
X0024622D01*
X0023500Y0015002D02*
Y0016321D01*
X0023300Y0015002D02*
Y0016121D01*
X0026100Y0013504D02*
Y0014118D01*
X0025900Y0013704D02*
Y0014148D01*
Y0011227D02*
Y0012368D01*
X0025502Y0014102D02*
X0026454Y0013149D01*
X0025764Y0012400D02*
X0025886D01*
X0025700Y0011227D02*
Y0012281D01*
X0026100Y0011227D02*
Y0012137D01*
X0025630Y0012200D02*
X0026020D01*
X0025500Y0011227D02*
Y0012108D01*
X0025300Y0011227D02*
Y0012051D01*
X0025100Y0011227D02*
X0029625D01*
X0025100Y0011227D02*
Y0012069D01*
X0024700Y0011349D02*
Y0012548D01*
X0024500Y0011292D02*
Y0012548D01*
X0024300Y0011227D02*
Y0012548D01*
X0024100Y0011227D02*
Y0012548D01*
X0024026D02*
X0024701D01*
X0023700Y0011078D02*
Y0012548D01*
X0023500Y0010878D02*
Y0012548D01*
X0024900Y0011331D02*
Y0012174D01*
X0024025Y0011227D02*
X0024400D01*
X0023900Y0011208D02*
Y0012548D01*
X0023398Y0010777D02*
X0023723Y0011102D01*
X0023300Y0010622D02*
Y0012548D01*
X0039377Y0010200D02*
X0039571D01*
X0039377Y0010400D02*
X0039571D01*
X0039377Y0009600D02*
X0039571D01*
X0039377Y0010000D02*
X0039571D01*
X0039377Y0009800D02*
X0039571D01*
X0038023Y0009081D02*
Y0010422D01*
X0037900Y0009101D02*
Y0010346D01*
X0039377Y0009200D02*
X0039571D01*
X0039377Y0009400D02*
X0039571D01*
X0039377Y0008600D02*
X0039571D01*
X0039377Y0009000D02*
X0039571D01*
X0039377Y0008800D02*
X0039571D01*
X0039377Y0008400D02*
X0039571D01*
X0035900Y0008977D02*
Y0012022D01*
X0035700Y0008977D02*
Y0012222D01*
X0036300Y0008977D02*
Y0011622D01*
X0036100Y0008977D02*
Y0011822D01*
X0035100Y0008977D02*
Y0016072D01*
X0034900Y0008977D02*
Y0016098D01*
X0035500Y0008977D02*
Y0012424D01*
X0035300Y0008977D02*
Y0015872D01*
X0037700Y0009073D02*
Y0010299D01*
X0037500Y0008977D02*
Y0010327D01*
X0037300Y0008977D02*
Y0010446D01*
X0037100Y0008977D02*
Y0010822D01*
X0036700Y0008977D02*
Y0011222D01*
X0036500Y0008977D02*
Y0011422D01*
X0036900Y0008977D02*
Y0011022D01*
X0039377Y0008200D02*
X0039571D01*
X0039377Y0004875D02*
Y0016050D01*
X0039571Y0000428D02*
Y0033397D01*
X0039500Y0000428D02*
Y0033397D01*
X0037914Y0008000D02*
X0038023D01*
Y0005777D02*
Y0008019D01*
X0037700Y0005453D02*
Y0008027D01*
X0039377Y0007800D02*
X0039571D01*
X0039377Y0008000D02*
X0039571D01*
X0039377Y0007000D02*
X0039571D01*
X0039377Y0007600D02*
X0039571D01*
X0039377Y0007200D02*
X0039571D01*
X0039377Y0007400D02*
X0039571D01*
X0037900Y0005653D02*
Y0007999D01*
X0036100Y0000426D02*
Y0008123D01*
X0035900Y0000426D02*
Y0008123D01*
X0035700Y0000426D02*
Y0008123D01*
X0035500Y0000426D02*
Y0008123D01*
X0035300Y0000426D02*
Y0008123D01*
X0035100Y0000426D02*
Y0008123D01*
X0034900Y0000426D02*
Y0008123D01*
X0037500Y0005253D02*
Y0008123D01*
X0037300Y0005131D02*
Y0008123D01*
X0037100Y0005026D02*
Y0008123D01*
X0036900Y0004637D02*
Y0008123D01*
X0036700Y0000427D02*
Y0008123D01*
X0036500Y0000426D02*
Y0008123D01*
X0036300Y0000426D02*
Y0008123D01*
X0034300Y0008977D02*
Y0014921D01*
X0034100Y0008977D02*
Y0014874D01*
X0034700Y0008977D02*
Y0016098D01*
X0034500Y0008977D02*
Y0015073D01*
X0030828Y0010200D02*
X0038023D01*
X0033500Y0008977D02*
Y0015372D01*
X0033900Y0008977D02*
Y0014902D01*
X0033700Y0008977D02*
Y0015021D01*
X0031828Y0009200D02*
X0038023D01*
X0031628Y0009400D02*
X0038023D01*
X0032028Y0009000D02*
X0037556D01*
X0032052Y0008977D02*
X0037525D01*
X0031228Y0009800D02*
X0038023D01*
X0031028Y0010000D02*
X0038023D01*
X0031428Y0009600D02*
X0038023D01*
X0032900Y0008977D02*
Y0015498D01*
X0032700Y0008977D02*
Y0015498D01*
X0033300Y0008977D02*
Y0015498D01*
X0033100Y0008977D02*
Y0015498D01*
X0032300Y0008977D02*
Y0015498D01*
X0032100Y0008977D02*
Y0015498D01*
X0032500Y0008977D02*
Y0015498D01*
X0031500Y0009529D02*
Y0015498D01*
X0031300Y0009729D02*
Y0015498D01*
X0031900Y0009129D02*
Y0015498D01*
X0031700Y0009329D02*
Y0015498D01*
X0029927Y0011102D02*
X0032052Y0008977D01*
X0030053Y0008400D02*
X0031422D01*
X0029448Y0010373D02*
X0031448Y0008373D01*
X0034700Y0000425D02*
Y0008123D01*
X0034500Y0000425D02*
Y0008123D01*
X0034300Y0000425D02*
Y0008123D01*
X0034100Y0000425D02*
Y0008123D01*
X0032302D02*
X0037525D01*
X0033500Y0003368D02*
Y0008123D01*
X0033900Y0003059D02*
Y0008123D01*
X0033300Y0003367D02*
Y0008123D01*
X0032302Y0007800D02*
X0038023D01*
X0032302Y0008000D02*
X0037836D01*
X0032302Y0007600D02*
X0038023D01*
X0033700Y0003288D02*
Y0008123D01*
X0032302Y0007200D02*
X0038023D01*
X0032302Y0007400D02*
X0038023D01*
X0032302Y0007000D02*
X0038023D01*
X0032700Y0003404D02*
Y0008123D01*
X0032500Y0003604D02*
Y0008123D01*
X0033100Y0003288D02*
Y0008123D01*
X0032900Y0003252D02*
Y0008123D01*
X0032302Y0003802D02*
Y0008123D01*
X0030253Y0008200D02*
X0031448D01*
Y0003625D02*
Y0008373D01*
X0030402Y0007200D02*
X0031448D01*
X0030402Y0007400D02*
X0031448D01*
X0030402Y0006800D02*
X0031448D01*
X0030402Y0007000D02*
X0031448D01*
X0030402Y0007800D02*
X0031448D01*
X0030383Y0008000D02*
X0031448D01*
X0030402Y0007600D02*
X0031448D01*
X0039377Y0006000D02*
X0039571D01*
X0039377Y0006800D02*
X0039571D01*
X0039377Y0005600D02*
X0039571D01*
X0039377Y0005800D02*
X0039571D01*
X0039377Y0005200D02*
X0039571D01*
X0039377Y0005400D02*
X0039571D01*
X0039370Y0004800D02*
X0039571D01*
X0039377Y0005000D02*
X0039571D01*
X0039078Y0004400D02*
X0039571D01*
X0039276Y0004600D02*
X0039571D01*
X0033923Y0003000D02*
X0039571D01*
X0038823Y0004200D02*
X0039571D01*
X0032703Y0003400D02*
X0039571D01*
X0032503Y0003600D02*
X0039571D01*
X0033805Y0003200D02*
X0039571D01*
X0039377Y0006400D02*
X0039571D01*
X0039377Y0006600D02*
X0039571D01*
X0039377Y0006200D02*
X0039571D01*
X0037396Y0005149D02*
X0038023Y0005777D01*
X0038977Y0004298D02*
X0039252Y0004574D01*
X0037830Y0004200D02*
X0037920D01*
X0032303Y0003800D02*
X0039571D01*
X0032302Y0004400D02*
X0036936D01*
X0032852Y0003252D02*
X0033050D01*
X0039300Y0000428D02*
Y0004630D01*
X0039100Y0000428D02*
Y0004421D01*
X0038900Y0000428D02*
Y0004237D01*
X0038700Y0000428D02*
Y0004174D01*
X0038100Y0000427D02*
Y0004086D01*
X0037900Y0000427D02*
Y0004221D01*
X0037700Y0000427D02*
Y0004108D01*
X0037100Y0000427D02*
Y0004174D01*
X0038500Y0000428D02*
Y0004086D01*
X0038300Y0000428D02*
Y0004048D01*
X0037500Y0000427D02*
Y0004051D01*
X0037300Y0000427D02*
Y0004069D01*
X0033904Y0002600D02*
X0039571D01*
X0033951Y0002800D02*
X0039571D01*
X0033751Y0002400D02*
X0039571D01*
X0036900Y0000427D02*
Y0004563D01*
X0033900Y0000425D02*
Y0002591D01*
X0032500Y0000424D02*
Y0002436D01*
X0033700Y0000425D02*
Y0002362D01*
X0033500Y0000425D02*
Y0002282D01*
X0033300Y0000425D02*
Y0002283D01*
X0033100Y0000424D02*
Y0002362D01*
X0032675Y0002398D02*
X0033050D01*
X0032900Y0000424D02*
Y0002398D01*
X0032700Y0000424D02*
Y0002398D01*
X0032302Y0006600D02*
X0038023D01*
X0032302Y0006800D02*
X0038023D01*
X0032302Y0006200D02*
X0038023D01*
X0032302Y0006400D02*
X0038023D01*
X0032302Y0006000D02*
X0038023D01*
X0030402Y0006400D02*
X0031448D01*
X0032302Y0005800D02*
X0038023D01*
X0032302Y0005600D02*
X0037847D01*
X0032302Y0004800D02*
X0036936D01*
X0032302Y0004600D02*
X0036898D01*
X0032302Y0004000D02*
X0039571D01*
X0032302Y0004200D02*
X0037070D01*
X0032302Y0005400D02*
X0037647D01*
X0032302Y0005200D02*
X0037447D01*
X0032302Y0005000D02*
X0037070D01*
X0030616Y0005600D02*
X0031448D01*
X0030402Y0006200D02*
X0031448D01*
X0030695Y0005200D02*
X0031448D01*
X0030695Y0005400D02*
X0031448D01*
X0030402Y0006000D02*
X0031448D01*
X0030402Y0006600D02*
X0031448D01*
X0030402Y0005800D02*
X0031448D01*
X0031262Y0004600D02*
X0031448D01*
X0031114Y0004800D02*
X0031448D01*
X0031369Y0003800D02*
X0031448D01*
X0031351Y0004400D02*
X0031448D01*
X0030856Y0005000D02*
X0031448D01*
X0032302Y0003802D02*
X0032852Y0003252D01*
X0031573Y0003323D02*
X0032373Y0002523D01*
X0032300Y0000424D02*
Y0002597D01*
X0032100Y0000424D02*
Y0002797D01*
X0030952Y0002400D02*
X0032640D01*
X0029459Y0002600D02*
X0032297D01*
X0031294Y0002000D02*
X0039571D01*
X0031166Y0002200D02*
X0039571D01*
X0031401Y0001600D02*
X0039571D01*
X0031369Y0001800D02*
X0039571D01*
X0031351Y0001200D02*
X0039571D01*
X0031396Y0001400D02*
X0039571D01*
X0031113Y0000800D02*
X0039571D01*
X0031262Y0001000D02*
X0039571D01*
X0030856Y0000600D02*
X0039571D01*
X0031500Y0000423D02*
Y0003422D01*
X0031300Y0001989D02*
Y0003611D01*
X0031166Y0003400D02*
X0031513D01*
X0031294Y0003600D02*
X0031449D01*
X0031900Y0000424D02*
Y0002997D01*
X0030952Y0003200D02*
X0031697D01*
X0031700Y0000424D02*
Y0003197D01*
X0031300Y0000423D02*
Y0001071D01*
X0029526Y0002800D02*
X0032097D01*
X0029527Y0003000D02*
X0031897D01*
X0030900Y0010129D02*
Y0015498D01*
X0030700Y0010329D02*
Y0015498D01*
X0031100Y0009929D02*
Y0015498D01*
X0029900Y0008554D02*
Y0009922D01*
X0029300Y0009154D02*
Y0010373D01*
X0029100Y0009354D02*
Y0010373D01*
X0029700Y0008754D02*
Y0010122D01*
X0029500Y0008954D02*
Y0010322D01*
X0029653Y0008800D02*
X0031022D01*
X0029453Y0009000D02*
X0030822D01*
X0029853Y0008600D02*
X0031222D01*
X0030100Y0008354D02*
Y0009722D01*
X0029053Y0009400D02*
X0030422D01*
X0028853Y0009600D02*
X0030222D01*
X0029253Y0009200D02*
X0030622D01*
X0028500Y0009727D02*
Y0010373D01*
X0028300Y0009727D02*
Y0010373D01*
X0028900Y0009554D02*
Y0010373D01*
X0028700Y0009699D02*
Y0010373D01*
X0027700Y0009727D02*
Y0010373D01*
X0026900Y0009727D02*
Y0010373D01*
X0028100Y0009727D02*
Y0010373D01*
X0027900Y0009727D02*
Y0010373D01*
X0027500Y0009727D02*
Y0010373D01*
X0027300Y0009727D02*
Y0010373D01*
X0026700Y0009727D02*
Y0010373D01*
X0026500Y0009727D02*
Y0010373D01*
X0027100Y0009727D02*
Y0010373D01*
X0030900Y0004974D02*
Y0008922D01*
X0030700Y0005370D02*
Y0009122D01*
X0031300Y0004529D02*
Y0008522D01*
X0031100Y0004814D02*
Y0008722D01*
X0030300Y0008152D02*
Y0009522D01*
X0028852Y0009602D02*
X0030277Y0008177D01*
X0030500Y0005729D02*
Y0009322D01*
X0027898Y0008173D02*
X0028673Y0007398D01*
X0030402Y0005793D02*
Y0007875D01*
X0028673Y0004677D02*
Y0007398D01*
X0026514Y0007000D02*
X0028673D01*
X0026551Y0007200D02*
X0028673D01*
X0026379Y0006800D02*
X0028673D01*
X0027700Y0005129D02*
Y0008173D01*
X0027500Y0005090D02*
Y0008173D01*
X0027300Y0005009D02*
Y0008173D01*
X0027100Y0004870D02*
Y0008173D01*
X0026900Y0004636D02*
Y0008173D01*
X0026500Y0007433D02*
Y0008173D01*
X0026700Y0000421D02*
Y0008173D01*
X0028100Y0005091D02*
Y0007972D01*
X0027900Y0005129D02*
Y0008172D01*
X0028500Y0004871D02*
Y0007572D01*
X0028300Y0005009D02*
Y0007772D01*
X0026514Y0007400D02*
X0028672D01*
X0026379Y0007600D02*
X0028472D01*
X0026500Y0000420D02*
Y0006967D01*
X0025900Y0009727D02*
Y0010373D01*
X0025700Y0009727D02*
Y0010373D01*
X0026300Y0009727D02*
Y0010373D01*
X0026100Y0009727D02*
Y0010373D01*
X0025100D02*
X0029448D01*
X0025500Y0009727D02*
Y0010373D01*
X0025300Y0009814D02*
Y0010373D01*
X0025333Y0009800D02*
X0030022D01*
X0025100Y0009852D02*
Y0010373D01*
X0025450Y0009727D02*
X0028550D01*
X0025629Y0008173D02*
X0027898D01*
X0024127Y0010000D02*
X0029822D01*
X0024127Y0010200D02*
X0029622D01*
X0024900Y0009814D02*
Y0010269D01*
X0024700Y0009679D02*
Y0010251D01*
X0024500Y0009027D02*
Y0010308D01*
X0024300Y0009027D02*
Y0010373D01*
X0024202D02*
X0024400D01*
X0024127Y0010298D02*
X0024202Y0010373D01*
X0024127Y0009550D02*
Y0010298D01*
X0024252Y0009200D02*
X0024558D01*
X0024214Y0009400D02*
X0024558D01*
X0024224Y0009027D02*
X0024621D01*
X0024127Y0009800D02*
X0024867D01*
X0024127Y0009600D02*
X0024637D01*
X0026300Y0007663D02*
Y0008173D01*
X0026100Y0007742D02*
Y0008173D01*
X0025803Y0008000D02*
X0028072D01*
X0025900Y0007903D02*
Y0008173D01*
X0026003Y0007800D02*
X0028272D01*
X0025629Y0008173D02*
X0026054Y0007749D01*
X0026027Y0006600D02*
X0028673D01*
X0026027Y0005800D02*
Y0006649D01*
X0026300Y0004294D02*
Y0006737D01*
X0026100Y0004723D02*
Y0006657D01*
X0026027Y0006200D02*
X0028673D01*
X0026027Y0006400D02*
X0028673D01*
X0026027Y0006000D02*
X0028673D01*
X0025173Y0005977D02*
Y0006317D01*
X0024100Y0000419D02*
Y0006373D01*
X0023900Y0000419D02*
Y0006373D01*
X0023700Y0000419D02*
Y0006373D01*
X0023500Y0000419D02*
Y0006373D01*
X0023300Y0000418D02*
Y0006373D01*
X0025080Y0006200D02*
X0025173D01*
X0025100Y0005903D02*
Y0006220D01*
X0024998Y0005802D02*
X0025173Y0005977D01*
X0024900Y0005647D02*
Y0006086D01*
X0024700Y0004974D02*
Y0006048D01*
X0024500Y0004814D02*
Y0006086D01*
X0024300Y0004527D02*
Y0006221D01*
X0031100Y0002274D02*
Y0003326D01*
X0030700Y0005071D02*
Y0005231D01*
X0029527Y0003200D02*
X0029728D01*
X0029700Y0002379D02*
Y0003221D01*
X0029527Y0002830D02*
Y0003385D01*
X0030500Y0002582D02*
Y0003018D01*
X0030300Y0002593D02*
Y0003007D01*
X0030900Y0002434D02*
Y0003166D01*
X0030700Y0002531D02*
Y0003069D01*
X0030100Y0002566D02*
Y0003034D01*
X0029900Y0002498D02*
Y0003102D01*
X0029273Y0002400D02*
X0029728D01*
X0028412Y0003200D02*
X0028673D01*
X0028574Y0004800D02*
X0028673D01*
Y0003007D02*
Y0003463D01*
X0028500Y0002833D02*
Y0003269D01*
X0028316Y0005000D02*
X0028673D01*
X0028300Y0002633D02*
Y0003131D01*
X0027300Y0002469D02*
Y0003131D01*
X0027100Y0002330D02*
Y0003270D01*
X0028100Y0002551D02*
Y0003049D01*
X0028187Y0002521D02*
X0028673Y0003007D01*
X0027900Y0002589D02*
Y0003011D01*
X0027700Y0002589D02*
Y0003011D01*
X0027500Y0002550D02*
Y0003050D01*
X0029073Y0002200D02*
X0029514D01*
X0029500Y0002182D02*
Y0002681D01*
Y0000422D02*
Y0000878D01*
X0028873Y0002000D02*
X0029386D01*
X0028791Y0001917D02*
X0029402Y0002528D01*
X0028829Y0001800D02*
X0029311D01*
X0028722Y0001000D02*
X0029418D01*
X0028811Y0001200D02*
X0029329D01*
X0031100Y0000423D02*
Y0000786D01*
X0030900Y0000423D02*
Y0000626D01*
X0030700Y0000423D02*
Y0000529D01*
X0029900Y0000422D02*
Y0000562D01*
X0028316Y0000600D02*
X0029824D01*
X0028573Y0000800D02*
X0029567D01*
X0029700Y0000422D02*
Y0000681D01*
X0029300Y0000422D02*
Y0001309D01*
Y0001751D02*
Y0002426D01*
X0029100Y0000422D02*
Y0002226D01*
X0028900Y0000422D02*
Y0002026D01*
X0028861Y0001600D02*
X0029279D01*
X0028856Y0001400D02*
X0029284D01*
X0028700Y0000422D02*
Y0000963D01*
X0028500Y0000422D02*
Y0000729D01*
X0028300Y0000422D02*
Y0000591D01*
X0028100Y0000421D02*
Y0000509D01*
X0027500Y0000421D02*
Y0000510D01*
X0027300Y0000421D02*
Y0000591D01*
X0027100Y0000421D02*
Y0000730D01*
X0026027Y0005800D02*
X0028673D01*
X0026034Y0004800D02*
X0027026D01*
X0026182Y0004600D02*
X0026878D01*
X0025803Y0005400D02*
X0028673D01*
X0025977Y0005600D02*
X0028673D01*
X0025727Y0005200D02*
X0028673D01*
X0025776Y0005000D02*
X0027284D01*
X0026271Y0004400D02*
X0026789D01*
X0026316Y0004200D02*
X0026744D01*
X0026289Y0003800D02*
X0026771D01*
X0026321Y0004000D02*
X0026739D01*
X0026086Y0003400D02*
X0026974D01*
X0026214Y0003600D02*
X0026846D01*
X0025872Y0003200D02*
X0027188D01*
X0025727Y0005323D02*
X0025902Y0005498D01*
X0025900Y0004920D02*
Y0005496D01*
X0024873Y0005061D02*
Y0005500D01*
X0025727Y0005026D02*
Y0005323D01*
X0025500Y0002566D02*
Y0003034D01*
X0025300Y0002593D02*
Y0003007D01*
X0025100Y0002581D02*
Y0003019D01*
X0024900Y0002531D02*
Y0003069D01*
X0026900Y0002096D02*
Y0003504D01*
X0026289Y0001800D02*
X0026771D01*
X0026300Y0001754D02*
Y0003846D01*
X0025872Y0002400D02*
X0027188D01*
X0026086Y0002200D02*
X0026974D01*
X0026214Y0002000D02*
X0026846D01*
X0026316Y0001400D02*
X0026744D01*
X0026321Y0001600D02*
X0026739D01*
X0026900Y0000421D02*
Y0000964D01*
X0026271Y0001200D02*
X0026789D01*
X0026033Y0000800D02*
X0027027D01*
X0026182Y0001000D02*
X0026878D01*
X0025776Y0000600D02*
X0027284D01*
X0025900Y0002380D02*
Y0003220D01*
X0025700Y0002498D02*
Y0003102D01*
X0026300Y0000420D02*
Y0001306D01*
X0026100Y0002183D02*
Y0003417D01*
X0024700Y0002434D02*
Y0003166D01*
X0024500Y0002274D02*
Y0003326D01*
X0024300Y0001987D02*
Y0003613D01*
X0026100Y0000420D02*
Y0000877D01*
X0025900Y0000420D02*
Y0000680D01*
X0025700Y0000420D02*
Y0000562D01*
X0024900Y0000419D02*
Y0000529D01*
X0024700Y0000419D02*
Y0000626D01*
X0024500Y0000419D02*
Y0000786D01*
X0024300Y0000419D02*
Y0001073D01*
X0017900Y0033902D02*
Y0037272D01*
X0017700Y0033902D02*
Y0037472D01*
X0018300Y0033902D02*
Y0036872D01*
X0018100Y0033902D02*
Y0037072D01*
X0012902Y0037400D02*
X0017772D01*
X0012902Y0037600D02*
X0017600D01*
Y0037572D02*
X0021150Y0034022D01*
X0012902Y0037200D02*
X0017972D01*
X0015542Y0034400D02*
X0020772D01*
X0018500Y0033902D02*
Y0036672D01*
X0020300Y0033902D02*
Y0034872D01*
X0019500Y0033902D02*
Y0035672D01*
X0015463Y0034600D02*
X0020572D01*
X0015233Y0034800D02*
X0020372D01*
X0015542Y0034200D02*
X0020972D01*
X0017600Y0038272D02*
Y0039558D01*
X0015100Y0034843D02*
Y0039556D01*
X0015500Y0034534D02*
Y0039557D01*
X0015300Y0034763D02*
Y0039556D01*
X0014900Y0034842D02*
Y0039556D01*
X0014700Y0034763D02*
Y0039556D01*
X0014500Y0034532D02*
Y0039556D01*
X0014300Y0034203D02*
Y0039556D01*
X0017600Y0037572D02*
Y0038272D01*
X0012943Y0034400D02*
X0014458D01*
X0014100Y0034003D02*
Y0039556D01*
X0012902Y0037800D02*
X0017600D01*
X0012902Y0034529D02*
Y0037800D01*
X0012942Y0034200D02*
X0014296D01*
X0018900Y0033902D02*
Y0036272D01*
X0018700Y0033902D02*
Y0036472D01*
X0019300Y0033902D02*
Y0035872D01*
X0019100Y0033902D02*
Y0036072D01*
X0017100Y0033902D02*
Y0039558D01*
X0016900Y0033902D02*
Y0039557D01*
X0017500Y0033902D02*
Y0039558D01*
X0017300Y0033902D02*
Y0039558D01*
X0020700Y0033902D02*
Y0034472D01*
X0020500Y0033902D02*
Y0034672D01*
X0021100Y0033902D02*
Y0034072D01*
X0020900Y0033902D02*
Y0034272D01*
X0019900Y0033902D02*
Y0035272D01*
X0019700Y0033902D02*
Y0035472D01*
X0020100Y0033902D02*
Y0035072D01*
X0016700Y0033902D02*
Y0039557D01*
X0016500Y0033902D02*
Y0039557D01*
X0016300Y0033902D02*
Y0039557D01*
X0016100Y0033891D02*
Y0039557D01*
X0015900Y0033802D02*
Y0039557D01*
X0013900Y0033852D02*
Y0039556D01*
X0015700Y0033609D02*
Y0039557D01*
X0013948Y0033852D02*
X0014451Y0034354D01*
X0013700Y0033852D02*
Y0039555D01*
X0015500Y0033409D02*
Y0034066D01*
X0013300Y0033852D02*
Y0039555D01*
X0013100Y0033852D02*
Y0039555D01*
X0013500Y0033852D02*
Y0039555D01*
X0012310Y0038600D02*
X0017600D01*
X0012110Y0038800D02*
X0017600D01*
X0012900Y0037844D02*
Y0039555D01*
X0012056Y0038854D02*
X0012754Y0038156D01*
X0004414Y0039400D02*
X0017600D01*
X0004327Y0039550D02*
X0017600Y0039558D01*
X0011743Y0039000D02*
X0017600D01*
X0004610Y0039200D02*
X0017600D01*
X0012860Y0038000D02*
X0017600D01*
X0012902Y0036800D02*
X0018372D01*
X0012902Y0037000D02*
X0018172D01*
X0012710Y0038200D02*
X0017600D01*
X0012510Y0038400D02*
X0017600D01*
X0012300Y0038610D02*
Y0039555D01*
X0012100Y0038810D02*
Y0039554D01*
X0012700Y0038210D02*
Y0039555D01*
X0012500Y0038410D02*
Y0039555D01*
X0011900Y0038960D02*
Y0039554D01*
X0004808Y0039002D02*
X0011700D01*
X0005604Y0037000D02*
X0011898D01*
X0011492Y0037998D02*
X0011898Y0037592D01*
X0006004Y0036600D02*
X0011898D01*
X0005804Y0036800D02*
X0011898D01*
X0002233Y0037400D02*
X0011898D01*
X0000429Y0037600D02*
X0011891D01*
X0005404Y0037200D02*
X0011898D01*
X0012902Y0035600D02*
X0019572D01*
X0012902Y0035800D02*
X0019372D01*
X0012902Y0035200D02*
X0019972D01*
X0012902Y0035400D02*
X0019772D01*
X0012902Y0036400D02*
X0018772D01*
X0012902Y0036600D02*
X0018572D01*
X0012902Y0036000D02*
X0019172D01*
X0012902Y0036200D02*
X0018972D01*
X0012902Y0035000D02*
X0020172D01*
X0012902Y0034800D02*
X0014767D01*
X0012902Y0034600D02*
X0014537D01*
X0012900Y0033852D02*
Y0034066D01*
X0006127Y0036000D02*
X0011898D01*
X0006127Y0036200D02*
X0011898D01*
Y0034529D02*
Y0037592D01*
X0006127Y0035400D02*
X0011898D01*
X0006127Y0035800D02*
X0011898D01*
X0006115Y0036400D02*
X0011898D01*
X0006127Y0035600D02*
X0011898D01*
X0006252Y0034800D02*
X0011898D01*
X0006214Y0035000D02*
X0011898D01*
X0011900Y0033852D02*
Y0034068D01*
X0006214Y0034600D02*
X0011898D01*
X0006127Y0035200D02*
X0011898D01*
X0006080Y0034400D02*
X0011858D01*
X0000429Y0034200D02*
X0011858D01*
X0022700Y0033110D02*
Y0033397D01*
X0022500Y0033310D02*
Y0033397D01*
X0023100Y0032710D02*
Y0033397D01*
X0022900Y0032910D02*
Y0033397D01*
X0016200Y0033902D02*
X0021270D01*
X0021150Y0034022D02*
X0021270Y0033902D01*
X0022413Y0033397D02*
X0039000D01*
X0022413D02*
X0023229Y0032580D01*
X0022610Y0033200D02*
X0039571D01*
X0022810Y0033000D02*
X0023542D01*
X0023010Y0032800D02*
X0023312D01*
X0019956Y0031800D02*
X0020054D01*
X0019974Y0031600D02*
X0020332D01*
X0019123Y0032627D02*
X0019395Y0032898D01*
X0019300Y0032803D02*
Y0032898D01*
X0019100Y0032601D02*
Y0032898D01*
X0016408D02*
X0019395D01*
X0016309Y0032800D02*
X0019296D01*
X0018900Y0031818D02*
Y0032898D01*
X0019852Y0032148D02*
X0019966Y0032263D01*
X0019852Y0032000D02*
X0019963D01*
X0019900Y0031931D02*
Y0032196D01*
X0019852Y0032000D02*
Y0032148D01*
X0016109Y0032600D02*
X0019099D01*
X0015909Y0032400D02*
X0019005D01*
X0018998Y0032000D02*
Y0032325D01*
X0020300Y0031407D02*
Y0031611D01*
X0020373Y0029800D02*
Y0030825D01*
X0019304Y0030800D02*
X0020373D01*
X0019917Y0031400D02*
X0020296D01*
X0019596Y0030400D02*
X0020373D01*
X0019502Y0030600D02*
X0020373D01*
X0019603Y0030000D02*
X0020373D01*
X0019603Y0030200D02*
X0020373D01*
X0019603Y0029600D02*
X0020423D01*
X0019603Y0029800D02*
X0020373D01*
X0019603Y0029400D02*
X0020597D01*
X0018900Y0031281D02*
Y0031482D01*
X0018700Y0031299D02*
Y0032898D01*
X0019744Y0031200D02*
X0020249D01*
X0018500Y0031242D02*
Y0032898D01*
X0018300Y0031069D02*
Y0032898D01*
X0019500Y0030602D02*
Y0031103D01*
X0019300Y0030804D02*
Y0031113D01*
X0019242Y0031000D02*
X0020277D01*
X0019299Y0030804D02*
X0019478Y0030625D01*
X0018696Y0030201D02*
X0018750Y0030147D01*
X0015463Y0034000D02*
X0021172D01*
X0015300Y0033209D02*
Y0033837D01*
X0015232Y0033800D02*
X0015897D01*
X0014427Y0033123D02*
X0015054Y0033751D01*
X0014808Y0032717D02*
X0015844Y0033754D01*
X0015100Y0033009D02*
Y0033757D01*
X0015709Y0032200D02*
X0018998D01*
X0014903Y0033600D02*
X0015690D01*
X0015514Y0032000D02*
X0018998D01*
X0015517Y0032008D02*
X0016408Y0032898D01*
X0014703Y0033400D02*
X0015490D01*
X0014503Y0033200D02*
X0015290D01*
X0014159Y0033000D02*
X0015090D01*
X0014900Y0032809D02*
Y0033596D01*
X0012863Y0034000D02*
X0014096D01*
X0014700Y0032663D02*
Y0033396D01*
X0014500Y0032432D02*
Y0033196D01*
X0011050Y0033852D02*
X0012079D01*
X0000429Y0034000D02*
X0011937D01*
X0012721Y0033852D02*
X0013948D01*
X0009263Y0032800D02*
X0014890D01*
X0011050Y0032998D02*
X0014125D01*
X0009032Y0032600D02*
X0014620D01*
X0008329Y0032400D02*
X0014486D01*
X0008529Y0032200D02*
X0014448D01*
X0015380Y0031800D02*
X0018894D01*
X0008802Y0031600D02*
X0018876D01*
X0008802Y0031400D02*
X0018933D01*
X0015700Y0029780D02*
Y0032190D01*
X0008802Y0031200D02*
X0018431D01*
X0008802Y0031000D02*
X0018258D01*
X0008802Y0030600D02*
X0018219D01*
X0008802Y0030800D02*
X0018201D01*
X0015814Y0029600D02*
X0018750D01*
X0015680Y0029800D02*
X0018750D01*
X0015852Y0029400D02*
X0018750D01*
X0008802Y0030200D02*
X0018697D01*
X0008802Y0030400D02*
X0018324D01*
X0008802Y0030000D02*
X0018750D01*
X0015500Y0029914D02*
Y0031966D01*
X0014700Y0029403D02*
Y0031737D01*
X0012100Y0029272D02*
Y0032998D01*
X0008799Y0031800D02*
X0014620D01*
X0008721Y0032000D02*
X0014486D01*
X0011900Y0029472D02*
Y0032998D01*
X0015300Y0029952D02*
Y0031737D01*
X0015100Y0029914D02*
Y0031657D01*
X0014900Y0029779D02*
Y0031658D01*
X0011972Y0029400D02*
X0014696D01*
X0008802Y0029800D02*
X0014920D01*
X0008802Y0029672D02*
X0011700D01*
X0011772Y0029600D02*
X0014786D01*
X0011300Y0039002D02*
Y0039554D01*
X0011100Y0039002D02*
Y0039554D01*
X0011700Y0039002D02*
Y0039554D01*
X0011500Y0039002D02*
Y0039554D01*
X0010500Y0039002D02*
Y0039554D01*
X0010300Y0039002D02*
Y0039553D01*
X0010900Y0039002D02*
Y0039554D01*
X0010700Y0039002D02*
Y0039554D01*
X0009700Y0039002D02*
Y0039553D01*
X0009500Y0039002D02*
Y0039553D01*
X0010100Y0039002D02*
Y0039553D01*
X0009900Y0039002D02*
Y0039553D01*
X0009100Y0039002D02*
Y0039553D01*
X0008900Y0039002D02*
Y0039553D01*
X0009300Y0039002D02*
Y0039553D01*
X0008300Y0039002D02*
Y0039552D01*
X0008100Y0039002D02*
Y0039552D01*
X0008700Y0039002D02*
Y0039552D01*
X0008500Y0039002D02*
Y0039552D01*
X0007500Y0039002D02*
Y0039552D01*
X0007300Y0039002D02*
Y0039552D01*
X0007900Y0039002D02*
Y0039552D01*
X0007700Y0039002D02*
Y0039552D01*
X0006700Y0039002D02*
Y0039551D01*
X0006500Y0039002D02*
Y0039551D01*
X0007100Y0039002D02*
Y0039551D01*
X0006900Y0039002D02*
Y0039551D01*
X0006300Y0039002D02*
Y0039551D01*
X0006100Y0039002D02*
Y0039551D01*
X0005900Y0036704D02*
Y0037998D01*
X0010300Y0033805D02*
Y0037998D01*
X0010100Y0029672D02*
Y0037998D01*
X0009900Y0029672D02*
Y0037998D01*
X0009700Y0029672D02*
Y0037998D01*
X0009100Y0033563D02*
Y0037998D01*
X0008900Y0033643D02*
Y0037998D01*
X0009500Y0029672D02*
Y0037998D01*
X0009300Y0033334D02*
Y0037998D01*
X0011300Y0033852D02*
Y0037998D01*
X0011100Y0033852D02*
Y0037998D01*
X0011700Y0033852D02*
Y0037791D01*
X0011500Y0033852D02*
Y0037991D01*
X0010900Y0033939D02*
Y0037998D01*
X0010700Y0033977D02*
Y0037998D01*
X0010500Y0033939D02*
Y0037998D01*
X0006900Y0033527D02*
Y0037998D01*
X0006700Y0033527D02*
Y0037998D01*
X0007300Y0033527D02*
Y0037998D01*
X0007100Y0033527D02*
Y0037998D01*
X0006300Y0033527D02*
Y0037998D01*
X0006100Y0036449D02*
Y0037998D01*
X0006500Y0033527D02*
Y0037998D01*
X0008700Y0033642D02*
Y0037998D01*
X0008500Y0033563D02*
Y0037998D01*
X0008300Y0033527D02*
Y0037998D01*
X0008100Y0033527D02*
Y0037998D01*
X0007700Y0033527D02*
Y0037998D01*
X0007500Y0033527D02*
Y0037998D01*
X0007900Y0033527D02*
Y0037998D01*
X0005500Y0039002D02*
Y0039550D01*
X0005300Y0039002D02*
Y0039550D01*
X0005900Y0039002D02*
Y0039551D01*
X0005700Y0039002D02*
Y0039551D01*
X0004700Y0039110D02*
Y0039550D01*
X0004500Y0039310D02*
Y0039550D01*
X0005100Y0039002D02*
Y0039550D01*
X0004900Y0039002D02*
Y0039550D01*
X0004417Y0039392D02*
X0004808Y0039002D01*
X0004600Y0037998D02*
X0011492D01*
X0000429Y0038000D02*
X0004563D01*
X0000429Y0037800D02*
X0011691D01*
X0002100Y0037443D02*
Y0039548D01*
X0002300Y0037363D02*
Y0039549D01*
X0001900Y0037442D02*
Y0039548D01*
X0000429Y0039547D02*
X0003473Y0039549D01*
X0000429Y0039400D02*
X0003386D01*
X0000429Y0039200D02*
X0003348D01*
X0000429Y0038800D02*
X0003520D01*
X0000429Y0039000D02*
X0003386D01*
X0003708Y0038683D02*
X0004244Y0038146D01*
X0000429Y0038600D02*
X0003791D01*
X0000429Y0038200D02*
X0004191D01*
X0000429Y0038400D02*
X0003991D01*
X0000429Y0037400D02*
X0001767D01*
X0004500Y0037327D02*
Y0038009D01*
X0004300Y0037327D02*
Y0038098D01*
X0005500Y0037104D02*
Y0037998D01*
X0005300Y0037277D02*
Y0037998D01*
X0003700Y0037327D02*
Y0038686D01*
X0003500Y0037327D02*
Y0038820D01*
X0004100Y0037327D02*
Y0038291D01*
X0003900Y0037327D02*
Y0038491D01*
X0005100Y0037327D02*
Y0037998D01*
X0005700Y0036904D02*
Y0037998D01*
X0002350Y0037327D02*
X0005100D01*
X0004700D02*
Y0037998D01*
X0004900Y0037327D02*
Y0037998D01*
X0002900Y0037327D02*
Y0039549D01*
X0002700Y0037327D02*
Y0039549D01*
X0003300Y0037327D02*
Y0039549D01*
X0003100Y0037327D02*
Y0039549D01*
X0002500Y0037327D02*
Y0039549D01*
X0001700Y0037363D02*
Y0039548D01*
X0001500Y0037132D02*
Y0039548D01*
X0001300Y0033450D02*
Y0039548D01*
X0001100Y0033419D02*
Y0039548D01*
X0000900Y0033346D02*
Y0039548D01*
X0000700Y0033218D02*
Y0039548D01*
X0000500Y0033005D02*
Y0039547D01*
X0000429Y0032888D02*
Y0039547D01*
X0009033Y0033600D02*
X0010177D01*
X0009342Y0033200D02*
X0010196D01*
X0009263Y0033400D02*
X0010149D01*
X0009342Y0033000D02*
X0010349D01*
X0008179Y0032673D02*
X0008450D01*
X0006300Y0033527D02*
X0008450D01*
X0008206Y0032600D02*
X0008568D01*
X0006127Y0035150D02*
Y0036300D01*
X0006100Y0033477D02*
Y0034420D01*
X0005900Y0033303D02*
Y0034286D01*
X0005402Y0037202D02*
X0006002Y0036602D01*
X0005273Y0035150D02*
Y0036123D01*
X0005700Y0033103D02*
Y0034248D01*
X0005500Y0032903D02*
Y0034286D01*
X0005498Y0032902D02*
X0005998Y0033402D01*
X0004952Y0033400D02*
X0005996D01*
X0004952Y0033000D02*
X0005596D01*
X0004952Y0032800D02*
X0005423D01*
X0004952Y0032600D02*
X0005373D01*
X0011300Y0029672D02*
Y0032998D01*
X0011100Y0029672D02*
Y0032998D01*
X0011700Y0029672D02*
Y0032998D01*
X0011500Y0029672D02*
Y0032998D01*
X0010500Y0029672D02*
Y0032911D01*
X0010300Y0029672D02*
Y0033045D01*
X0010900Y0029672D02*
Y0032911D01*
X0010700Y0029672D02*
Y0032873D01*
X0008900Y0029672D02*
Y0032557D01*
X0008802Y0029672D02*
Y0031750D01*
X0009300Y0029672D02*
Y0032866D01*
X0009100Y0029672D02*
Y0032637D01*
X0008700Y0032027D02*
Y0032558D01*
X0008300Y0032429D02*
Y0032673D01*
X0008500Y0032229D02*
Y0032637D01*
X0005373Y0031374D02*
Y0032600D01*
X0005100Y0031647D02*
Y0036297D01*
X0004952Y0031722D02*
Y0033452D01*
X0005300Y0031447D02*
Y0034420D01*
X0008224Y0032504D02*
X0008677Y0032052D01*
X0004952Y0032400D02*
X0005373D01*
X0005147Y0031600D02*
X0005373D01*
X0005025Y0031722D02*
X0005350Y0031397D01*
X0004952Y0032000D02*
X0005373D01*
X0004952Y0032200D02*
X0005373D01*
X0004952Y0031800D02*
X0005373D01*
X0000429Y0036200D02*
X0005197D01*
X0002232Y0036400D02*
X0004997D01*
X0000429Y0036000D02*
X0005273D01*
X0004923Y0036473D02*
X0005273Y0036123D01*
X0000429Y0035600D02*
X0005273D01*
X0000429Y0035800D02*
X0005273D01*
X0000429Y0035200D02*
X0005273D01*
X0000429Y0035400D02*
X0005273D01*
X0000429Y0033800D02*
X0010295D01*
X0000429Y0034400D02*
X0005320D01*
X0000429Y0033600D02*
X0008567D01*
X0002848Y0033452D02*
X0004952D01*
X0000429Y0035000D02*
X0005186D01*
X0000429Y0034800D02*
X0005148D01*
X0000429Y0034600D02*
X0005186D01*
X0004300Y0033452D02*
Y0036473D01*
X0000429Y0037000D02*
X0001457D01*
X0004700Y0033452D02*
Y0036473D01*
X0004500Y0033452D02*
Y0036473D01*
X0000429Y0037200D02*
X0001537D01*
X0000429Y0036800D02*
X0001458D01*
X0000429Y0036600D02*
X0001537D01*
X0003500Y0033452D02*
Y0036473D01*
X0003100Y0033452D02*
Y0036473D01*
X0004900Y0033452D02*
Y0036473D01*
X0003700Y0033452D02*
Y0036473D01*
X0002350D02*
X0004923D01*
X0000429Y0036400D02*
X0001768D01*
X0002900Y0033452D02*
Y0036473D01*
X0003900Y0033452D02*
Y0036473D01*
X0003300Y0033452D02*
Y0036473D01*
X0004952Y0033200D02*
X0005796D01*
X0004100Y0033452D02*
Y0036473D01*
X0002043Y0033200D02*
X0002848D01*
X0001686Y0033400D02*
X0002848D01*
Y0031722D02*
Y0033452D01*
X0002224Y0033000D02*
X0002848D01*
X0002392Y0032600D02*
X0002848D01*
X0002333Y0032800D02*
X0002848D01*
X0002392Y0032200D02*
X0002848D01*
X0002412Y0032400D02*
X0002848D01*
X0002223Y0031800D02*
X0002848D01*
X0002332Y0032000D02*
X0002848D01*
X0002164Y0031722D02*
X0002848D01*
X0002300Y0032872D02*
Y0036437D01*
X0002100Y0033147D02*
Y0036357D01*
X0002700Y0031722D02*
Y0036473D01*
X0002500Y0031722D02*
Y0036473D01*
X0001700Y0033395D02*
Y0036437D01*
X0001500Y0033442D02*
Y0036668D01*
X0001900Y0033303D02*
Y0036358D01*
X0002300Y0031722D02*
Y0031928D01*
X0000429Y0033400D02*
X0001034D01*
X0000429Y0033200D02*
X0000677D01*
X0023100Y0026367D02*
Y0027923D01*
X0022900Y0026288D02*
Y0027923D01*
X0022700Y0026057D02*
Y0027923D01*
X0022250D02*
X0024848D01*
X0022500Y0025699D02*
Y0027923D01*
X0022300Y0025642D02*
Y0027923D01*
X0022589Y0024600D02*
X0022697D01*
X0022300Y0024188D02*
Y0024658D01*
X0022478Y0024000D02*
X0023297D01*
X0022500Y0023959D02*
Y0024601D01*
X0021354Y0024400D02*
X0022897D01*
X0021302Y0024600D02*
X0022511D01*
X0022281Y0024200D02*
X0023097D01*
X0022100Y0025469D02*
Y0027951D01*
X0021900Y0024267D02*
Y0028097D01*
X0021331Y0025400D02*
X0022058D01*
X0021700Y0024188D02*
Y0028297D01*
X0021500Y0024254D02*
Y0028497D01*
X0021349Y0025200D02*
X0022001D01*
X0021302Y0024452D02*
Y0025021D01*
X0022100Y0024268D02*
Y0024831D01*
X0021554Y0024200D02*
X0021719D01*
X0021302Y0024800D02*
X0022124D01*
X0021302Y0025000D02*
X0022019D01*
X0021302Y0024452D02*
X0021602Y0024152D01*
X0023100Y0023402D02*
Y0024197D01*
X0022900Y0023506D02*
Y0024397D01*
X0023254Y0023200D02*
X0023423D01*
X0023102Y0023400D02*
X0023423D01*
X0022547Y0023800D02*
X0023423D01*
X0022682Y0024614D02*
X0023423Y0023873D01*
X0022537Y0023600D02*
X0023423D01*
X0023154Y0022600D02*
X0023423D01*
X0023273Y0022800D02*
X0023423D01*
X0023100Y0020428D02*
Y0022548D01*
X0022900Y0020228D02*
Y0022444D01*
X0022548Y0019877D02*
X0023423Y0020752D01*
X0022700Y0023524D02*
Y0024597D01*
X0022300Y0019195D02*
Y0022498D01*
X0022100Y0018352D02*
Y0022498D01*
X0021500Y0018352D02*
Y0022498D01*
X0021300Y0018352D02*
Y0022498D01*
X0022700Y0020028D02*
Y0022426D01*
X0022500Y0019818D02*
Y0022483D01*
X0021900Y0018352D02*
Y0022498D01*
X0021700Y0018352D02*
Y0022498D01*
X0022300Y0018352D02*
Y0019120D01*
X0020498Y0029498D02*
X0021948Y0028048D01*
X0019603Y0028200D02*
X0021797D01*
X0019603Y0027800D02*
X0024972D01*
X0019603Y0028000D02*
X0022006D01*
X0019603Y0027400D02*
X0025223D01*
X0019603Y0027600D02*
X0025172D01*
X0019603Y0027000D02*
X0025223D01*
X0019603Y0027200D02*
X0025223D01*
X0019603Y0026200D02*
X0022795D01*
X0019603Y0026000D02*
X0022677D01*
X0020845Y0025800D02*
X0022649D01*
X0021227Y0025600D02*
X0022231D01*
X0019603Y0026800D02*
X0023855D01*
X0019603Y0026600D02*
X0023579D01*
X0019603Y0026400D02*
X0023488D01*
X0020900Y0025793D02*
Y0029097D01*
X0020700Y0025792D02*
Y0029297D01*
X0021300Y0025484D02*
Y0028697D01*
X0021100Y0025713D02*
Y0028897D01*
X0019603Y0029000D02*
X0020997D01*
X0019603Y0029200D02*
X0020797D01*
X0019603Y0028800D02*
X0021197D01*
X0020229Y0023800D02*
X0020747D01*
X0020573Y0023973D02*
X0021123Y0023423D01*
X0020429Y0023600D02*
X0020947D01*
X0019603Y0028400D02*
X0021597D01*
X0019603Y0028600D02*
X0021397D01*
X0019600Y0025800D02*
X0020755D01*
X0020004Y0022200D02*
X0023423D01*
X0020500Y0022498D02*
X0022472D01*
X0020023Y0021800D02*
X0023423D01*
X0020051Y0022000D02*
X0023423D01*
X0019927Y0021600D02*
X0023423D01*
X0019927Y0022400D02*
X0023423D01*
X0019927Y0021200D02*
X0023423D01*
X0019927Y0021400D02*
X0023423D01*
X0019927Y0020400D02*
X0023072D01*
X0020079Y0020200D02*
X0022872D01*
X0020190Y0020000D02*
X0022672D01*
X0020202Y0019800D02*
X0022487D01*
X0019927Y0020800D02*
X0023423D01*
X0019927Y0021000D02*
X0023423D01*
X0019927Y0020600D02*
X0023272D01*
X0021100Y0023352D02*
Y0023447D01*
X0020900Y0023352D02*
Y0023647D01*
X0020629Y0023400D02*
X0021149D01*
X0020700Y0023352D02*
Y0023847D01*
X0019927Y0024102D02*
X0020677Y0023352D01*
X0021219D01*
X0020700Y0018388D02*
Y0022498D01*
X0021100Y0018352D02*
Y0022498D01*
X0020900Y0018352D02*
Y0022498D01*
X0020202Y0019600D02*
X0022424D01*
X0020202Y0019400D02*
X0022354D01*
X0020202Y0019200D02*
X0022300D01*
X0022978Y0015800D02*
X0025022D01*
X0023178Y0016000D02*
X0024822D01*
X0023227Y0015002D02*
X0026375D01*
X0022851Y0015673D02*
X0023704Y0016526D01*
X0022763Y0015400D02*
X0033472D01*
X0022842Y0015600D02*
X0025224D01*
X0022532Y0015200D02*
X0033571D01*
X0022275Y0012548D02*
X0024025D01*
X0022275Y0011600D02*
X0036322D01*
X0022275Y0011800D02*
X0036122D01*
X0022275Y0011400D02*
X0036522D01*
X0022275Y0011200D02*
X0023876D01*
X0022275Y0012200D02*
X0024870D01*
X0022275Y0012400D02*
X0024736D01*
X0022275Y0012000D02*
X0035922D01*
X0022900Y0018478D02*
Y0018608D01*
X0022700Y0018352D02*
Y0018627D01*
X0023100Y0014982D02*
Y0015921D01*
X0022773Y0018352D02*
X0022998Y0018577D01*
X0022500Y0018352D02*
Y0018732D01*
Y0016528D02*
Y0016697D01*
X0022300Y0016328D02*
Y0016773D01*
X0022850Y0014802D02*
X0022925Y0014877D01*
X0022900Y0014851D02*
Y0015721D01*
X0022500Y0014802D02*
Y0015186D01*
X0022300Y0014802D02*
Y0015148D01*
X0022700Y0014802D02*
Y0015320D01*
X0022275Y0010800D02*
X0023422D01*
X0022275Y0003800D02*
X0024231D01*
X0022275Y0004400D02*
X0024249D01*
X0022275Y0011000D02*
X0023622D01*
X0022275Y0004200D02*
X0024204D01*
X0022275Y0004000D02*
X0024199D01*
X0022275Y0003000D02*
X0028667D01*
X0022275Y0002800D02*
X0028467D01*
X0022275Y0002600D02*
X0028267D01*
X0022275Y0002400D02*
X0024648D01*
X0022275Y0003400D02*
X0024434D01*
X0022275Y0003600D02*
X0024306D01*
X0022275Y0003200D02*
X0024648D01*
X0022700Y0009027D02*
Y0012548D01*
X0022500Y0009027D02*
Y0012548D01*
X0023100Y0009027D02*
Y0012548D01*
X0022900Y0009027D02*
Y0012548D01*
X0022275Y0010600D02*
X0023292D01*
X0022300Y0009027D02*
Y0012548D01*
X0022275Y0009027D02*
Y0012548D01*
X0023273Y0009550D02*
Y0010475D01*
X0023100Y0000418D02*
Y0006373D01*
X0022900Y0000418D02*
Y0006373D01*
X0022700Y0000418D02*
Y0006373D01*
X0022500Y0000418D02*
Y0006373D01*
X0022300Y0000418D02*
Y0006373D01*
X0020681Y0018400D02*
X0022821D01*
X0020750Y0018352D02*
X0022773D01*
X0022217Y0016245D02*
X0022629Y0016657D01*
X0022100Y0016214D02*
Y0016773D01*
X0020202Y0018800D02*
X0022430D01*
X0020202Y0019000D02*
X0022322D01*
X0019072Y0016600D02*
X0022571D01*
X0020216Y0016773D02*
X0022375D01*
X0020672Y0015000D02*
X0023188D01*
X0020870Y0014802D02*
X0022850D01*
X0022100D02*
Y0015186D01*
X0019272Y0016400D02*
X0022371D01*
X0019472Y0016200D02*
X0022067D01*
X0020472Y0015200D02*
X0022067D01*
X0021900Y0016079D02*
Y0016773D01*
X0021700Y0014802D02*
Y0016773D01*
X0021500Y0014802D02*
Y0016773D01*
X0021300Y0014802D02*
Y0016773D01*
X0020700Y0014972D02*
Y0016773D01*
X0018650Y0017022D02*
X0020870Y0014802D01*
X0020272Y0015400D02*
X0021837D01*
X0020900Y0014802D02*
Y0016773D01*
X0021900Y0014802D02*
Y0015321D01*
X0021100Y0014802D02*
Y0016773D01*
X0019672Y0016000D02*
X0021837D01*
X0019872Y0015800D02*
X0021758D01*
X0020072Y0015600D02*
X0021758D01*
X0022275Y0005200D02*
X0024873D01*
X0022275Y0005400D02*
X0024873D01*
X0022275Y0005000D02*
X0024744D01*
X0022275Y0004800D02*
X0024486D01*
X0022275Y0006000D02*
X0025173D01*
X0022275Y0006200D02*
X0024320D01*
X0022275Y0005800D02*
X0024997D01*
X0022275Y0005600D02*
X0024885D01*
X0022275Y0000800D02*
X0024487D01*
X0022275Y0001000D02*
X0024338D01*
X0022275Y0000418D02*
X0039571Y0000428D01*
X0022275Y0000600D02*
X0024744D01*
X0022275Y0002200D02*
X0024434D01*
X0022275Y0004600D02*
X0024338D01*
X0022275Y0002000D02*
X0024306D01*
X0022275Y0009600D02*
X0023273D01*
X0022275Y0009800D02*
X0023273D01*
X0022275Y0009400D02*
X0023186D01*
X0022275Y0009200D02*
X0023148D01*
X0022275Y0010200D02*
X0023273D01*
X0022275Y0010400D02*
X0023273D01*
X0022275Y0010000D02*
X0023273D01*
X0022275Y0001800D02*
X0024231D01*
X0022275Y0001600D02*
X0024199D01*
X0022275Y0001200D02*
X0024249D01*
X0022275Y0001400D02*
X0024204D01*
X0022275Y0006373D02*
X0024197D01*
X0022275Y0009027D02*
X0023176D01*
X0022275Y0000418D02*
Y0006373D01*
X0020500Y0025713D02*
Y0029497D01*
X0019700Y0025714D02*
Y0031172D01*
X0020300Y0025482D02*
Y0030943D01*
X0019900Y0025580D02*
Y0031369D01*
X0018263Y0026200D02*
X0018750D01*
X0018033Y0026400D02*
X0018750D01*
X0019603Y0025850D02*
Y0030324D01*
X0018750Y0026027D02*
Y0030147D01*
X0019880Y0025600D02*
X0020373D01*
X0020014Y0025400D02*
X0020269D01*
X0018598Y0025875D02*
X0018750Y0026027D01*
X0018343Y0026000D02*
X0018723D01*
X0018300Y0026134D02*
Y0030431D01*
X0018100Y0026363D02*
Y0032898D01*
X0018700Y0025977D02*
Y0030197D01*
X0018500Y0025721D02*
Y0030258D01*
X0017900Y0026443D02*
Y0032898D01*
X0017700Y0026442D02*
Y0032898D01*
X0017500Y0026363D02*
Y0032898D01*
X0017300Y0026132D02*
Y0032898D01*
X0018342Y0025800D02*
X0018538D01*
X0018263Y0025600D02*
X0018474D01*
X0018227Y0025400D02*
X0018473D01*
X0020014Y0025000D02*
X0020308D01*
X0020052Y0025200D02*
X0020251D01*
X0020300Y0023729D02*
Y0025018D01*
X0020100Y0023929D02*
Y0031746D01*
X0018227Y0025000D02*
X0018473D01*
X0018227Y0025200D02*
X0018473D01*
X0019927Y0024102D02*
Y0024850D01*
Y0024600D02*
X0020448D01*
X0019927Y0024800D02*
X0020448D01*
Y0024275D02*
Y0024825D01*
X0019927Y0024400D02*
X0020448D01*
X0018227Y0024600D02*
X0018473D01*
X0018227Y0024800D02*
X0018473D01*
X0018227Y0024400D02*
X0018473D01*
X0017300Y0023646D02*
Y0025668D01*
X0017100Y0023637D02*
Y0032898D01*
X0018300Y0022014D02*
Y0025666D01*
X0016900Y0023545D02*
Y0032898D01*
X0016700Y0023268D02*
Y0032898D01*
X0016300Y0021476D02*
Y0032790D01*
X0016500Y0021448D02*
Y0032898D01*
X0018473Y0023776D02*
Y0025574D01*
X0017373Y0023631D02*
Y0025550D01*
X0018227Y0022037D02*
Y0025550D01*
X0016150Y0021947D02*
Y0025222D01*
Y0024600D02*
X0017373D01*
X0016150Y0024800D02*
X0017373D01*
X0016150Y0024400D02*
X0017373D01*
X0015814Y0029200D02*
X0018750D01*
X0014500Y0029203D02*
Y0031968D01*
X0015680Y0029000D02*
X0018750D01*
X0012172Y0029200D02*
X0014496D01*
X0014300Y0029003D02*
Y0033036D01*
X0013923Y0028627D02*
X0014751Y0029454D01*
X0012372Y0029000D02*
X0014296D01*
X0015103Y0028600D02*
X0018750D01*
X0015303Y0028800D02*
X0018750D01*
X0014703Y0028200D02*
X0018750D01*
X0014903Y0028400D02*
X0018750D01*
X0014503Y0028000D02*
X0018750D01*
X0014402Y0027898D02*
X0015354Y0028851D01*
X0014100Y0028803D02*
Y0032998D01*
X0013900Y0028627D02*
Y0032998D01*
X0013700Y0028627D02*
Y0032998D01*
X0013500Y0028627D02*
Y0032998D01*
X0013100Y0028627D02*
Y0032998D01*
X0012500Y0028872D02*
Y0032998D01*
X0013300Y0028627D02*
Y0032998D01*
X0012572Y0028800D02*
X0014096D01*
X0012700Y0028672D02*
Y0032998D01*
X0012745Y0028627D02*
X0013923D01*
X0012900D02*
Y0032998D01*
X0012300Y0029072D02*
Y0032998D01*
X0011700Y0029672D02*
X0012200Y0029172D01*
X0012745Y0028627D01*
X0014572Y0026800D02*
X0018750D01*
X0014443Y0027600D02*
X0018750D01*
X0014772Y0026600D02*
X0018750D01*
X0014972Y0026400D02*
X0017567D01*
X0014442Y0027400D02*
X0018750D01*
X0014363Y0027800D02*
X0018750D01*
X0014372Y0027000D02*
X0018750D01*
X0014363Y0027200D02*
X0018750D01*
X0015972Y0025400D02*
X0017373D01*
X0015772Y0025600D02*
X0017337D01*
X0016150Y0025000D02*
X0017373D01*
X0016150Y0025200D02*
X0017373D01*
X0015172Y0026200D02*
X0017337D01*
X0015372Y0026000D02*
X0017257D01*
X0015572Y0025800D02*
X0017258D01*
X0015700Y0025672D02*
Y0029020D01*
X0015500Y0025872D02*
Y0028886D01*
X0016100Y0025272D02*
Y0032590D01*
X0015900Y0025472D02*
Y0032390D01*
X0015100Y0026272D02*
Y0028596D01*
X0014900Y0026472D02*
Y0028396D01*
X0015300Y0026072D02*
Y0028796D01*
X0014700Y0026672D02*
Y0028196D01*
X0014500Y0026872D02*
Y0027996D01*
X0014327Y0027045D02*
Y0027150D01*
Y0027045D02*
X0016150Y0025222D01*
X0020029Y0024000D02*
X0020549D01*
X0020500Y0023529D02*
Y0024072D01*
X0019927Y0024200D02*
X0020455D01*
X0019927Y0022800D02*
X0020022D01*
X0019927Y0022895D02*
X0020198Y0022623D01*
X0019927Y0022325D02*
Y0022895D01*
Y0022600D02*
X0020224D01*
X0020100Y0020177D02*
Y0022722D01*
X0019927Y0020352D02*
X0020077Y0020202D01*
X0019073Y0022325D02*
Y0022999D01*
X0019927Y0020352D02*
Y0021625D01*
X0019073Y0020175D02*
Y0021625D01*
X0018598Y0023474D02*
X0019073Y0022999D01*
X0018563Y0021800D02*
X0018977D01*
X0018642Y0021600D02*
X0019073D01*
X0018563Y0021200D02*
X0019073D01*
X0018642Y0021400D02*
X0019073D01*
X0018527Y0020600D02*
X0019073D01*
X0018527Y0021000D02*
X0019073D01*
X0018527Y0020200D02*
X0019073D01*
X0018527Y0020400D02*
X0019073D01*
X0018527Y0020000D02*
X0019111D01*
X0020500Y0018468D02*
Y0022498D01*
X0020300Y0018467D02*
Y0022548D01*
X0020202Y0018440D02*
Y0019900D01*
X0018672Y0017000D02*
X0019813D01*
X0019550Y0017263D02*
X0019914Y0016898D01*
X0019700Y0015972D02*
Y0017113D01*
X0020100Y0015572D02*
Y0016790D01*
X0020500Y0015172D02*
Y0016773D01*
X0020300Y0015372D02*
Y0016773D01*
X0018872Y0016800D02*
X0020068D01*
X0019900Y0015772D02*
Y0016913D01*
X0019198Y0019873D02*
X0019348Y0019723D01*
X0019100Y0016572D02*
Y0020028D01*
X0018700Y0016972D02*
Y0023373D01*
X0018527Y0019400D02*
Y0021150D01*
X0018900Y0016772D02*
Y0023173D01*
X0019348Y0017625D02*
Y0019723D01*
X0019500Y0016172D02*
Y0017299D01*
X0019300Y0016372D02*
Y0019772D01*
X0018527Y0019600D02*
X0019348D01*
X0018527Y0019800D02*
X0019272D01*
X0018527Y0019400D02*
X0019348D01*
X0018227Y0024000D02*
X0018473D01*
X0018500Y0021880D02*
Y0023629D01*
X0018227Y0023800D02*
X0018473D01*
X0018227Y0024200D02*
X0018473D01*
X0018227Y0023400D02*
X0018673D01*
X0018227Y0023600D02*
X0018512D01*
X0018227Y0022400D02*
X0019073D01*
X0018227Y0022600D02*
X0019073D01*
X0018227Y0022200D02*
X0018996D01*
X0018333Y0022000D02*
X0018949D01*
X0018227Y0023000D02*
X0019073D01*
X0018227Y0023200D02*
X0018873D01*
X0018227Y0022800D02*
X0019073D01*
X0016150Y0024000D02*
X0017373D01*
X0016150Y0024200D02*
X0017373D01*
X0016150Y0023800D02*
X0017373D01*
X0016150Y0023600D02*
X0016992D01*
X0016150Y0023400D02*
X0016762D01*
X0016150Y0023200D02*
X0016683D01*
X0016150Y0022200D02*
X0016798D01*
X0016150Y0022400D02*
X0016798D01*
X0016150Y0021800D02*
X0016798D01*
X0016150Y0022000D02*
X0016798D01*
X0016150Y0022800D02*
X0016762D01*
X0016150Y0023000D02*
X0016683D01*
X0016150Y0022600D02*
X0016798D01*
X0018477Y0019200D02*
X0019348D01*
X0018527Y0020800D02*
X0019073D01*
X0018303Y0019000D02*
X0019348D01*
X0018103Y0018800D02*
X0019348D01*
X0017727Y0018400D02*
X0019348D01*
X0017903Y0018600D02*
X0019348D01*
X0017727Y0017400D02*
X0019413D01*
X0017727Y0017600D02*
X0019349D01*
X0017814Y0017200D02*
X0019613D01*
X0017851Y0017022D02*
X0018650D01*
X0017727Y0018000D02*
X0019348D01*
X0017727Y0018200D02*
X0019348D01*
X0017727Y0017800D02*
X0019348D01*
X0016606Y0021400D02*
X0016798D01*
X0016700Y0021330D02*
Y0022932D01*
X0016798Y0021208D02*
Y0022750D01*
X0016150Y0021600D02*
X0016798D01*
X0016150Y0021448D02*
Y0021947D01*
X0018100Y0017022D02*
Y0018796D01*
X0017900Y0017022D02*
Y0018596D01*
X0018500Y0017022D02*
Y0019251D01*
X0018300Y0017022D02*
Y0018996D01*
X0017727Y0018423D02*
X0018402Y0019098D01*
X0017727Y0017350D02*
Y0018423D01*
X0014258Y0026267D02*
X0015575Y0024950D01*
X0013803Y0025800D02*
X0014725D01*
X0011642Y0024600D02*
X0015575D01*
X0011563Y0024800D02*
X0015575D01*
X0011642Y0024400D02*
X0015575D01*
X0011563Y0024200D02*
X0015575D01*
X0011526Y0023200D02*
X0015575D01*
X0011526Y0023000D02*
X0015575D01*
X0011526Y0022800D02*
X0015575D01*
X0014203Y0026200D02*
X0014325D01*
X0013802Y0025798D02*
X0014202Y0026198D01*
X0014003Y0026000D02*
X0014525D01*
X0011700Y0017114D02*
Y0025673D01*
X0014500Y0017042D02*
Y0026025D01*
X0014300Y0016963D02*
Y0026225D01*
X0013900Y0016927D02*
Y0025896D01*
X0014100Y0016927D02*
Y0026096D01*
X0015100Y0016734D02*
Y0025425D01*
X0015575Y0016450D02*
Y0024950D01*
X0014700Y0017043D02*
Y0025825D01*
X0014900Y0016963D02*
Y0025625D01*
X0013500Y0016927D02*
Y0025673D01*
X0013700Y0016927D02*
Y0025723D01*
X0013100Y0017014D02*
Y0025673D01*
X0013300Y0016927D02*
Y0025673D01*
X0012900Y0017052D02*
Y0025673D01*
X0012700Y0017014D02*
Y0025673D01*
X0011900Y0016980D02*
Y0025673D01*
X0012500Y0016879D02*
Y0025673D01*
X0011300Y0025014D02*
Y0025673D01*
X0011500Y0024880D02*
Y0025673D01*
X0010152D02*
X0013500D01*
X0011100Y0025052D02*
Y0025673D01*
X0010078Y0025600D02*
X0014925D01*
X0011333Y0025000D02*
X0015525D01*
X0009878Y0025400D02*
X0015125D01*
X0009852Y0025200D02*
X0015325D01*
X0009825Y0028428D02*
X0010497Y0029100D01*
X0010700Y0024880D02*
Y0025673D01*
X0008802Y0029100D02*
X0010497D01*
X0008802Y0029000D02*
X0010397D01*
X0010900Y0025014D02*
Y0025673D01*
X0010500Y0024880D02*
Y0025673D01*
X0010333Y0025000D02*
X0010867D01*
X0011526Y0023600D02*
X0015575D01*
X0011526Y0023400D02*
X0015575D01*
X0011526Y0024000D02*
X0015575D01*
X0011526Y0023800D02*
X0015575D01*
X0011526Y0022600D02*
X0015575D01*
X0011526Y0022400D02*
X0015575D01*
X0011526Y0022200D02*
X0015575D01*
X0011476Y0021800D02*
X0015575D01*
X0011526Y0022001D02*
Y0024150D01*
X0011526Y0022000D02*
X0015575D01*
X0011500Y0017152D02*
Y0021853D01*
X0011299Y0021597D02*
X0011401Y0021700D01*
X0014833Y0017000D02*
X0015575D01*
X0011301Y0021600D02*
X0015575D01*
X0011241Y0021400D02*
X0015575D01*
X0011066Y0021200D02*
X0015575D01*
X0015142Y0016600D02*
X0015575D01*
Y0016450D02*
X0015938D01*
X0015063Y0016800D02*
X0015575D01*
X0015142Y0016400D02*
X0015974D01*
X0011300Y0017114D02*
Y0021598D01*
X0011880Y0017000D02*
X0012667D01*
X0011100Y0017027D02*
Y0021225D01*
X0013133Y0017000D02*
X0014367D01*
X0013250Y0016927D02*
X0014250D01*
X0012014Y0016800D02*
X0012437D01*
X0012052Y0016600D02*
X0012358D01*
X0015998Y0016373D02*
X0016598Y0015773D01*
X0015063Y0016200D02*
X0016172D01*
X0014833Y0016000D02*
X0016372D01*
X0016900Y0015648D02*
X0018122D01*
X0018819Y0015600D02*
X0019200D01*
X0013250Y0016073D02*
X0014250D01*
X0013133Y0016000D02*
X0014368D01*
X0012014Y0016400D02*
X0012358D01*
X0011880Y0016200D02*
X0012437D01*
X0010527Y0019200D02*
X0015575D01*
X0010527Y0019000D02*
X0015575D01*
X0010527Y0019600D02*
X0015575D01*
X0010527Y0019400D02*
X0015575D01*
X0010527Y0018400D02*
X0015575D01*
X0010527Y0018200D02*
X0015575D01*
X0010527Y0018800D02*
X0015575D01*
X0010527Y0018600D02*
X0015575D01*
X0010527Y0020800D02*
X0015575D01*
X0010527Y0020600D02*
X0015575D01*
X0010527Y0021000D02*
X0015575D01*
X0010527Y0020000D02*
X0015575D01*
X0010527Y0019800D02*
X0015575D01*
X0010527Y0020400D02*
X0015575D01*
X0010527Y0020200D02*
X0015575D01*
X0010527Y0017600D02*
X0015575D01*
X0010527Y0017400D02*
X0015575D01*
X0010527Y0018000D02*
X0015575D01*
X0010527Y0017800D02*
X0015575D01*
X0010527Y0017200D02*
X0015575D01*
X0008853Y0015600D02*
X0018181D01*
X0008726Y0016000D02*
X0012667D01*
X0008726Y0015800D02*
X0016572D01*
X0010700Y0017027D02*
Y0021102D01*
X0010900Y0017027D02*
Y0021121D01*
X0010527Y0017177D02*
Y0021147D01*
Y0017177D02*
X0010677Y0017027D01*
X0011150D01*
X0010500Y0016173D02*
X0011150D01*
X0010300Y0028903D02*
Y0029100D01*
X0010100Y0028703D02*
Y0029100D01*
X0009900Y0028503D02*
Y0029100D01*
X0008802Y0028800D02*
X0010197D01*
X0008802Y0028600D02*
X0009997D01*
X0008802Y0028400D02*
X0009799D01*
X0009700Y0028159D02*
Y0029100D01*
X0008802Y0028200D02*
X0009706D01*
X0008802Y0027804D02*
Y0029100D01*
X0009700Y0026426D02*
Y0026622D01*
X0008802Y0028000D02*
X0009673D01*
Y0027351D02*
Y0028011D01*
X0009852Y0025373D02*
X0010152Y0025673D01*
X0009236Y0025964D02*
X0009673Y0026402D01*
X0010100Y0025052D02*
Y0025621D01*
X0010300Y0025014D02*
Y0025673D01*
X0009900Y0025014D02*
Y0025421D01*
X0009852Y0024993D02*
Y0025373D01*
X0009500Y0026228D02*
Y0029100D01*
X0009300Y0026028D02*
Y0029100D01*
X0008900Y0026378D02*
Y0029100D01*
X0009100Y0026178D02*
Y0029100D01*
X0008878Y0026400D02*
X0009671D01*
X0009078Y0026200D02*
X0009471D01*
X0007577Y0028600D02*
X0007948D01*
Y0027981D02*
Y0029100D01*
X0008802Y0027800D02*
X0009673D01*
X0008750Y0027600D02*
X0009673D01*
X0008574Y0027400D02*
X0009673D01*
X0008526Y0027352D02*
X0008677Y0027502D01*
X0007900Y0027932D02*
Y0029100D01*
X0007798Y0027830D02*
X0007948Y0027981D01*
X0007700Y0027677D02*
Y0029100D01*
X0007577Y0027600D02*
X0007679D01*
X0007577Y0027400D02*
X0007673D01*
X0007577Y0027200D02*
X0007673D01*
X0008526Y0026751D02*
Y0027352D01*
X0008700Y0026578D02*
Y0027527D01*
X0008526Y0027200D02*
X0009585D01*
X0008526Y0027000D02*
X0009548D01*
X0008526Y0026800D02*
X0009587D01*
X0008678Y0026600D02*
X0009722D01*
X0008526Y0026751D02*
X0009127Y0026151D01*
X0008398Y0020226D02*
Y0025672D01*
X0007673Y0026574D02*
Y0027529D01*
X0007577Y0026400D02*
X0007711D01*
X0008300Y0020128D02*
Y0025771D01*
X0008100Y0019928D02*
Y0025971D01*
X0007798Y0026273D02*
X0008398Y0025672D01*
X0007900Y0019673D02*
Y0026171D01*
X0007577Y0021600D02*
X0008398D01*
X0007577Y0021400D02*
X0008398D01*
X0007577Y0023000D02*
X0008398D01*
X0007577Y0022000D02*
X0008398D01*
X0009344Y0018000D02*
X0009673D01*
X0007577Y0021200D02*
X0008398D01*
X0008726Y0018000D02*
X0009006D01*
X0007577Y0020800D02*
X0008398D01*
X0007577Y0020600D02*
X0008398D01*
X0007577Y0021800D02*
X0008398D01*
X0007577Y0021000D02*
X0008398D01*
X0007998Y0019826D02*
X0008398Y0020226D01*
X0007577Y0020400D02*
X0008398D01*
X0008726Y0017200D02*
X0009673D01*
X0008726Y0016800D02*
X0009723D01*
X0008726Y0016600D02*
X0009897D01*
X0009798Y0016698D02*
X0010198Y0016298D01*
X0008726Y0016400D02*
X0010097D01*
X0008726Y0016200D02*
X0010352D01*
X0009673Y0017000D02*
Y0018289D01*
X0008900Y0015553D02*
Y0018047D01*
X0008726Y0015727D02*
Y0018204D01*
X0007873Y0015550D02*
Y0019524D01*
X0008726Y0017400D02*
X0009673D01*
X0008726Y0017000D02*
X0009673D01*
X0008726Y0017800D02*
X0009673D01*
X0008726Y0017600D02*
X0009673D01*
X0007577Y0024000D02*
X0008398D01*
X0007577Y0023800D02*
X0008398D01*
X0007577Y0024400D02*
X0008398D01*
X0007577Y0024200D02*
X0008398D01*
X0007577Y0023200D02*
X0008398D01*
X0007577Y0022800D02*
X0008398D01*
X0007577Y0023600D02*
X0008398D01*
X0007577Y0023400D02*
X0008398D01*
X0007577Y0022200D02*
X0008398D01*
X0007577Y0020200D02*
X0008372D01*
X0007577Y0022600D02*
X0008398D01*
X0007577Y0022400D02*
X0008398D01*
X0007577Y0019600D02*
X0007880D01*
X0007577Y0019400D02*
X0007873D01*
X0007577Y0020000D02*
X0008172D01*
X0007577Y0019800D02*
X0007974D01*
X0007577Y0017200D02*
X0007873D01*
X0007577Y0017000D02*
X0007873D01*
X0007577Y0017600D02*
X0007873D01*
X0007577Y0017400D02*
X0007873D01*
X0007577Y0016400D02*
X0007873D01*
X0007577Y0016200D02*
X0007873D01*
X0007577Y0016800D02*
X0007873D01*
X0007577Y0016600D02*
X0007873D01*
X0007577Y0018800D02*
X0007873D01*
X0007577Y0018600D02*
X0007873D01*
X0007577Y0019200D02*
X0007873D01*
X0007577Y0019000D02*
X0007873D01*
X0007577Y0018000D02*
X0007873D01*
X0007577Y0017800D02*
X0007873D01*
X0007577Y0018400D02*
X0007873D01*
X0007577Y0018200D02*
X0007873D01*
X0021100Y0009214D02*
Y0012548D01*
X0020900Y0009252D02*
Y0012548D01*
X0020700Y0009214D02*
Y0012548D01*
X0018994Y0015806D02*
X0019998Y0014802D01*
X0020500Y0009079D02*
Y0012548D01*
X0021500Y0009027D02*
Y0012548D01*
X0021700Y0009027D02*
Y0012548D01*
X0021133Y0009200D02*
X0021700D01*
X0021300Y0009080D02*
Y0012548D01*
X0019100Y0014802D02*
Y0015700D01*
X0019300Y0014802D02*
Y0015500D01*
X0018700Y0014802D02*
Y0015536D01*
X0018900Y0014802D02*
Y0015670D01*
X0019700Y0014802D02*
Y0015100D01*
X0019900Y0014802D02*
Y0014900D01*
X0018500Y0014802D02*
Y0015498D01*
X0019500Y0014802D02*
Y0015300D01*
X0021700Y0009027D02*
Y0012548D01*
X0020300Y0008179D02*
Y0012548D01*
X0020100Y0002104D02*
Y0012548D01*
X0021345Y0009027D02*
X0021700D01*
X0020300Y0001904D02*
Y0007421D01*
X0018900Y0003003D02*
Y0012548D01*
X0019100Y0002996D02*
Y0012548D01*
X0018500Y0003003D02*
Y0012548D01*
X0018700Y0003003D02*
Y0012548D01*
X0019700Y0002504D02*
Y0012548D01*
X0019900Y0002304D02*
Y0012548D01*
X0019300Y0002902D02*
Y0012548D01*
X0019500Y0002704D02*
Y0012548D01*
X0018300Y0014802D02*
Y0015536D01*
X0017900Y0014802D02*
Y0015648D01*
X0018100Y0014802D02*
Y0015648D01*
X0009453Y0015000D02*
X0019800D01*
X0009651Y0014802D02*
X0019998D01*
X0009053Y0015400D02*
X0019400D01*
X0009253Y0015200D02*
X0019600D01*
X0016700Y0014802D02*
Y0015698D01*
X0016900Y0014802D02*
Y0015648D01*
X0016100Y0014802D02*
Y0016272D01*
X0016300Y0014802D02*
Y0016072D01*
X0017500Y0014802D02*
Y0015648D01*
X0017700Y0014802D02*
Y0015648D01*
X0017100Y0014802D02*
Y0015648D01*
X0017300Y0014802D02*
Y0015648D01*
X0017700Y0003003D02*
Y0012548D01*
X0017900Y0003003D02*
Y0012548D01*
X0017300Y0003003D02*
Y0012548D01*
X0017500Y0003003D02*
Y0012548D01*
X0018100Y0003003D02*
Y0012548D01*
X0018300Y0003003D02*
Y0012548D01*
X0015878D02*
X0021700D01*
X0015644Y0012400D02*
X0021700D01*
X0016900Y0003003D02*
Y0012548D01*
X0017100Y0003003D02*
Y0012548D01*
X0016500Y0014802D02*
Y0015872D01*
X0016700Y0003003D02*
Y0012548D01*
X0016300Y0003003D02*
Y0012548D01*
X0016500Y0003003D02*
Y0012548D01*
X0015900Y0003003D02*
Y0012548D01*
X0016100Y0003003D02*
Y0012548D01*
X0019803Y0002400D02*
X0021700D01*
X0021200Y0006373D02*
X0021700D01*
X0020003Y0002200D02*
X0021700D01*
X0019403Y0002800D02*
X0021700D01*
X0019603Y0002600D02*
X0021700D01*
X0020963Y0001400D02*
X0021700D01*
X0021042Y0001200D02*
X0021700D01*
X0020203Y0002000D02*
X0021700D01*
X0020403Y0001800D02*
X0021700D01*
X0020900Y0001480D02*
Y0006458D01*
X0020500Y0001704D02*
Y0006768D01*
X0020700Y0001614D02*
Y0006537D01*
X0021042Y0001000D02*
X0021700D01*
X0020733Y0001600D02*
X0021700D01*
X0021700Y0000418D02*
Y0006373D01*
X0021700Y0000418D02*
Y0006373D01*
X0021500Y0000417D02*
Y0006373D01*
X0021100Y0000417D02*
Y0006385D01*
X0020963Y0000800D02*
X0021700D01*
X0021300Y0000417D02*
Y0006373D01*
X0020733Y0000600D02*
X0021700D01*
X0020100Y0000417D02*
Y0000721D01*
X0019900Y0000416D02*
Y0001097D01*
X0019700Y0000416D02*
Y0001297D01*
X0019500Y0000416D02*
Y0001497D01*
X0020900Y0000417D02*
Y0000720D01*
X0020700Y0000417D02*
Y0000586D01*
X0020500Y0000417D02*
Y0000548D01*
X0020300Y0000417D02*
Y0000586D01*
X0019077Y0003000D02*
X0021700D01*
X0019325Y0002878D02*
X0020554Y0001649D01*
X0008180Y0001400D02*
X0019597D01*
X0018847Y0002150D02*
X0019951Y0001046D01*
X0008314Y0001200D02*
X0019797D01*
X0008352Y0001000D02*
X0019958D01*
X0008314Y0000800D02*
X0020037D01*
X0008180Y0000600D02*
X0020267D01*
X0011777Y0003003D02*
X0019023D01*
X0011953Y0002150D02*
X0018847D01*
X0019300Y0000416D02*
Y0001697D01*
X0019100Y0000416D02*
Y0001897D01*
X0011914Y0002000D02*
X0018997D01*
X0011780Y0001800D02*
X0019197D01*
X0018100Y0000415D02*
Y0002150D01*
X0017900Y0000415D02*
Y0002150D01*
X0017700Y0000415D02*
Y0002150D01*
X0017500Y0000415D02*
Y0002150D01*
X0018900Y0000416D02*
Y0002097D01*
X0018700Y0000416D02*
Y0002150D01*
X0018500Y0000416D02*
Y0002150D01*
X0018300Y0000415D02*
Y0002150D01*
X0016500Y0000414D02*
Y0002150D01*
X0016300Y0000414D02*
Y0002150D01*
X0016100Y0000414D02*
Y0002150D01*
X0015900Y0000414D02*
Y0002150D01*
X0017300Y0000415D02*
Y0002150D01*
X0017100Y0000415D02*
Y0002150D01*
X0016900Y0000415D02*
Y0002150D01*
X0016700Y0000414D02*
Y0002150D01*
X0015700Y0014802D02*
Y0016450D01*
X0015500Y0014802D02*
Y0025025D01*
X0015900Y0014802D02*
Y0016450D01*
X0015100Y0014802D02*
Y0016266D01*
X0015300Y0014802D02*
Y0025225D01*
X0014700Y0014802D02*
Y0015957D01*
X0014900Y0014802D02*
Y0016037D01*
X0014300Y0014802D02*
Y0016037D01*
X0014500Y0014802D02*
Y0015958D01*
X0012300Y0014802D02*
Y0025673D01*
X0013900Y0014802D02*
Y0016073D01*
X0011700Y0014802D02*
Y0016086D01*
X0011900Y0014802D02*
Y0016220D01*
X0013700Y0014802D02*
Y0016073D01*
X0014100Y0014802D02*
Y0016073D01*
X0013300Y0014802D02*
Y0016073D01*
X0013500Y0014802D02*
Y0016073D01*
X0014300Y0003003D02*
Y0013373D01*
X0014700Y0003003D02*
Y0013373D01*
X0012900Y0014802D02*
Y0015948D01*
X0013100Y0014802D02*
Y0015986D01*
X0013500Y0003003D02*
Y0013373D01*
X0014500Y0003003D02*
Y0013373D01*
X0012900Y0003003D02*
Y0013373D01*
X0013100Y0003003D02*
Y0013373D01*
X0012100Y0014802D02*
Y0025673D01*
X0012500Y0014802D02*
Y0016121D01*
X0010900Y0014802D02*
Y0016173D01*
X0011100Y0014802D02*
Y0016173D01*
X0012700Y0014802D02*
Y0015986D01*
X0012300Y0003003D02*
Y0013373D01*
X0011300Y0014802D02*
Y0016086D01*
X0011500Y0014802D02*
Y0016048D01*
X0009900Y0014802D02*
Y0016597D01*
X0010100Y0014802D02*
Y0016397D01*
X0009500Y0014953D02*
Y0018079D01*
X0009700Y0014802D02*
Y0016853D01*
X0010500Y0014802D02*
Y0016173D01*
X0010700Y0014802D02*
Y0016173D01*
X0008726Y0015727D02*
X0009651Y0014802D01*
X0010300D02*
Y0016223D01*
X0009100Y0015353D02*
Y0017979D01*
X0009300Y0015153D02*
Y0017988D01*
X0007577Y0015102D02*
Y0029100D01*
X0007700Y0014979D02*
Y0026426D01*
X0007878Y0014800D02*
X0008447D01*
X0007679Y0015000D02*
X0008247D01*
X0008078Y0014600D02*
X0008647D01*
X0008500Y0014227D02*
Y0014747D01*
X0007577Y0015102D02*
X0008452Y0014227D01*
X0007998Y0015248D02*
X0009020Y0014227D01*
X0008700D02*
Y0014547D01*
X0008900Y0014227D02*
Y0014347D01*
X0008278Y0014400D02*
X0008847D01*
X0008452Y0014227D02*
X0009020D01*
X0008100Y0014579D02*
Y0015147D01*
X0008300Y0014379D02*
Y0014947D01*
X0007900Y0014779D02*
Y0015402D01*
X0007700Y0001542D02*
Y0013772D01*
X0008100Y0001463D02*
Y0013411D01*
X0007900Y0001543D02*
Y0013572D01*
X0015300Y0003003D02*
Y0012402D01*
X0015700Y0003003D02*
Y0012421D01*
X0015100Y0003003D02*
Y0012521D01*
X0015500Y0003003D02*
Y0012374D01*
X0015700Y0000414D02*
Y0002150D01*
X0015500Y0000414D02*
Y0002150D01*
X0015300Y0000414D02*
Y0002150D01*
X0012700Y0003003D02*
Y0013373D01*
X0013300Y0003003D02*
Y0013373D01*
X0012100Y0003003D02*
Y0013373D01*
X0012500Y0003003D02*
Y0013373D01*
X0014100Y0003003D02*
Y0013373D01*
X0014900Y0003003D02*
Y0013373D01*
X0013700Y0003003D02*
Y0013373D01*
X0013900Y0003003D02*
Y0013373D01*
X0014300Y0000413D02*
Y0002150D01*
X0014100Y0000413D02*
Y0002150D01*
X0013900Y0000413D02*
Y0002150D01*
X0013700Y0000413D02*
Y0002150D01*
X0015100Y0000414D02*
Y0002150D01*
X0014900Y0000413D02*
Y0002150D01*
X0014700Y0000413D02*
Y0002150D01*
X0014500Y0000413D02*
Y0002150D01*
X0012700Y0000412D02*
Y0002150D01*
X0012500Y0000412D02*
Y0002150D01*
X0012300Y0000412D02*
Y0002150D01*
X0012100Y0000412D02*
Y0002150D01*
X0013500Y0000413D02*
Y0002150D01*
X0013300Y0000412D02*
Y0002150D01*
X0013100Y0000412D02*
Y0002150D01*
X0012900Y0000412D02*
Y0002150D01*
X0011900Y0003003D02*
Y0013373D01*
X0011700Y0002996D02*
Y0013373D01*
X0008275D02*
X0015154D01*
X0011900Y0000412D02*
Y0001966D01*
X0011700Y0000411D02*
Y0001737D01*
X0011500Y0002901D02*
Y0013373D01*
X0011300Y0002742D02*
Y0013373D01*
X0011100Y0002663D02*
Y0013373D01*
X0008300Y0001234D02*
Y0013373D01*
X0011346Y0002749D02*
X0011475Y0002878D01*
X0011500Y0000411D02*
Y0001657D01*
X0010900Y0002432D02*
Y0013373D01*
X0011300Y0000411D02*
Y0001657D01*
X0010300Y0000411D02*
Y0013373D01*
X0010100Y0000410D02*
Y0013373D01*
X0009900Y0000410D02*
Y0013373D01*
X0009700Y0000410D02*
Y0013373D01*
X0011100Y0000411D02*
Y0001737D01*
X0010900Y0000411D02*
Y0001968D01*
X0010700Y0000411D02*
Y0013373D01*
X0010500Y0000411D02*
Y0013373D01*
X0009500Y0000410D02*
Y0013373D01*
X0009300Y0000410D02*
Y0013373D01*
X0009100Y0000410D02*
Y0013373D01*
X0008900Y0000410D02*
Y0013373D01*
X0008700Y0000410D02*
Y0013373D01*
X0008500Y0000410D02*
Y0013373D01*
X0008300Y0000409D02*
Y0000766D01*
X0008100Y0000409D02*
Y0000537D01*
X0007577Y0028400D02*
X0007948D01*
X0007577Y0028800D02*
X0007948D01*
X0007577Y0028200D02*
X0007948D01*
X0007577Y0029100D02*
X0007948D01*
X0007577Y0029000D02*
X0007948D01*
X0007577Y0026600D02*
X0007673D01*
X0007577Y0026200D02*
X0007871D01*
X0007577Y0028000D02*
X0007948D01*
X0007577Y0027800D02*
X0007770D01*
X0006352Y0029400D02*
X0006550D01*
X0006282Y0029668D02*
X0006723Y0029227D01*
X0007577Y0027000D02*
X0007673D01*
X0007577Y0026800D02*
X0007673D01*
X0006314Y0029200D02*
X0006723D01*
X0006180Y0029000D02*
X0006723D01*
X0007577Y0025600D02*
X0008398D01*
X0007577Y0025400D02*
X0008398D01*
X0007577Y0026000D02*
X0008071D01*
X0007577Y0025800D02*
X0008271D01*
X0007577Y0024800D02*
X0008398D01*
X0007577Y0024600D02*
X0008398D01*
X0007577Y0025200D02*
X0008398D01*
X0007577Y0025000D02*
X0008398D01*
X0006700Y0021063D02*
Y0029250D01*
X0006723Y0021047D02*
Y0029227D01*
X0006500Y0021143D02*
Y0029450D01*
X0006300Y0021142D02*
Y0029166D01*
X0006100Y0021063D02*
Y0028937D01*
X0005900Y0021027D02*
Y0028857D01*
X0000429Y0023000D02*
X0006723D01*
X0003080Y0022200D02*
X0006723D01*
X0000429Y0026800D02*
X0006723D01*
X0000429Y0026600D02*
X0006723D01*
X0000429Y0027200D02*
X0006723D01*
X0000429Y0027000D02*
X0006723D01*
X0000429Y0026000D02*
X0006723D01*
X0000429Y0025800D02*
X0006723D01*
X0000429Y0026400D02*
X0006723D01*
X0000429Y0026200D02*
X0006723D01*
X0000429Y0028400D02*
X0006723D01*
X0000429Y0028200D02*
X0006723D01*
X0000429Y0028800D02*
X0006723D01*
X0000429Y0028600D02*
X0006723D01*
X0000429Y0027600D02*
X0006723D01*
X0000429Y0027400D02*
X0006723D01*
X0000429Y0028000D02*
X0006723D01*
X0000429Y0027800D02*
X0006723D01*
X0000429Y0023600D02*
X0006723D01*
X0000429Y0023400D02*
X0006723D01*
X0000429Y0024000D02*
X0006723D01*
X0000429Y0023800D02*
X0006723D01*
X0000429Y0022600D02*
X0006723D01*
X0000429Y0022400D02*
X0006723D01*
X0000429Y0023200D02*
X0006723D01*
X0000429Y0022800D02*
X0006723D01*
X0000429Y0025200D02*
X0006723D01*
X0000429Y0025000D02*
X0006723D01*
X0000429Y0025600D02*
X0006723D01*
X0000429Y0025400D02*
X0006723D01*
X0000429Y0024400D02*
X0006723D01*
X0000429Y0024200D02*
X0006723D01*
X0000429Y0024800D02*
X0006723D01*
X0000429Y0024600D02*
X0006723D01*
Y0017074D02*
Y0018946D01*
X0006627Y0016400D02*
X0006723D01*
X0006532Y0018800D02*
X0006723D01*
X0006433Y0017400D02*
X0006723D01*
X0007577Y0015600D02*
X0007873D01*
X0007577Y0015400D02*
X0007900D01*
X0007577Y0016000D02*
X0007873D01*
X0007577Y0015800D02*
X0007873D01*
X0006500Y0017363D02*
Y0018786D01*
X0006700Y0017134D02*
Y0018920D01*
X0006300Y0017443D02*
Y0018748D01*
X0006100Y0017442D02*
Y0018786D01*
X0006627Y0015800D02*
X0006723D01*
X0006627Y0015600D02*
X0006723D01*
X0006627Y0016200D02*
X0006723D01*
X0006627Y0016000D02*
X0006723D01*
X0007577Y0015200D02*
X0008047D01*
X0006848Y0014623D02*
X0007973Y0013498D01*
X0006627Y0014400D02*
X0007072D01*
X0006627Y0014200D02*
X0007272D01*
X0006627Y0013600D02*
X0007872D01*
X0006627Y0013400D02*
X0008127D01*
X0006627Y0014000D02*
X0007472D01*
X0006627Y0013800D02*
X0007672D01*
X0006627Y0015400D02*
X0006723D01*
Y0014925D02*
Y0016726D01*
X0006627Y0015200D02*
X0006723D01*
X0006627Y0015000D02*
X0006723D01*
X0006627Y0014800D02*
X0006742D01*
X0006627Y0014600D02*
X0006872D01*
X0003214Y0022000D02*
X0006723D01*
X0003252Y0021800D02*
X0006723D01*
X0003214Y0021600D02*
X0006723D01*
X0003080Y0021400D02*
X0006723D01*
X0002703Y0021200D02*
X0006723D01*
X0003463Y0018000D02*
X0006723D01*
X0003100Y0021027D02*
X0006050D01*
X0003077Y0018873D02*
X0005950D01*
X0003003Y0018800D02*
X0006068D01*
X0002803Y0018600D02*
X0006723D01*
X0003543Y0017800D02*
X0006723D01*
X0003542Y0017600D02*
X0006723D01*
X0002777Y0018400D02*
X0006723D01*
X0003233Y0018200D02*
X0006723D01*
X0005900Y0017363D02*
Y0018873D01*
X0003463Y0017400D02*
X0005967D01*
X0003427Y0016400D02*
X0005773D01*
X0003427Y0015400D02*
X0005773D01*
X0003427Y0015200D02*
X0005773D01*
X0003427Y0015800D02*
X0005773D01*
X0003427Y0015600D02*
X0005773D01*
X0003427Y0014400D02*
X0005773D01*
X0003427Y0014200D02*
X0005773D01*
X0003427Y0015000D02*
X0005773D01*
X0003427Y0014600D02*
X0005773D01*
X0003427Y0013600D02*
X0005773D01*
X0003427Y0013400D02*
X0005773D01*
X0003427Y0014000D02*
X0005773D01*
X0003427Y0013800D02*
X0005773D01*
X0004800Y0031150D02*
X0005373Y0030577D01*
X0004700Y0021027D02*
Y0031150D01*
X0004500Y0021027D02*
Y0031150D01*
X0004100Y0021027D02*
Y0031150D01*
X0004300Y0021027D02*
Y0031150D01*
X0005500Y0021027D02*
Y0028937D01*
X0005700Y0021027D02*
Y0028858D01*
X0005373Y0029750D02*
Y0030577D01*
X0005300Y0029632D02*
Y0030650D01*
X0003100Y0022180D02*
Y0031150D01*
X0003900Y0021027D02*
Y0031150D01*
X0002900Y0022314D02*
Y0031150D01*
X0002300Y0022180D02*
Y0031150D01*
X0002700Y0022352D02*
Y0031150D01*
X0002500Y0022314D02*
Y0031150D01*
X0003700Y0021027D02*
Y0031150D01*
X0004900Y0021027D02*
Y0031050D01*
X0003300Y0021027D02*
Y0031150D01*
X0003500Y0021027D02*
Y0031150D01*
X0005100Y0021027D02*
Y0030850D01*
X0005300Y0021027D02*
Y0029168D01*
X0003100Y0021027D02*
Y0021420D01*
X0002900Y0020977D02*
Y0021286D01*
X0002503Y0021000D02*
X0002951D01*
X0002700Y0020803D02*
Y0021196D01*
X0002303Y0020800D02*
X0002696D01*
X0002500Y0020603D02*
Y0020996D01*
X0002103Y0020600D02*
X0002496D01*
X0002300Y0020403D02*
Y0020796D01*
X0000429Y0030200D02*
X0005373D01*
X0000429Y0030000D02*
X0005373D01*
X0000429Y0030600D02*
X0005350D01*
X0000429Y0030400D02*
X0005373D01*
X0000429Y0029200D02*
X0005286D01*
X0000429Y0029000D02*
X0005420D01*
X0000429Y0029800D02*
X0005373D01*
X0000429Y0029600D02*
X0005286D01*
X0000429Y0031150D02*
X0004800D01*
X0002100Y0021803D02*
Y0031150D01*
X0000429Y0031000D02*
X0004950D01*
X0000429Y0030800D02*
X0005150D01*
X0000429Y0022000D02*
X0002186D01*
X0000429Y0021800D02*
X0002096D01*
X0000429Y0029400D02*
X0005248D01*
X0000429Y0022200D02*
X0002320D01*
X0001900Y0021603D02*
Y0031150D01*
X0001700Y0021403D02*
Y0031150D01*
X0001500Y0021203D02*
Y0031150D01*
X0000823Y0020527D02*
X0002151Y0021854D01*
X0001552Y0020048D02*
X0002754Y0021251D01*
X0001552Y0019655D02*
X0002798Y0020902D01*
X0000429Y0021600D02*
X0001896D01*
X0000429Y0021400D02*
X0001696D01*
X0001300Y0021003D02*
Y0031150D01*
X0001100Y0020803D02*
Y0031150D01*
X0000900Y0020603D02*
Y0031150D01*
X0000700Y0020258D02*
Y0031150D01*
X0000429Y0020800D02*
X0001096D01*
X0000429Y0020600D02*
X0000896D01*
X0000429Y0021200D02*
X0001496D01*
X0000429Y0021000D02*
X0001296D01*
X0001903Y0020400D02*
X0002296D01*
X0002100Y0020203D02*
Y0020596D01*
X0001703Y0020200D02*
X0002096D01*
X0001900Y0020003D02*
Y0020396D01*
X0001700Y0019803D02*
Y0020196D01*
X0002777Y0018573D02*
X0003077Y0018873D01*
X0001552Y0020000D02*
X0001896D01*
X0001552Y0019800D02*
X0001696D01*
X0001552Y0019655D02*
Y0020048D01*
X0000429Y0020000D02*
X0000698D01*
X0000429Y0018800D02*
X0000698D01*
X0000429Y0018600D02*
X0000698D01*
X0000429Y0019400D02*
X0000698D01*
X0000429Y0019200D02*
X0000698D01*
X0003427Y0017200D02*
X0005737D01*
X0005700Y0017132D02*
Y0018873D01*
X0003427Y0016800D02*
X0005658D01*
X0003427Y0016600D02*
X0005737D01*
X0003427Y0014800D02*
X0005773D01*
X0003427Y0013200D02*
X0005773D01*
X0003427Y0016200D02*
X0005773D01*
X0003427Y0016000D02*
X0005773D01*
X0003300Y0018163D02*
Y0018873D01*
X0003500Y0017934D02*
Y0018873D01*
X0003100Y0018243D02*
Y0018873D01*
X0002900Y0018242D02*
Y0018696D01*
X0003427Y0017000D02*
X0005657D01*
X0002777Y0018204D02*
Y0018573D01*
X0000429Y0019800D02*
X0000698D01*
X0000429Y0019600D02*
X0000698D01*
X0000429Y0020400D02*
X0000736D01*
X0000429Y0020200D02*
X0000698D01*
X0000429Y0018200D02*
X0000698D01*
X0000429Y0018000D02*
X0000698D01*
X0000429Y0019000D02*
X0000698D01*
X0000429Y0018400D02*
X0000698D01*
X0000429Y0017400D02*
X0000698D01*
X0000429Y0017200D02*
X0000698D01*
X0000429Y0017800D02*
X0000698D01*
X0000429Y0017600D02*
X0000698D01*
X0000429Y0016600D02*
X0000698D01*
X0000429Y0016400D02*
X0000698D01*
X0000429Y0017000D02*
X0000698D01*
X0000429Y0016800D02*
X0000698D01*
X0000429Y0014200D02*
X0000698D01*
X0000429Y0014000D02*
X0000698D01*
X0000429Y0014600D02*
X0000698D01*
X0000429Y0014400D02*
X0000698D01*
X0000429Y0013400D02*
X0000698D01*
X0000429Y0013200D02*
X0000698D01*
X0000429Y0013800D02*
X0000698D01*
X0000429Y0013600D02*
X0000698D01*
X0000429Y0015800D02*
X0000698D01*
X0000429Y0015600D02*
X0000698D01*
X0000429Y0016200D02*
X0000698D01*
X0000429Y0016000D02*
X0000698D01*
X0000429Y0015000D02*
X0000698D01*
X0000429Y0014800D02*
X0000698D01*
X0000429Y0015400D02*
X0000698D01*
X0000429Y0015200D02*
X0000698D01*
X0006627Y0011600D02*
X0021700D01*
X0006627Y0011800D02*
X0021700D01*
X0006627Y0011400D02*
X0021700D01*
X0006627Y0012200D02*
X0021700D01*
X0006627Y0012000D02*
X0021700D01*
X0006627Y0010200D02*
X0021700D01*
X0006627Y0010000D02*
X0021700D01*
X0006627Y0011200D02*
X0021700D01*
X0006627Y0010400D02*
X0021700D01*
X0006627Y0012800D02*
X0014938D01*
X0006627Y0012600D02*
X0015029D01*
X0006627Y0013200D02*
X0014997D01*
X0006627Y0013000D02*
X0014929D01*
X0006627Y0010800D02*
X0021700D01*
X0006627Y0010600D02*
X0021700D01*
X0006627Y0012400D02*
X0015306D01*
X0006627Y0011000D02*
X0021700D01*
X0006627Y0009400D02*
X0021700D01*
X0006627Y0009200D02*
X0020667D01*
X0006627Y0009800D02*
X0021700D01*
X0006627Y0009600D02*
X0021700D01*
X0006627Y0007400D02*
X0020320D01*
X0006627Y0006800D02*
X0020486D01*
X0006627Y0008200D02*
X0020320D01*
X0006627Y0007600D02*
X0020186D01*
X0006900Y0001427D02*
Y0014572D01*
X0007100Y0001427D02*
Y0014372D01*
X0006627Y0001577D02*
Y0016550D01*
X0006700Y0001504D02*
Y0016666D01*
X0007500Y0001463D02*
Y0013972D01*
X0007300Y0001427D02*
Y0014172D01*
X0006627Y0008000D02*
X0020186D01*
X0006627Y0007800D02*
X0020148D01*
X0003427Y0012400D02*
X0005773D01*
X0003427Y0012200D02*
X0005773D01*
X0003427Y0012800D02*
X0005773D01*
X0003427Y0012600D02*
X0005773D01*
X0006627Y0009000D02*
X0020437D01*
X0006627Y0008800D02*
X0020358D01*
X0003427Y0012000D02*
X0005773D01*
X0003427Y0011600D02*
X0005773D01*
X0003427Y0010400D02*
X0005773D01*
X0003427Y0009400D02*
X0005773D01*
X0003427Y0013000D02*
X0005773D01*
X0003427Y0010800D02*
X0005773D01*
X0003427Y0008800D02*
X0005773D01*
X0003427Y0008600D02*
X0005773D01*
X0003427Y0009200D02*
X0005773D01*
X0003427Y0009000D02*
X0005773D01*
X0006627Y0008600D02*
X0020358D01*
X0006627Y0008400D02*
X0020437D01*
X0003427D02*
X0005773D01*
X0003427Y0008000D02*
X0005773D01*
X0006627Y0007000D02*
X0020448D01*
X0006627Y0006600D02*
X0020620D01*
X0003427Y0007800D02*
X0005773D01*
X0006627Y0007200D02*
X0020486D01*
X0003427Y0008200D02*
X0005773D01*
Y0001400D02*
Y0016550D01*
X0003427Y0007600D02*
X0005773D01*
X0003427Y0007400D02*
X0005773D01*
X0003427Y0006800D02*
X0005773D01*
X0003427Y0006600D02*
X0005773D01*
X0003427Y0007200D02*
X0005773D01*
X0003427Y0007000D02*
X0005773D01*
X0006627Y0004400D02*
X0021700D01*
X0006627Y0004200D02*
X0021700D01*
X0006627Y0004800D02*
X0021700D01*
X0006627Y0004600D02*
X0021700D01*
X0006627Y0003600D02*
X0021700D01*
X0006627Y0003400D02*
X0021700D01*
X0006627Y0004000D02*
X0021700D01*
X0006627Y0003800D02*
X0021700D01*
X0006627Y0006000D02*
X0021700D01*
X0006627Y0005800D02*
X0021700D01*
X0006627Y0006400D02*
X0021052D01*
X0006627Y0006200D02*
X0021700D01*
X0006627Y0005200D02*
X0021700D01*
X0006627Y0005000D02*
X0021700D01*
X0006627Y0005600D02*
X0021700D01*
X0006627Y0005400D02*
X0021700D01*
X0006627Y0002800D02*
X0011397D01*
X0006627Y0002600D02*
X0011020D01*
X0006627Y0003200D02*
X0021700D01*
X0006627Y0003000D02*
X0011723D01*
X0006627Y0001800D02*
X0011020D01*
X0006627Y0002400D02*
X0010886D01*
X0006627Y0002200D02*
X0010848D01*
X0007300Y0000409D02*
Y0000573D01*
X0006627Y0001577D02*
X0006777Y0001427D01*
X0007450D01*
X0007500Y0000409D02*
Y0000537D01*
X0007100Y0000409D02*
Y0000573D01*
X0006900Y0000409D02*
Y0000573D01*
X0006700Y0000408D02*
Y0000573D01*
X0003427Y0005800D02*
X0005773D01*
X0003427Y0005600D02*
X0005773D01*
X0003427Y0006400D02*
X0005773D01*
X0003427Y0006200D02*
X0005773D01*
X0006627Y0002000D02*
X0010886D01*
X0006627Y0001600D02*
X0019397D01*
X0003427Y0005400D02*
X0005773D01*
X0003427Y0005200D02*
X0005773D01*
X0003427Y0004800D02*
X0005773D01*
X0003427Y0004600D02*
X0005773D01*
X0003427Y0006000D02*
X0005773D01*
X0003427Y0005000D02*
X0005773D01*
X0003427Y0002200D02*
X0005773D01*
X0003427Y0002000D02*
X0005773D01*
X0003427Y0003000D02*
X0005773D01*
X0003427Y0002800D02*
X0005773D01*
X0006300Y0000408D02*
Y0000697D01*
X0005898Y0001098D02*
X0006298Y0000698D01*
X0006600Y0000573D02*
X0007450D01*
X0006500Y0000408D02*
Y0000585D01*
X0003380Y0000600D02*
X0006452D01*
X0000429Y0000405D02*
X0021700Y0000418D01*
X0003427Y0001600D02*
X0005773D01*
X0003514Y0001200D02*
X0005823D01*
X0006100Y0000408D02*
Y0000897D01*
X0005900Y0000408D02*
Y0001097D01*
X0003552Y0001000D02*
X0005997D01*
X0003514Y0000800D02*
X0006197D01*
X0003427Y0011000D02*
X0005773D01*
X0003427Y0011200D02*
X0005773D01*
X0003427Y0010600D02*
X0005773D01*
X0003427Y0011800D02*
X0005773D01*
X0003427Y0011400D02*
X0005773D01*
X0003427Y0009800D02*
X0005773D01*
X0003427Y0009600D02*
X0005773D01*
X0003427Y0010200D02*
X0005773D01*
X0003427Y0010000D02*
X0005773D01*
X0000698Y0008467D02*
Y0020225D01*
X0000900Y0006103D02*
Y0007658D01*
X0000429Y0013000D02*
X0000698D01*
X0001189Y0007600D02*
X0001298D01*
Y0006502D02*
Y0007619D01*
X0000429Y0006600D02*
X0001298D01*
X0001100Y0006303D02*
Y0007601D01*
X0004900Y0000407D02*
Y0018873D01*
X0004700Y0000407D02*
Y0018873D01*
X0004500Y0000407D02*
Y0018873D01*
X0004300Y0000407D02*
Y0018873D01*
X0005700Y0000408D02*
Y0016668D01*
X0005500Y0000408D02*
Y0018873D01*
X0005300Y0000408D02*
Y0018873D01*
X0005100Y0000407D02*
Y0018873D01*
X0004100Y0000407D02*
Y0018873D01*
X0003900Y0000407D02*
Y0018873D01*
X0000500Y0005863D02*
Y0031150D01*
X0003700Y0000407D02*
Y0018873D01*
X0003427Y0001350D02*
Y0017350D01*
X0003500Y0001234D02*
Y0017466D01*
X0000746Y0005949D02*
X0001298Y0006502D01*
X0000700Y0005942D02*
Y0007831D01*
X0000429Y0010800D02*
X0000698D01*
X0000429Y0010600D02*
X0000698D01*
X0000429Y0011200D02*
X0000698D01*
X0000429Y0011000D02*
X0000698D01*
X0000429Y0010000D02*
X0000698D01*
X0000429Y0009800D02*
X0000698D01*
X0000429Y0010400D02*
X0000698D01*
X0000429Y0010200D02*
X0000698D01*
X0000429Y0012400D02*
X0000698D01*
X0000429Y0012200D02*
X0000698D01*
X0000429Y0012800D02*
X0000698D01*
X0000429Y0012600D02*
X0000698D01*
X0000429Y0011600D02*
X0000698D01*
X0000429Y0011400D02*
X0000698D01*
X0000429Y0012000D02*
X0000698D01*
X0000429Y0011800D02*
X0000698D01*
X0000429Y0007800D02*
X0000724D01*
X0000429Y0007600D02*
X0001111D01*
X0000429Y0009000D02*
X0000698D01*
X0000429Y0008600D02*
X0000698D01*
X0000429Y0007000D02*
X0001298D01*
X0000429Y0006800D02*
X0001298D01*
X0000429Y0007400D02*
X0001298D01*
X0000429Y0007200D02*
X0001298D01*
X0000429Y0009400D02*
X0000698D01*
X0000429Y0009200D02*
X0000698D01*
X0000429Y0009600D02*
X0000698D01*
X0000429Y0005808D02*
Y0031150D01*
Y0008200D02*
X0000601D01*
X0000429Y0008000D02*
X0000619D01*
X0000429Y0008800D02*
X0000698D01*
X0000429Y0008400D02*
X0000658D01*
X0003427Y0004000D02*
X0005773D01*
X0003427Y0003800D02*
X0005773D01*
X0003427Y0004400D02*
X0005773D01*
X0003427Y0004200D02*
X0005773D01*
X0003427Y0002600D02*
X0005773D01*
X0003427Y0002400D02*
X0005773D01*
X0003427Y0003600D02*
X0005773D01*
X0003427Y0003400D02*
X0005773D01*
X0002478Y0005600D02*
X0002573D01*
X0002278Y0005400D02*
X0002573D01*
X0002078Y0005200D02*
X0002573D01*
X0001878Y0005000D02*
X0002573D01*
X0001678Y0004800D02*
X0002573D01*
X0003427Y0003200D02*
X0005773D01*
X0001478Y0004600D02*
X0002573D01*
X0001278Y0004400D02*
X0002573D01*
X0003427Y0001800D02*
X0005773D01*
X0003427Y0001400D02*
X0005773D01*
X0002573Y0001350D02*
Y0005695D01*
X0003500Y0000406D02*
Y0000766D01*
X0003300Y0000406D02*
Y0000537D01*
X0002700Y0000406D02*
Y0000537D01*
X0002500Y0001232D02*
Y0005621D01*
X0002300Y0000406D02*
Y0005421D01*
X0002100Y0000406D02*
Y0005221D01*
X0001900Y0000406D02*
Y0005021D01*
X0002500Y0000406D02*
Y0000768D01*
X0001700Y0000405D02*
Y0004821D01*
X0001500Y0000405D02*
Y0004621D01*
X0001300Y0000405D02*
Y0004421D01*
X0001127Y0004000D02*
X0002573D01*
X0001127Y0003800D02*
X0002573D01*
X0001127Y0004248D02*
X0002573Y0005695D01*
X0001127Y0004200D02*
X0002573D01*
X0001127Y0002600D02*
X0002573D01*
X0001127Y0002400D02*
X0002573D01*
X0001127Y0003600D02*
X0002573D01*
X0001127Y0003400D02*
X0002573D01*
X0000429Y0006000D02*
X0000797D01*
X0000429Y0006400D02*
X0001197D01*
X0000429Y0006200D02*
X0000997D01*
X0001127Y0002800D02*
X0002573D01*
X0001127Y0002200D02*
X0002573D01*
X0001127Y0003200D02*
X0002573D01*
X0001127Y0003000D02*
X0002573D01*
X0001127Y0001600D02*
X0002573D01*
X0001163Y0001400D02*
X0002573D01*
X0001127Y0002000D02*
X0002573D01*
X0001127Y0001800D02*
X0002573D01*
X0001242Y0001200D02*
X0002486D01*
X0001242Y0001000D02*
X0002448D01*
X0001163Y0000800D02*
X0002486D01*
X0000933Y0000600D02*
X0002620D01*
X0001127Y0001450D02*
Y0004248D01*
X0001100Y0000405D02*
Y0000720D01*
X0000900Y0000405D02*
Y0000586D01*
X0000700Y0000405D02*
Y0000548D01*
X0000500Y0000405D02*
Y0000586D01*
X0000429Y0000405D02*
Y0000620D01*
D38*
X0010950Y0028950D02*
X0012725D01*
X0011500Y0028200D02*
X0014100D01*
X0020875Y0024275D02*
Y0025250D01*
Y0024275D02*
X0021425Y0023725D01*
X0022000D01*
X0024750Y0010800D02*
X0029625D01*
X0029275Y0025375D02*
Y0030925D01*
X0027700Y0032500D02*
X0029275Y0030925D01*
X0023775Y0032500D02*
X0027700D01*
X0026450Y0030300D02*
X0027375Y0029375D01*
X0022975Y0030300D02*
X0026450D01*
X0022475Y0030800D02*
X0022975Y0030300D01*
X0019425Y0032325D02*
X0019800Y0032700D01*
X0019425Y0031650D02*
Y0032325D01*
X0022475Y0030800D02*
Y0031575D01*
X0027375Y0020625D02*
Y0029375D01*
X0028300Y0019700D02*
X0029450D01*
X0027375Y0020625D02*
X0028300Y0019700D01*
X0025750Y0029725D02*
X0026725Y0028750D01*
X0022650Y0029725D02*
X0025750D01*
X0026725Y0020175D02*
Y0028750D01*
X0031477Y0018600D02*
X0031500Y0018623D01*
X0028300Y0018600D02*
X0031477D01*
X0026725Y0020175D02*
X0028300Y0018600D01*
X0026225Y0017525D02*
Y0028300D01*
X0025450Y0029075D02*
X0026225Y0028300D01*
X0023800Y0029075D02*
X0025450D01*
X0009475Y0014375D02*
X0023027D01*
X0008275Y0013800D02*
X0024575D01*
X0015525Y0012975D02*
X0024025D01*
X0024475Y0016950D02*
X0025500Y0015925D01*
X0024475Y0016950D02*
Y0018075D01*
X0007150Y0014925D02*
X0008275Y0013800D01*
X0025500Y0015925D02*
X0033550D01*
X0034075Y0015400D01*
X0023875Y0017300D02*
Y0018625D01*
X0023425Y0018400D02*
Y0019175D01*
X0022950Y0017925D02*
X0023425Y0018400D01*
X0022300Y0015725D02*
X0023875Y0017300D01*
X0025025Y0017175D02*
Y0018700D01*
Y0017175D02*
X0025675Y0016525D01*
X0023875Y0018625D02*
X0025050Y0019800D01*
X0026225Y0017525D02*
X0026650Y0017100D01*
X0020216Y0017200D02*
X0022725D01*
X0023850Y0020575D02*
Y0024050D01*
X0022850Y0019575D02*
X0023850Y0020575D01*
X0023425Y0019175D02*
X0023650Y0019400D01*
X0026650Y0017100D02*
X0035625D01*
X0020400Y0017925D02*
X0022950D01*
X0019023Y0002577D02*
X0020500Y0001100D01*
X0021000Y0007000D02*
Y0007000D01*
Y0007000D02*
X0021200Y0006800D01*
X0035775Y0017825D02*
X0037200Y0016400D01*
X0036475Y0014650D02*
Y0016250D01*
X0035625Y0017100D02*
X0036475Y0016250D01*
X0035825Y0012700D02*
Y0015950D01*
X0035250Y0016525D02*
X0035825Y0015950D01*
X0025675Y0016525D02*
X0035250D01*
X0035825Y0012700D02*
X0037675Y0010850D01*
X0032298Y0017825D02*
X0035775D01*
X0022550Y0025150D02*
X0022750D01*
X0022850Y0019158D02*
Y0019575D01*
X0023675Y0019400D02*
X0024450Y0020175D01*
X0023650Y0019400D02*
X0023675D01*
X0024450Y0020175D02*
Y0024575D01*
X0025000Y0018725D02*
X0025025Y0018700D01*
X0024450Y0018100D02*
X0024475Y0018075D01*
X0024025Y0026275D02*
X0025050Y0025250D01*
Y0019800D02*
Y0025250D01*
X0019783Y0017633D02*
X0020216Y0017200D01*
X0001125Y0020225D02*
X0002700Y0021800D01*
X0002700D01*
X0001125Y0008150D02*
Y0020225D01*
X0003100Y0020600D02*
X0006400D01*
X0001725Y0019225D02*
X0003100Y0020600D01*
X0002900Y0019300D02*
X0006300D01*
X0002350Y0018750D02*
X0002900Y0019300D01*
X0002350Y0006075D02*
Y0018750D01*
X0000700Y0004425D02*
X0002350Y0006075D01*
X0000700Y0001100D02*
Y0004425D01*
X0001725Y0006325D02*
Y0019225D01*
X0000800Y0005400D02*
X0001725Y0006325D01*
X0033225Y0018450D02*
X0037900D01*
X0038525Y0016475D02*
X0038950Y0016050D01*
X0037950Y0016475D02*
X0038525D01*
X0038950Y0004875D02*
Y0016050D01*
X0038675Y0004600D02*
X0038950Y0004875D01*
X0038450Y0005600D02*
Y0015425D01*
X0037850Y0016575D02*
X0037950Y0016475D01*
X0038700Y0021150D02*
X0038702Y0021152D01*
X0038300Y0004600D02*
X0038675D01*
X0037450Y0004600D02*
X0038450Y0005600D01*
X0037700Y0014425D02*
Y0014450D01*
X0037225Y0014925D02*
X0037700Y0014450D01*
X0038200Y0015675D02*
X0038450Y0015425D01*
X0037800Y0015675D02*
X0038200D01*
X0037200Y0014925D02*
Y0016400D01*
X0030025Y0021150D02*
X0038700D01*
X0029275Y0021900D02*
X0030025Y0021150D01*
X0036475Y0014650D02*
X0037675Y0013450D01*
X0037200Y0014925D02*
X0037225D01*
X0031500Y0018623D02*
X0032298Y0017825D01*
X0022300Y0015700D02*
Y0015725D01*
X0023227Y0014575D02*
X0026375D01*
X0023027Y0014375D02*
X0023227Y0014575D01*
X0026375D02*
X0026600Y0014350D01*
X0019775Y0017625D02*
Y0019900D01*
X0016300Y0017100D02*
Y0020925D01*
X0018100Y0019400D02*
Y0021500D01*
X0017300Y0018600D02*
X0018100Y0019400D01*
X0017300Y0017000D02*
Y0018600D01*
X0016300Y0020925D02*
X0016325D01*
X0017225Y0019425D02*
Y0023100D01*
X0019500Y0021975D02*
Y0023176D01*
X0020500Y0022925D02*
X0022700D01*
X0019500Y0023925D02*
X0020500Y0022925D01*
X0017800Y0021800D02*
Y0025900D01*
X0016900Y0016075D02*
X0018475D01*
X0016300Y0016675D02*
X0016900Y0016075D01*
X0016300Y0016675D02*
Y0017100D01*
X0011100Y0027800D02*
X0011500Y0028200D01*
X0011100Y0027000D02*
Y0027800D01*
X0014100Y0028200D02*
X0015300Y0029400D01*
X0014125Y0033425D02*
X0015000Y0034300D01*
X0010700Y0033425D02*
X0014125D01*
X0010126Y0028126D02*
X0010950Y0028950D01*
X0013900Y0026500D02*
Y0027500D01*
X0013500Y0026100D02*
X0013900Y0026500D01*
X0009975Y0026100D02*
X0013500D01*
X0025025Y0028350D02*
X0025225Y0028150D01*
X0025000Y0018725D02*
X0025650Y0019375D01*
X0025225Y0028150D02*
X0025650Y0027725D01*
Y0019375D02*
Y0027725D01*
X0029275Y0021900D02*
Y0025375D01*
X0022250Y0028350D02*
X0025025D01*
X0020800Y0029800D02*
X0022250Y0028350D01*
X0024925Y0012975D02*
X0024950D01*
X0024925D02*
X0025250Y0012650D01*
Y0012600D02*
Y0012650D01*
X0024025Y0012975D02*
X0024925D01*
X0024925Y0012975D01*
X0024575Y0013800D02*
X0025200D01*
X0026400Y0012600D01*
X0021000Y0008600D02*
X0028075D01*
X0025124Y0008075D02*
X0026000Y0007200D01*
X0022375Y0008075D02*
X0025124D01*
X0024800Y0007500D02*
X0025600Y0006700D01*
X0023700Y0007500D02*
X0024800D01*
X0024500Y0006800D02*
X0024700Y0006600D01*
X0021200Y0006800D02*
X0024500D01*
X0007150Y0014925D02*
Y0030625D01*
X0008300Y0015550D02*
X0009475Y0014375D01*
X0008300Y0015550D02*
Y0019524D01*
X0008825Y0020050D01*
Y0025849D01*
X0008100Y0026574D02*
X0008825Y0025849D01*
X0008100Y0026574D02*
Y0027529D01*
X0008375Y0027804D01*
Y0031750D01*
X0007675Y0032450D02*
X0008375Y0031750D01*
X0019500Y0023925D02*
Y0025200D01*
Y0020175D02*
Y0021975D01*
Y0020175D02*
X0019775Y0019900D01*
X0017800Y0021800D02*
X0018100Y0021500D01*
X0012900Y0016500D02*
X0014600D01*
X0006300Y0033100D02*
X0008800D01*
X0005800Y0032600D02*
X0006300Y0033100D01*
X0006200Y0001400D02*
Y0016900D01*
Y0001400D02*
X0006600Y0001000D01*
X0003000D02*
Y0017700D01*
X0018475Y0016075D02*
X0018500Y0016050D01*
X0022700Y0022925D02*
X0022750Y0022975D01*
X0017200Y0019400D02*
X0017225Y0019425D01*
X0025260Y0004070D02*
X0025300Y0004110D01*
Y0005500D01*
X0025600Y0005800D02*
Y0006700D01*
X0025300Y0005500D02*
X0025600Y0005800D01*
X0020700Y0007800D02*
X0022100D01*
X0006600Y0001000D02*
X0007800D01*
X0002000Y0036900D02*
X0005100D01*
X0005700Y0036300D01*
Y0034800D02*
Y0036300D01*
X0005800Y0029400D02*
Y0032600D01*
X0014600Y0016500D02*
X0014600Y0016500D01*
X0011400Y0002200D02*
X0011450Y0002150D01*
X0026575Y0014375D02*
X0026600Y0014350D01*
X0007150Y0030625D02*
X0007525Y0031000D01*
X0010100Y0017000D02*
X0010500Y0016600D01*
X0011500D01*
X0010100Y0017000D02*
Y0024500D01*
X0010750Y0021652D02*
X0011100Y0022001D01*
Y0024500D01*
X0011100Y0024500D01*
X0009175Y0018525D02*
X0009425Y0018775D01*
Y0025550D01*
X0011777Y0002577D02*
X0019023D01*
X0011400Y0002200D02*
X0011777Y0002577D01*
X0010126Y0028038D02*
Y0028126D01*
X0010100Y0028011D02*
X0010126Y0028038D01*
X0010100Y0027050D02*
Y0028011D01*
X0009425Y0025550D02*
X0009975Y0026100D01*
X0027800Y0001530D02*
X0029100Y0002830D01*
X0025100Y0009300D02*
X0028550D01*
X0029975Y0007875D01*
X0029100Y0002830D02*
Y0007575D01*
X0030014Y0005301D02*
X0030152D01*
X0029975Y0005340D02*
X0030014Y0005301D01*
X0029975Y0005340D02*
Y0007875D01*
X0032675Y0002825D02*
X0033400D01*
X0031875Y0003625D02*
X0032675Y0002825D01*
X0031875Y0003625D02*
Y0008550D01*
X0029625Y0010800D02*
X0031875Y0008550D01*
X0022100Y0007800D02*
X0022375Y0008075D01*
X0028075Y0008600D02*
X0029100Y0007575D01*
X0020900Y0008700D02*
X0021000Y0008600D01*
X0031875Y0008550D02*
X0037875D01*
X0023700Y0009200D02*
Y0010475D01*
X0024025Y0010800D01*
X0024750D01*
X0037900Y0018450D02*
X0037925Y0018425D01*
X0029275Y0025375D02*
X0029300Y0025400D01*
X0023200Y0025825D02*
X0024450Y0024575D01*
X0022750Y0025150D02*
X0023850Y0024050D01*
X0021100Y0032125D02*
X0021850Y0031375D01*
X0020500Y0032125D02*
X0021100D01*
X0019800Y0032700D02*
X0021350D01*
X0022475Y0031575D01*
X0021850Y0030525D02*
X0022650Y0029725D01*
X0021850Y0030525D02*
Y0031375D01*
X0020800Y0029800D02*
Y0031175D01*
X0018750Y0030750D02*
X0019176Y0030324D01*
X0018900Y0023776D02*
X0019500Y0023176D01*
X0018900Y0025574D02*
X0019176Y0025850D01*
Y0030324D01*
X0018900Y0023776D02*
Y0025574D01*
D40*
X0027600Y0031075D02*
X0028275Y0030400D01*
X0024025Y0031075D02*
X0027600D01*
X0028900Y0020400D02*
X0036650D01*
X0028275Y0021025D02*
X0028900Y0020400D01*
X0028275Y0021025D02*
Y0030400D01*
X0012400Y0034300D02*
Y0037800D01*
X0011700Y0038500D02*
X0012400Y0037800D01*
X0004600Y0038500D02*
X0011700D01*
X0003900Y0039200D02*
X0004600Y0038500D01*
X0015000Y0032200D02*
X0016200Y0033400D01*
X0021700D02*
X0024025Y0031075D01*
X0016200Y0033400D02*
X0021700D01*
D41*
X0030340Y0004070D02*
X0031302D01*
X0030340Y0003108D02*
Y0004070D01*
X0001360Y0032400D02*
X0002310D01*
X0001360D02*
Y0033350D01*
D43*
X0025260Y0004070D02*
D03*
X0030340D02*
D03*
X0025260Y0001530D02*
D03*
X0027800D02*
D03*
X0030340D02*
D03*
X0027800Y0004070D02*
D03*
D44*
X0003900Y0032400D02*
D03*
D45*
X0001360D02*
D03*
D46*
X0034100Y0010375D02*
D03*
X0032900D02*
D03*
X0031700D02*
D03*
X0023775Y0032500D02*
D03*
X0023650Y0017075D02*
D03*
X0022300Y0015700D02*
D03*
X0007800Y0001000D02*
D03*
X0015475Y0012925D02*
D03*
X0020900Y0008700D02*
D03*
X0024450Y0018100D02*
D03*
X0022850Y0019158D02*
D03*
X0025000Y0018725D02*
D03*
X0022725Y0017200D02*
D03*
X0023650Y0019400D02*
D03*
X0021000Y0007000D02*
D03*
X0020500Y0001100D02*
D03*
X0037675Y0010850D02*
D03*
X0034075Y0015425D02*
D03*
X0022450Y0002050D02*
D03*
X0037850Y0016575D02*
D03*
X0037925Y0018425D02*
D03*
X0033225Y0018450D02*
D03*
X0031500Y0018623D02*
D03*
X0028875Y0020500D02*
D03*
X0002700Y0021800D02*
D03*
X0038725Y0021175D02*
D03*
X0036650Y0020425D02*
D03*
X0029450Y0019700D02*
D03*
X0037875Y0008550D02*
D03*
X0037450Y0004600D02*
D03*
X0038300Y0004600D02*
D03*
X0037700Y0014425D02*
D03*
X0032500Y0018500D02*
D03*
X0037800Y0015675D02*
D03*
X0016325Y0020925D02*
D03*
X0017225Y0023100D02*
D03*
X0019500Y0021975D02*
D03*
X0020500Y0032125D02*
D03*
X0017200Y0019400D02*
D03*
X0018525Y0026400D02*
D03*
X0015900Y0016200D02*
D03*
X0014600Y0016500D02*
D03*
X0017300Y0017000D02*
D03*
X0016300Y0017100D02*
D03*
X0012725Y0028950D02*
D03*
X0015300Y0029400D02*
D03*
X0013900Y0027500D02*
D03*
X0015000Y0032200D02*
D03*
X0012400Y0034300D02*
D03*
X0020975Y0004200D02*
D03*
X0020225D02*
D03*
X0023025Y0004875D02*
D03*
X0026600Y0014350D02*
D03*
X0032100Y0025300D02*
D03*
X0035500Y0025350D02*
D03*
X0038700Y0022700D02*
D03*
X0037625Y0006475D02*
D03*
X0029300Y0025400D02*
D03*
X0024025Y0026275D02*
D03*
X0022750Y0022975D02*
D03*
X0024725Y0027400D02*
D03*
X0021450Y0020250D02*
D03*
X0023800Y0029075D02*
D03*
X0034625Y0003000D02*
D03*
X0025300Y0011600D02*
D03*
X0025250Y0012600D02*
D03*
X0024750Y0010800D02*
D03*
X0026400Y0012600D02*
D03*
X0026000Y0007200D02*
D03*
X0023700Y0009200D02*
D03*
X0024700Y0006600D02*
D03*
X0023700Y0007500D02*
D03*
X0023700Y0015650D02*
D03*
X0022577Y0012000D02*
D03*
X0028225Y0014850D02*
D03*
X0018900Y0019500D02*
D03*
X0014100Y0030100D02*
D03*
X0016100Y0031050D02*
D03*
X0015300Y0027875D02*
D03*
X0007900Y0034475D02*
D03*
X0007675Y0032450D02*
D03*
X0007525Y0031000D02*
D03*
X0037675Y0013450D02*
D03*
X0010700Y0033425D02*
D03*
X0020400Y0017925D02*
D03*
X0025100Y0009300D02*
D03*
X0003000Y0001000D02*
D03*
X0000800Y0005400D02*
D03*
X0001150Y0008150D02*
D03*
X0003000Y0017700D02*
D03*
X0002000Y0036900D02*
D03*
X0005700Y0034800D02*
D03*
X0003900Y0039200D02*
D03*
X0005800Y0029400D02*
D03*
X0008800Y0033100D02*
D03*
X0015000Y0034300D02*
D03*
X0008400Y0002000D02*
D03*
X0014200Y0021700D02*
D03*
X0006075Y0028150D02*
D03*
X0011500Y0016600D02*
D03*
X0000700Y0001100D02*
D03*
X0020700Y0007800D02*
D03*
X0011900Y0017600D02*
D03*
X0008725Y0026800D02*
D03*
X0002325Y0024800D02*
D03*
X0004546Y0009600D02*
D03*
X0004452Y0007000D02*
D03*
Y0011875D02*
D03*
X0012900Y0016500D02*
D03*
X0018500Y0016050D02*
D03*
X0002225Y0004825D02*
D03*
X0019450Y0004200D02*
D03*
X0015800Y0006000D02*
D03*
X0010300D02*
D03*
X0015800Y0011200D02*
D03*
X0010300Y0011200D02*
D03*
X0017675Y0003600D02*
D03*
X0015225Y0001600D02*
D03*
X0006375Y0021800D02*
D03*
X0006400Y0020600D02*
D03*
X0006300Y0019300D02*
D03*
X0006200Y0016900D02*
D03*
X0011400Y0002200D02*
D03*
X0007800Y0028650D02*
D03*
X0006025Y0025000D02*
D03*
X0010750Y0021652D02*
D03*
X0009175Y0018525D02*
D03*
X0007975Y0021850D02*
D03*
X0011100Y0024500D02*
D03*
X0010100D02*
D03*
X0011100Y0027000D02*
D03*
X0010100Y0027002D02*
D03*
X0009450Y0028800D02*
D03*
X0033400Y0002825D02*
D03*
X0030152Y0005301D02*
D03*
X0022000Y0023725D02*
D03*
X0020800Y0031175D02*
D03*
X0019425Y0031650D02*
D03*
X0018100Y0021500D02*
D03*
X0017800Y0025900D02*
D03*
X0018750Y0030750D02*
D03*
X0019500Y0025200D02*
D03*
X0022550Y0025150D02*
D03*
X0023200Y0025825D02*
D03*
X0020800Y0025250D02*
D03*
M02*
