M48
;Layer_Color=9474304
;FILE_FORMAT=4:3
METRIC
;TYPE=PLATED
T1F00S00C0.300
T2F00S00C0.900
%
T01
X0000700Y0001100
X0003000Y0001000
X0002225Y0004825
X0000800Y0005400
X0001150Y0008150
X0004452Y0007000
X0004546Y0009600
X0004452Y0011875
X0010300Y0011200
X0010300Y0006000
X0011400Y0002200
X0008400Y0002000
X0007800Y0001000
X0015225Y0001600
X0017675Y0003600
X0019450Y0004200
X0020225Y0004200
X0020975
X0021000Y0007000
X0020700Y0007800
X0020900Y0008700
X0015800Y0011200
X0015475Y0012925
X0015900Y0016200
X0016300Y0017100
X0017300Y0017000
X0018500Y0016050
X0020400Y0017925
X0018900Y0019500
X0017200Y0019400
X0016325Y0020925
X0018100Y0021500
X0019500Y0021975
Y0025200
X0020800Y0025250
X0018525Y0026400
X0017800Y0025900
X0017225Y0023100
X0014200Y0021700
X0010750Y0021652
X0007975Y0021850
X0006375Y0021800
X0006400Y0020600
X0006300Y0019300
X0006200Y0016900
X0003000Y0017700
X0002700Y0021800
X0002325Y0024800
X0006025Y0025000
X0006075Y0028150
X0005800Y0029400
X0007800Y0028650
X0009450Y0028800
X0010100Y0027002
X0011100Y0027000
Y0024500
X0010100
X0008725Y0026800
X0007525Y0031000
X0007675Y0032450
X0015000Y0032200
X0016100Y0031050
X0015300Y0029400
X0015300Y0027875
X0013900Y0027500
X0012725Y0028950
X0014100Y0030100
X0018750Y0030750
X0019425Y0031650
X0020500Y0032125
X0020800Y0031175
X0014600Y0016500
X0012900Y0016500
X0011500Y0016600
X0011900Y0017600
X0009175Y0018525
X0015800Y0006000
X0020500Y0001100
X0022450Y0002050
X0023025Y0004875
X0023700Y0007500
X0023700Y0009200
X0025100Y0009300
X0024750Y0010800
X0025300Y0011600
X0025250Y0012600
X0026400
X0026600Y0014350
X0028225Y0014850
X0023700Y0015650
X0022300Y0015700
X0022725Y0017200
X0023650Y0017075
X0024450Y0018100
X0025000Y0018725
X0023650Y0019400
X0022850Y0019158
X0021450Y0020250
X0022000Y0023725
X0022750Y0022975
X0022550Y0025150
X0023200Y0025825
X0024025Y0026275
X0024725Y0027400
X0023800Y0029075
X0023775Y0032500
X0029300Y0025400
X0032100Y0025300
X0035500Y0025350
X0038700Y0022700
X0038725Y0021175
X0036650Y0020425
X0037925Y0018425
X0037850Y0016575
X0037800Y0015675
X0037700Y0014425
X0037675Y0013450
Y0010850
X0037875Y0008550
X0037625Y0006475
X0037450Y0004600
X0038300Y0004600
X0034625Y0003000
X0033400Y0002825
X0030152Y0005301
X0026000Y0007200
X0024700Y0006600
X0022577Y0012000
X0031700Y0010375
X0032900
X0034100
X0034075Y0015425
X0033225Y0018450
X0032500Y0018500
X0031500Y0018623
X0029450Y0019700
X0028875Y0020500
X0015000Y0034300
X0012400
X0010700Y0033425
X0008800Y0033100
X0007900Y0034475
X0005700Y0034800
X0002000Y0036900
X0003900Y0039200
T02
X0001360Y0032400
X0003900
X0025260Y0004070
Y0001530
X0027800
X0030340
Y0004070
X0027800
M30
