%FSAX43Y43*%
%MOMM*%
G71*
G01*
G75*
G04 Layer_Color=8388736*
%ADD10C,0.203*%
%ADD11R,0.600X0.500*%
%ADD12R,1.270X0.914*%
%ADD13R,0.914X0.914*%
%ADD14R,0.650X1.100*%
%ADD15R,1.100X0.650*%
%ADD16R,0.500X0.600*%
%ADD17R,0.762X0.762*%
%ADD18R,0.762X0.762*%
%ADD19R,0.450X0.450*%
G04:AMPARAMS|DCode=20|XSize=5mm|YSize=5mm|CornerRadius=0.5mm|HoleSize=0mm|Usage=FLASHONLY|Rotation=90.000|XOffset=0mm|YOffset=0mm|HoleType=Round|Shape=RoundedRectangle|*
%AMROUNDEDRECTD20*
21,1,5.000,4.000,0,0,90.0*
21,1,4.000,5.000,0,0,90.0*
1,1,1.000,2.000,2.000*
1,1,1.000,2.000,-2.000*
1,1,1.000,-2.000,-2.000*
1,1,1.000,-2.000,2.000*
%
%ADD20ROUNDEDRECTD20*%
%ADD21O,1.050X0.250*%
%ADD22O,0.250X1.050*%
G04:AMPARAMS|DCode=23|XSize=0.25mm|YSize=0.7mm|CornerRadius=0.063mm|HoleSize=0mm|Usage=FLASHONLY|Rotation=90.000|XOffset=0mm|YOffset=0mm|HoleType=Round|Shape=RoundedRectangle|*
%AMROUNDEDRECTD23*
21,1,0.250,0.575,0,0,90.0*
21,1,0.125,0.700,0,0,90.0*
1,1,0.125,0.287,0.063*
1,1,0.125,0.287,-0.063*
1,1,0.125,-0.287,-0.063*
1,1,0.125,-0.287,0.063*
%
%ADD23ROUNDEDRECTD23*%
G04:AMPARAMS|DCode=24|XSize=0.25mm|YSize=0.7mm|CornerRadius=0.063mm|HoleSize=0mm|Usage=FLASHONLY|Rotation=0.000|XOffset=0mm|YOffset=0mm|HoleType=Round|Shape=RoundedRectangle|*
%AMROUNDEDRECTD24*
21,1,0.250,0.575,0,0,0.0*
21,1,0.125,0.700,0,0,0.0*
1,1,0.125,0.063,-0.287*
1,1,0.125,-0.063,-0.287*
1,1,0.125,-0.063,0.287*
1,1,0.125,0.063,0.287*
%
%ADD24ROUNDEDRECTD24*%
%ADD25R,1.700X1.700*%
%ADD26R,3.000X2.100*%
%ADD27R,1.600X0.800*%
G04:AMPARAMS|DCode=28|XSize=0.6mm|YSize=1.4mm|CornerRadius=0.15mm|HoleSize=0mm|Usage=FLASHONLY|Rotation=270.000|XOffset=0mm|YOffset=0mm|HoleType=Round|Shape=RoundedRectangle|*
%AMROUNDEDRECTD28*
21,1,0.600,1.100,0,0,270.0*
21,1,0.300,1.400,0,0,270.0*
1,1,0.300,-0.550,-0.150*
1,1,0.300,-0.550,0.150*
1,1,0.300,0.550,0.150*
1,1,0.300,0.550,-0.150*
%
%ADD28ROUNDEDRECTD28*%
G04:AMPARAMS|DCode=29|XSize=0.6mm|YSize=1.4mm|CornerRadius=0.15mm|HoleSize=0mm|Usage=FLASHONLY|Rotation=0.000|XOffset=0mm|YOffset=0mm|HoleType=Round|Shape=RoundedRectangle|*
%AMROUNDEDRECTD29*
21,1,0.600,1.100,0,0,0.0*
21,1,0.300,1.400,0,0,0.0*
1,1,0.300,0.150,-0.550*
1,1,0.300,-0.150,-0.550*
1,1,0.300,-0.150,0.550*
1,1,0.300,0.150,0.550*
%
%ADD29ROUNDEDRECTD29*%
%ADD30R,2.700X1.600*%
%ADD31R,2.400X1.600*%
%ADD32R,0.400X1.350*%
%ADD33R,0.800X1.000*%
%ADD34O,0.300X1.800*%
%ADD35O,1.800X0.300*%
%ADD36R,0.700X0.225*%
%ADD37R,0.400X2.000*%
%ADD38C,0.250*%
%ADD39C,0.225*%
%ADD40C,0.400*%
%ADD41C,0.254*%
%ADD42C,0.500*%
%ADD43C,1.524*%
%ADD44R,1.500X1.500*%
%ADD45C,1.500*%
%ADD46C,0.500*%
%ADD47C,0.600*%
%ADD48C,0.305*%
%ADD49C,0.200*%
%ADD50C,0.150*%
%ADD51C,0.070*%
%ADD52R,0.803X0.703*%
%ADD53R,1.473X1.118*%
%ADD54R,1.118X1.118*%
%ADD55R,0.853X1.303*%
%ADD56R,1.303X0.853*%
%ADD57R,0.703X0.803*%
%ADD58R,0.965X0.965*%
%ADD59R,0.965X0.965*%
%ADD60R,0.653X0.653*%
G04:AMPARAMS|DCode=61|XSize=5.203mm|YSize=5.203mm|CornerRadius=0.52mm|HoleSize=0mm|Usage=FLASHONLY|Rotation=90.000|XOffset=0mm|YOffset=0mm|HoleType=Round|Shape=RoundedRectangle|*
%AMROUNDEDRECTD61*
21,1,5.203,4.163,0,0,90.0*
21,1,4.163,5.203,0,0,90.0*
1,1,1.041,2.081,2.081*
1,1,1.041,2.081,-2.081*
1,1,1.041,-2.081,-2.081*
1,1,1.041,-2.081,2.081*
%
%ADD61ROUNDEDRECTD61*%
%ADD62O,1.253X0.453*%
%ADD63O,0.453X1.253*%
G04:AMPARAMS|DCode=64|XSize=0.453mm|YSize=0.903mm|CornerRadius=0.113mm|HoleSize=0mm|Usage=FLASHONLY|Rotation=90.000|XOffset=0mm|YOffset=0mm|HoleType=Round|Shape=RoundedRectangle|*
%AMROUNDEDRECTD64*
21,1,0.453,0.677,0,0,90.0*
21,1,0.227,0.903,0,0,90.0*
1,1,0.227,0.338,0.113*
1,1,0.227,0.338,-0.113*
1,1,0.227,-0.338,-0.113*
1,1,0.227,-0.338,0.113*
%
%ADD64ROUNDEDRECTD64*%
G04:AMPARAMS|DCode=65|XSize=0.453mm|YSize=0.903mm|CornerRadius=0.113mm|HoleSize=0mm|Usage=FLASHONLY|Rotation=0.000|XOffset=0mm|YOffset=0mm|HoleType=Round|Shape=RoundedRectangle|*
%AMROUNDEDRECTD65*
21,1,0.453,0.677,0,0,0.0*
21,1,0.227,0.903,0,0,0.0*
1,1,0.227,0.113,-0.338*
1,1,0.227,-0.113,-0.338*
1,1,0.227,-0.113,0.338*
1,1,0.227,0.113,0.338*
%
%ADD65ROUNDEDRECTD65*%
%ADD66R,1.903X1.903*%
%ADD67R,3.203X2.303*%
%ADD68R,1.803X1.003*%
G04:AMPARAMS|DCode=69|XSize=0.803mm|YSize=1.603mm|CornerRadius=0.201mm|HoleSize=0mm|Usage=FLASHONLY|Rotation=270.000|XOffset=0mm|YOffset=0mm|HoleType=Round|Shape=RoundedRectangle|*
%AMROUNDEDRECTD69*
21,1,0.803,1.202,0,0,270.0*
21,1,0.402,1.603,0,0,270.0*
1,1,0.402,-0.601,-0.201*
1,1,0.402,-0.601,0.201*
1,1,0.402,0.601,0.201*
1,1,0.402,0.601,-0.201*
%
%ADD69ROUNDEDRECTD69*%
G04:AMPARAMS|DCode=70|XSize=0.803mm|YSize=1.603mm|CornerRadius=0.201mm|HoleSize=0mm|Usage=FLASHONLY|Rotation=0.000|XOffset=0mm|YOffset=0mm|HoleType=Round|Shape=RoundedRectangle|*
%AMROUNDEDRECTD70*
21,1,0.803,1.202,0,0,0.0*
21,1,0.402,1.603,0,0,0.0*
1,1,0.402,0.201,-0.601*
1,1,0.402,-0.201,-0.601*
1,1,0.402,-0.201,0.601*
1,1,0.402,0.201,0.601*
%
%ADD70ROUNDEDRECTD70*%
%ADD71R,2.903X1.803*%
%ADD72R,2.603X1.803*%
%ADD73R,0.603X1.553*%
%ADD74R,1.003X1.203*%
%ADD75O,0.503X2.003*%
%ADD76O,2.003X0.503*%
%ADD77R,0.903X0.428*%
%ADD78R,0.603X2.203*%
%ADD79C,1.727*%
%ADD80R,1.703X1.703*%
%ADD81C,1.703*%
D52*
X0039125Y0017425D02*
D03*
X0038125D02*
D03*
X0031300Y0015400D02*
D03*
X0030300D02*
D03*
X0006000Y0004100D02*
D03*
X0007000D02*
D03*
X0003600Y0004100D02*
D03*
X0004600D02*
D03*
X0001200D02*
D03*
X0002200D02*
D03*
X0001900Y0007300D02*
D03*
X0002900D02*
D03*
X0010800Y0017500D02*
D03*
X0009800D02*
D03*
X0001900Y0009600D02*
D03*
X0002900D02*
D03*
X0001900Y0011900D02*
D03*
X0002900D02*
D03*
X0018500Y0002800D02*
D03*
X0019500D02*
D03*
X0013900Y0017400D02*
D03*
X0014900D02*
D03*
X0007400Y0022600D02*
D03*
X0006400D02*
D03*
X0007400Y0023400D02*
D03*
X0006400D02*
D03*
X0012900Y0019400D02*
D03*
X0011900D02*
D03*
X0012900Y0018500D02*
D03*
X0011900D02*
D03*
X0031300Y0016400D02*
D03*
X0030300D02*
D03*
X0033400Y0000900D02*
D03*
X0034400D02*
D03*
X0033400Y0001900D02*
D03*
X0034400D02*
D03*
X0018000Y0030700D02*
D03*
X0017000D02*
D03*
X0018000Y0029700D02*
D03*
X0017000D02*
D03*
X0018000Y0028700D02*
D03*
X0017000D02*
D03*
X0012100Y0025500D02*
D03*
X0013100D02*
D03*
X0021500Y0007800D02*
D03*
X0022500D02*
D03*
X0006000Y0001100D02*
D03*
X0007000D02*
D03*
X0004600D02*
D03*
X0003600D02*
D03*
X0002200D02*
D03*
X0001200D02*
D03*
X0001900Y0006300D02*
D03*
X0002900D02*
D03*
X0010800Y0018500D02*
D03*
X0009800D02*
D03*
X0002900Y0008600D02*
D03*
X0001900D02*
D03*
X0002900Y0010900D02*
D03*
X0001900D02*
D03*
X0006400Y0024300D02*
D03*
X0007400D02*
D03*
X0006400Y0025700D02*
D03*
X0007400D02*
D03*
X0021500Y0003200D02*
D03*
X0022500D02*
D03*
X0006800Y0031000D02*
D03*
X0005800D02*
D03*
Y0032000D02*
D03*
X0006800D02*
D03*
X0039300Y0011675D02*
D03*
X0038300D02*
D03*
Y0010675D02*
D03*
X0039300D02*
D03*
X0025400Y0032500D02*
D03*
X0024400D02*
D03*
X0021600Y0031800D02*
D03*
X0022600D02*
D03*
X0005800Y0030000D02*
D03*
X0006800D02*
D03*
X0005800Y0034000D02*
D03*
X0006800D02*
D03*
X0005800Y0033000D02*
D03*
X0006800D02*
D03*
X0010800Y0019500D02*
D03*
X0009800D02*
D03*
X0012100Y0024500D02*
D03*
X0013100D02*
D03*
Y0026500D02*
D03*
X0012100D02*
D03*
D53*
X0036668Y0019665D02*
D03*
D54*
X0038700Y0020605D02*
D03*
Y0018700D02*
D03*
D55*
X0012650Y0023200D02*
D03*
X0011700D02*
D03*
X0010750D02*
D03*
Y0020800D02*
D03*
X0012650D02*
D03*
X0001950Y0035800D02*
D03*
X0002900D02*
D03*
X0003850D02*
D03*
Y0038200D02*
D03*
X0001950D02*
D03*
D56*
X0016700Y0034550D02*
D03*
Y0033600D02*
D03*
Y0032650D02*
D03*
X0019100D02*
D03*
Y0034550D02*
D03*
X0010300Y0032150D02*
D03*
Y0031200D02*
D03*
Y0030250D02*
D03*
X0012700D02*
D03*
Y0032150D02*
D03*
D57*
X0007000Y0002100D02*
D03*
Y0003100D02*
D03*
X0004600Y0002100D02*
D03*
Y0003100D02*
D03*
X0023100Y0011300D02*
D03*
Y0012300D02*
D03*
X0024100Y0011300D02*
D03*
Y0012300D02*
D03*
X0002200Y0002100D02*
D03*
Y0003100D02*
D03*
X0003900Y0006300D02*
D03*
Y0007300D02*
D03*
X0019400Y0000700D02*
D03*
Y0001700D02*
D03*
X0018500Y0000700D02*
D03*
Y0001700D02*
D03*
X0003900Y0008600D02*
D03*
Y0009600D02*
D03*
Y0010900D02*
D03*
Y0011900D02*
D03*
X0009500Y0001700D02*
D03*
Y0000700D02*
D03*
X0010500Y0001700D02*
D03*
Y0000700D02*
D03*
X0013900Y0018400D02*
D03*
Y0019400D02*
D03*
X0014400Y0001700D02*
D03*
Y0000700D02*
D03*
X0009200Y0023600D02*
D03*
Y0022600D02*
D03*
X0008400Y0025700D02*
D03*
Y0024700D02*
D03*
X0023100Y0014600D02*
D03*
Y0013600D02*
D03*
X0026400Y0019800D02*
D03*
Y0020800D02*
D03*
X0025400Y0019800D02*
D03*
Y0020800D02*
D03*
X0024400Y0016900D02*
D03*
Y0015900D02*
D03*
X0039300Y0009675D02*
D03*
Y0008675D02*
D03*
X0008900Y0032100D02*
D03*
Y0031100D02*
D03*
X0014100Y0032200D02*
D03*
Y0031200D02*
D03*
X0006000Y0002100D02*
D03*
Y0003100D02*
D03*
X0003600Y0002100D02*
D03*
Y0003100D02*
D03*
X0001200Y0002100D02*
D03*
Y0003100D02*
D03*
X0000900Y0007300D02*
D03*
Y0006300D02*
D03*
Y0008600D02*
D03*
Y0009600D02*
D03*
Y0011900D02*
D03*
Y0010900D02*
D03*
X0008400Y0022600D02*
D03*
Y0023600D02*
D03*
X0009200Y0024700D02*
D03*
Y0025700D02*
D03*
X0011100Y0025400D02*
D03*
Y0026400D02*
D03*
X0010100Y0025400D02*
D03*
Y0026400D02*
D03*
X0022100Y0013600D02*
D03*
Y0014600D02*
D03*
X0024100D02*
D03*
Y0013600D02*
D03*
X0032400Y0000900D02*
D03*
Y0001900D02*
D03*
X0039300Y0023400D02*
D03*
Y0024400D02*
D03*
X0024400Y0028100D02*
D03*
Y0029100D02*
D03*
Y0031400D02*
D03*
Y0030400D02*
D03*
X0000900Y0035400D02*
D03*
Y0034400D02*
D03*
X0014100Y0026500D02*
D03*
Y0025500D02*
D03*
Y0023400D02*
D03*
Y0024400D02*
D03*
X0025400Y0024400D02*
D03*
Y0025400D02*
D03*
X0039300Y0026400D02*
D03*
Y0025400D02*
D03*
D58*
X0017000Y0000800D02*
D03*
X0015603D02*
D03*
X0013297D02*
D03*
X0011900D02*
D03*
X0002700Y0034300D02*
D03*
X0004097D02*
D03*
X0022700Y0001100D02*
D03*
X0021303D02*
D03*
D59*
X0005200Y0038497D02*
D03*
Y0037100D02*
D03*
D60*
X0023650Y0018650D02*
D03*
Y0017700D02*
D03*
X0022700Y0018650D02*
D03*
Y0017700D02*
D03*
X0023650Y0022350D02*
D03*
Y0021400D02*
D03*
X0022700Y0022350D02*
D03*
Y0021400D02*
D03*
X0020450Y0024250D02*
D03*
Y0023300D02*
D03*
X0019500Y0024250D02*
D03*
Y0023300D02*
D03*
X0017250Y0022450D02*
D03*
Y0021500D02*
D03*
X0016300Y0022450D02*
D03*
Y0021500D02*
D03*
X0017250Y0018550D02*
D03*
Y0017600D02*
D03*
X0016300Y0018550D02*
D03*
Y0017600D02*
D03*
X0019500Y0015700D02*
D03*
Y0016650D02*
D03*
X0020450Y0015700D02*
D03*
Y0016650D02*
D03*
D61*
X0032900Y0010400D02*
D03*
D62*
X0029525Y0007900D02*
D03*
Y0008400D02*
D03*
Y0008900D02*
D03*
Y0009400D02*
D03*
Y0009900D02*
D03*
Y0010400D02*
D03*
Y0010900D02*
D03*
Y0011400D02*
D03*
Y0011900D02*
D03*
Y0012400D02*
D03*
Y0012900D02*
D03*
X0036275D02*
D03*
Y0012400D02*
D03*
Y0011900D02*
D03*
Y0011400D02*
D03*
Y0010900D02*
D03*
Y0010400D02*
D03*
Y0009900D02*
D03*
Y0009400D02*
D03*
Y0008900D02*
D03*
Y0008400D02*
D03*
Y0007900D02*
D03*
D63*
X0030400Y0013775D02*
D03*
X0030900D02*
D03*
X0031400D02*
D03*
X0031900D02*
D03*
X0032400D02*
D03*
X0032900D02*
D03*
X0033400D02*
D03*
X0033900D02*
D03*
X0034400D02*
D03*
X0034900D02*
D03*
X0035400D02*
D03*
Y0007025D02*
D03*
X0034900D02*
D03*
X0034400D02*
D03*
X0033900D02*
D03*
X0033400D02*
D03*
X0032900D02*
D03*
X0032400D02*
D03*
X0031900D02*
D03*
X0031400D02*
D03*
X0030900D02*
D03*
X0030400D02*
D03*
D64*
X0019325Y0028900D02*
D03*
Y0028450D02*
D03*
Y0028000D02*
D03*
Y0027550D02*
D03*
Y0027100D02*
D03*
X0022475Y0027100D02*
D03*
Y0027550D02*
D03*
Y0028000D02*
D03*
Y0028450D02*
D03*
Y0028900D02*
D03*
D65*
X0020000Y0026425D02*
D03*
X0020450D02*
D03*
X0020900D02*
D03*
X0021350D02*
D03*
X0021800D02*
D03*
X0021800Y0029575D02*
D03*
X0021350D02*
D03*
X0020900D02*
D03*
X0020450D02*
D03*
X0020000D02*
D03*
D66*
X0020900Y0028000D02*
D03*
D67*
X0001900Y0029400D02*
D03*
Y0014300D02*
D03*
D68*
X0004800Y0026850D02*
D03*
Y0025600D02*
D03*
Y0024350D02*
D03*
Y0023100D02*
D03*
Y0021850D02*
D03*
Y0020600D02*
D03*
Y0019350D02*
D03*
Y0018100D02*
D03*
Y0016850D02*
D03*
D69*
X0026700Y0031400D02*
D03*
Y0032400D02*
D03*
Y0033400D02*
D03*
X0038100Y0031400D02*
D03*
Y0032400D02*
D03*
Y0033400D02*
D03*
X0026700Y0029400D02*
D03*
Y0028400D02*
D03*
Y0027400D02*
D03*
Y0026400D02*
D03*
Y0025400D02*
D03*
Y0024400D02*
D03*
X0038100D02*
D03*
Y0025400D02*
D03*
Y0026400D02*
D03*
Y0027400D02*
D03*
Y0028400D02*
D03*
Y0029400D02*
D03*
X0026700Y0030400D02*
D03*
X0038100D02*
D03*
D70*
X0028500Y0022400D02*
D03*
X0029500D02*
D03*
X0030500D02*
D03*
X0027500D02*
D03*
X0034300D02*
D03*
X0035300D02*
D03*
X0036300D02*
D03*
X0037300D02*
D03*
X0033300D02*
D03*
X0031500D02*
D03*
D71*
X0007625Y0038900D02*
D03*
X0014575D02*
D03*
D72*
X0008150Y0036150D02*
D03*
X0014050D02*
D03*
D73*
X0011750Y0035875D02*
D03*
X0011100D02*
D03*
X0010450D02*
D03*
X0009800D02*
D03*
X0012400D02*
D03*
D74*
X0021500Y0017300D02*
D03*
X0018500Y0022700D02*
D03*
Y0017300D02*
D03*
X0021500Y0022700D02*
D03*
D75*
X0009450Y0014650D02*
D03*
X0009950D02*
D03*
X0010450D02*
D03*
X0010950D02*
D03*
X0011450D02*
D03*
X0011950D02*
D03*
X0012450D02*
D03*
X0012950D02*
D03*
X0013450D02*
D03*
X0013950D02*
D03*
X0014450D02*
D03*
X0014950D02*
D03*
X0015450D02*
D03*
X0015950D02*
D03*
X0016450D02*
D03*
X0016950D02*
D03*
Y0003550D02*
D03*
X0016450D02*
D03*
X0015950D02*
D03*
X0015450D02*
D03*
X0014950D02*
D03*
X0014450D02*
D03*
X0013950D02*
D03*
X0013450D02*
D03*
X0012950D02*
D03*
X0012450D02*
D03*
X0011950D02*
D03*
X0011450D02*
D03*
X0010950D02*
D03*
X0010450D02*
D03*
X0009950D02*
D03*
X0009450D02*
D03*
D76*
X0018750Y0012850D02*
D03*
Y0012350D02*
D03*
Y0011850D02*
D03*
Y0011350D02*
D03*
Y0010850D02*
D03*
Y0010350D02*
D03*
Y0009850D02*
D03*
Y0009350D02*
D03*
Y0008850D02*
D03*
Y0008350D02*
D03*
Y0007850D02*
D03*
Y0007350D02*
D03*
Y0006850D02*
D03*
Y0006350D02*
D03*
Y0005850D02*
D03*
Y0005350D02*
D03*
X0007650D02*
D03*
Y0005850D02*
D03*
Y0006350D02*
D03*
Y0006850D02*
D03*
Y0007350D02*
D03*
Y0007850D02*
D03*
Y0008350D02*
D03*
Y0008850D02*
D03*
Y0009350D02*
D03*
Y0009850D02*
D03*
Y0010350D02*
D03*
Y0010850D02*
D03*
Y0011350D02*
D03*
Y0011850D02*
D03*
Y0012350D02*
D03*
Y0012850D02*
D03*
D77*
X0028550Y0018100D02*
D03*
Y0018500D02*
D03*
X0026650D02*
D03*
Y0018100D02*
D03*
Y0017700D02*
D03*
Y0017300D02*
D03*
Y0016900D02*
D03*
X0028550D02*
D03*
Y0017300D02*
D03*
Y0017700D02*
D03*
D78*
X0036900Y0002100D02*
D03*
X0038100D02*
D03*
X0035700D02*
D03*
D79*
X0025260Y0004070D02*
D03*
X0030340D02*
D03*
X0025260Y0001530D02*
D03*
X0027800D02*
D03*
X0030340D02*
D03*
X0027800Y0004070D02*
D03*
D80*
X0003900Y0032400D02*
D03*
D81*
X0001360D02*
D03*
M02*
