%FSAX43Y43*%
%MOMM*%
G71*
G01*
G75*
G04 Layer_Color=65535*
%ADD10C,0.203*%
%ADD11R,0.600X0.500*%
%ADD12R,1.270X0.914*%
%ADD13R,0.914X0.914*%
%ADD14R,0.650X1.100*%
%ADD15R,1.100X0.650*%
%ADD16R,0.500X0.600*%
%ADD17R,0.762X0.762*%
%ADD18R,0.762X0.762*%
%ADD19R,0.450X0.450*%
G04:AMPARAMS|DCode=20|XSize=5mm|YSize=5mm|CornerRadius=0.5mm|HoleSize=0mm|Usage=FLASHONLY|Rotation=90.000|XOffset=0mm|YOffset=0mm|HoleType=Round|Shape=RoundedRectangle|*
%AMROUNDEDRECTD20*
21,1,5.000,4.000,0,0,90.0*
21,1,4.000,5.000,0,0,90.0*
1,1,1.000,2.000,2.000*
1,1,1.000,2.000,-2.000*
1,1,1.000,-2.000,-2.000*
1,1,1.000,-2.000,2.000*
%
%ADD20ROUNDEDRECTD20*%
%ADD21O,1.050X0.250*%
%ADD22O,0.250X1.050*%
G04:AMPARAMS|DCode=23|XSize=0.25mm|YSize=0.7mm|CornerRadius=0.063mm|HoleSize=0mm|Usage=FLASHONLY|Rotation=90.000|XOffset=0mm|YOffset=0mm|HoleType=Round|Shape=RoundedRectangle|*
%AMROUNDEDRECTD23*
21,1,0.250,0.575,0,0,90.0*
21,1,0.125,0.700,0,0,90.0*
1,1,0.125,0.287,0.063*
1,1,0.125,0.287,-0.063*
1,1,0.125,-0.287,-0.063*
1,1,0.125,-0.287,0.063*
%
%ADD23ROUNDEDRECTD23*%
G04:AMPARAMS|DCode=24|XSize=0.25mm|YSize=0.7mm|CornerRadius=0.063mm|HoleSize=0mm|Usage=FLASHONLY|Rotation=0.000|XOffset=0mm|YOffset=0mm|HoleType=Round|Shape=RoundedRectangle|*
%AMROUNDEDRECTD24*
21,1,0.250,0.575,0,0,0.0*
21,1,0.125,0.700,0,0,0.0*
1,1,0.125,0.063,-0.287*
1,1,0.125,-0.063,-0.287*
1,1,0.125,-0.063,0.287*
1,1,0.125,0.063,0.287*
%
%ADD24ROUNDEDRECTD24*%
%ADD25R,1.700X1.700*%
%ADD26R,3.000X2.100*%
%ADD27R,1.600X0.800*%
G04:AMPARAMS|DCode=28|XSize=0.6mm|YSize=1.4mm|CornerRadius=0.15mm|HoleSize=0mm|Usage=FLASHONLY|Rotation=270.000|XOffset=0mm|YOffset=0mm|HoleType=Round|Shape=RoundedRectangle|*
%AMROUNDEDRECTD28*
21,1,0.600,1.100,0,0,270.0*
21,1,0.300,1.400,0,0,270.0*
1,1,0.300,-0.550,-0.150*
1,1,0.300,-0.550,0.150*
1,1,0.300,0.550,0.150*
1,1,0.300,0.550,-0.150*
%
%ADD28ROUNDEDRECTD28*%
G04:AMPARAMS|DCode=29|XSize=0.6mm|YSize=1.4mm|CornerRadius=0.15mm|HoleSize=0mm|Usage=FLASHONLY|Rotation=0.000|XOffset=0mm|YOffset=0mm|HoleType=Round|Shape=RoundedRectangle|*
%AMROUNDEDRECTD29*
21,1,0.600,1.100,0,0,0.0*
21,1,0.300,1.400,0,0,0.0*
1,1,0.300,0.150,-0.550*
1,1,0.300,-0.150,-0.550*
1,1,0.300,-0.150,0.550*
1,1,0.300,0.150,0.550*
%
%ADD29ROUNDEDRECTD29*%
%ADD30R,2.700X1.600*%
%ADD31R,2.400X1.600*%
%ADD32R,0.400X1.350*%
%ADD33R,0.800X1.000*%
%ADD34O,0.300X1.800*%
%ADD35O,1.800X0.300*%
%ADD36R,0.700X0.225*%
%ADD37R,0.400X2.000*%
%ADD38C,0.250*%
%ADD39C,0.225*%
%ADD40C,0.400*%
%ADD41C,0.254*%
%ADD42C,0.500*%
%ADD43C,1.524*%
%ADD44R,1.500X1.500*%
%ADD45C,1.500*%
%ADD46C,0.500*%
%ADD47C,0.600*%
%ADD48C,0.305*%
%ADD49C,0.200*%
%ADD50C,0.150*%
%ADD51C,0.070*%
D38*
X0013650Y0023200D02*
G03*
X0013650Y0023200I-0000125J0000000D01*
G01*
X0001200Y0035800D02*
G03*
X0001200Y0035800I-0000125J0000000D01*
G01*
X0016825Y0035425D02*
G03*
X0016825Y0035425I-0000125J0000000D01*
G01*
X0030525Y0005950D02*
G03*
X0030525Y0005950I-0000125J0000000D01*
G01*
X0018995Y0029651D02*
G03*
X0018995Y0029651I-0000125J0000000D01*
G01*
X0007775Y0013550D02*
G03*
X0007775Y0013550I-0000125J0000000D01*
G01*
X0010425Y0033025D02*
G03*
X0010425Y0033025I-0000125J0000000D01*
G01*
D41*
X0025039Y0020000D02*
G03*
X0025039Y0020000I-0005000J0000000D01*
G01*
X0025678Y0018535D02*
G03*
X0025680Y0018527I-0000008J-0000005D01*
G01*
X0033500Y0033700D02*
X0036700D01*
X0033500D02*
Y0035700D01*
X0036700D01*
Y0033700D02*
Y0035700D01*
X0035600Y0033700D02*
X0036700Y0035200D01*
X0034800Y0033700D02*
X0036300Y0035700D01*
X0034000Y0033700D02*
X0035500Y0035700D01*
X0033500Y0034000D02*
X0034800Y0035700D01*
X0033500Y0034800D02*
X0034100Y0035700D01*
X0026500Y0022300D02*
X0027000D01*
X0037800D02*
X0038300D01*
X0026500Y0040400D02*
X0038300D01*
X0026500Y0033900D02*
Y0040400D01*
X0038300Y0033900D02*
Y0040400D01*
X0026500Y0022300D02*
Y0023900D01*
X0038300Y0022300D02*
Y0023900D01*
X0023885Y0000255D02*
Y0005300D01*
X0031560D01*
Y0000260D02*
Y0005300D01*
X0030340Y0000260D02*
X0031560D01*
X0023885D02*
X0030340D01*
D47*
X0010250Y0012350D02*
G03*
X0010250Y0012350I-0000300J0000000D01*
G01*
D48*
X0036541Y0021113D02*
X0037684D01*
X0036541Y0018192D02*
X0037684D01*
X0036541Y0020605D02*
Y0021113D01*
X0038827Y0019589D02*
Y0019716D01*
X0036541Y0018192D02*
Y0018700D01*
D49*
X0013250Y0021750D02*
Y0022250D01*
X0010150Y0021750D02*
Y0022250D01*
X0013250D01*
X0010150Y0021750D02*
X0013250D01*
X0001350Y0036750D02*
Y0037250D01*
X0004450Y0036750D02*
Y0037250D01*
X0001350Y0036750D02*
X0004450D01*
X0001350Y0037250D02*
X0004450D01*
X0017650Y0035150D02*
X0018150D01*
X0017650Y0032050D02*
X0018150D01*
X0017650D02*
Y0035150D01*
X0018150Y0032050D02*
Y0035150D01*
X0029300Y0006800D02*
X0029875D01*
X0029300D02*
Y0007375D01*
X0035925Y0006800D02*
X0036500D01*
Y0007375D01*
X0035925Y0014000D02*
X0036500D01*
Y0013425D02*
Y0014000D01*
X0029300D02*
X0029875D01*
X0029300Y0013425D02*
Y0014000D01*
X0022300Y0029700D02*
X0022600D01*
Y0029400D02*
Y0029700D01*
X0019200Y0029400D02*
Y0029700D01*
X0019500D01*
X0019200Y0026300D02*
Y0026600D01*
Y0026300D02*
X0019500D01*
X0022600D02*
Y0026600D01*
X0022300Y0026300D02*
X0022600D01*
X0039150Y0027000D02*
X0039450D01*
X0000090Y0031130D02*
Y0033670D01*
X0005170D01*
Y0031130D02*
Y0033670D01*
X0000090Y0031130D02*
X0005170D01*
X0008950Y0004850D02*
X0017450D01*
X0008950Y0013350D02*
X0017450D01*
Y0004850D02*
Y0013350D01*
X0008950Y0004850D02*
Y0013350D01*
X0029320Y0016410D02*
Y0018980D01*
X0025910Y0016410D02*
X0029320D01*
X0025910Y0018980D02*
X0029320D01*
X0025910Y0016410D02*
Y0018980D01*
X0011250Y0032750D02*
X0011750D01*
X0011250Y0029650D02*
X0011750D01*
X0011250D02*
Y0032750D01*
X0011750Y0029650D02*
Y0032750D01*
D50*
X0022300Y0017300D02*
X0024050D01*
Y0019050D01*
X0022300D02*
X0024050D01*
X0022300Y0017300D02*
Y0019050D01*
Y0021000D02*
X0024050D01*
Y0022750D01*
X0022300D02*
X0024050D01*
X0022300Y0021000D02*
Y0022750D01*
X0019100Y0022900D02*
X0020850D01*
Y0024650D01*
X0019100D02*
X0020850D01*
X0019100Y0022900D02*
Y0024650D01*
X0015900Y0021100D02*
X0017650D01*
Y0022850D01*
X0015900D02*
X0017650D01*
X0015900Y0021100D02*
Y0022850D01*
Y0017200D02*
X0017650D01*
Y0018950D01*
X0015900D02*
X0017650D01*
X0015900Y0017200D02*
Y0018950D01*
X0019100Y0015300D02*
Y0017050D01*
X0020850D01*
Y0015300D02*
Y0017050D01*
X0019100Y0015300D02*
X0020850D01*
X0017725Y0023325D02*
X0018875D01*
X0021175D02*
X0022325D01*
X0017725Y0016675D02*
X0018875D01*
X0021175D02*
X0022325D01*
Y0023325D01*
X0017725Y0016675D02*
Y0023325D01*
D51*
X0039650Y0016675D02*
Y0016175D01*
X0039400D01*
X0039317Y0016258D01*
Y0016425D01*
X0039400Y0016508D01*
X0039650D01*
X0039483D02*
X0039317Y0016675D01*
X0038900D02*
Y0016175D01*
X0039150Y0016425D01*
X0038817D01*
X0038650Y0016258D02*
X0038567Y0016175D01*
X0038400D01*
X0038317Y0016258D01*
Y0016342D01*
X0038400Y0016425D01*
X0038484D01*
X0038400D01*
X0038317Y0016508D01*
Y0016592D01*
X0038400Y0016675D01*
X0038567D01*
X0038650Y0016592D01*
X0036808Y0017433D02*
Y0017767D01*
X0036725Y0017850D01*
X0036558D01*
X0036475Y0017767D01*
Y0017433D01*
X0036558Y0017350D01*
X0036725D01*
X0036642Y0017517D02*
X0036808Y0017350D01*
X0036725D02*
X0036808Y0017433D01*
X0037308Y0017350D02*
X0036975D01*
X0037308Y0017683D01*
Y0017767D01*
X0037225Y0017850D01*
X0037058D01*
X0036975Y0017767D01*
X0035567Y0004568D02*
Y0004485D01*
X0035733Y0004318D01*
X0035900Y0004485D01*
Y0004568D01*
X0035733Y0004318D02*
Y0004069D01*
X0036066D02*
X0036233D01*
X0036150D01*
Y0004568D01*
X0036066Y0004485D01*
X0011900Y0027700D02*
Y0028200D01*
X0012150D01*
X0012233Y0028117D01*
Y0027950D01*
X0012150Y0027867D01*
X0011900D01*
X0012067D02*
X0012233Y0027700D01*
X0012733D02*
X0012400D01*
X0012733Y0028033D01*
Y0028117D01*
X0012650Y0028200D01*
X0012483D01*
X0012400Y0028117D01*
X0013233Y0027700D02*
X0012900D01*
X0013233Y0028033D01*
Y0028117D01*
X0013150Y0028200D01*
X0012983D01*
X0012900Y0028117D01*
X0010200Y0024200D02*
Y0024700D01*
X0010450D01*
X0010533Y0024617D01*
Y0024450D01*
X0010450Y0024367D01*
X0010200D01*
X0010367D02*
X0010533Y0024200D01*
X0010700D02*
X0010866D01*
X0010783D01*
Y0024700D01*
X0010700Y0024617D01*
X0011116Y0024700D02*
X0011450D01*
Y0024617D01*
X0011116Y0024283D01*
Y0024200D01*
X0007800Y0019200D02*
Y0019700D01*
X0008050D01*
X0008133Y0019617D01*
Y0019450D01*
X0008050Y0019367D01*
X0007800D01*
X0007967D02*
X0008133Y0019200D01*
X0008300D02*
X0008466D01*
X0008383D01*
Y0019700D01*
X0008300Y0019617D01*
X0009050Y0019700D02*
X0008883Y0019617D01*
X0008716Y0019450D01*
Y0019283D01*
X0008800Y0019200D01*
X0008966D01*
X0009050Y0019283D01*
Y0019367D01*
X0008966Y0019450D01*
X0008716D01*
X0014400Y0027100D02*
X0013900D01*
Y0027350D01*
X0013983Y0027433D01*
X0014150D01*
X0014233Y0027350D01*
Y0027100D01*
Y0027267D02*
X0014400Y0027433D01*
Y0027600D02*
Y0027766D01*
Y0027683D01*
X0013900D01*
X0013983Y0027600D01*
X0013900Y0028350D02*
Y0028016D01*
X0014150D01*
X0014067Y0028183D01*
Y0028266D01*
X0014150Y0028350D01*
X0014317D01*
X0014400Y0028266D01*
Y0028100D01*
X0014317Y0028016D01*
X0013900Y0022300D02*
Y0022133D01*
Y0022217D01*
X0013400D01*
Y0022300D01*
Y0022133D01*
X0013817Y0021550D02*
X0013900Y0021634D01*
Y0021800D01*
X0013817Y0021883D01*
X0013483D01*
X0013400Y0021800D01*
Y0021634D01*
X0013483Y0021550D01*
X0013400Y0021384D02*
Y0021217D01*
Y0021300D01*
X0013900D01*
X0013817Y0021384D01*
X0012233Y0027417D02*
X0012150Y0027500D01*
X0011983D01*
X0011900Y0027417D01*
Y0027083D01*
X0011983Y0027000D01*
X0012150D01*
X0012233Y0027083D01*
X0012733Y0027000D02*
X0012400D01*
X0012733Y0027333D01*
Y0027417D01*
X0012650Y0027500D01*
X0012483D01*
X0012400Y0027417D01*
X0012900D02*
X0012983Y0027500D01*
X0013150D01*
X0013233Y0027417D01*
Y0027333D01*
X0013150Y0027250D01*
X0013066D01*
X0013150D01*
X0013233Y0027167D01*
Y0027083D01*
X0013150Y0027000D01*
X0012983D01*
X0012900Y0027083D01*
X0016950Y0036100D02*
Y0035683D01*
X0017033Y0035600D01*
X0017200D01*
X0017283Y0035683D01*
Y0036100D01*
X0017450D02*
X0017783D01*
Y0036017D01*
X0017450Y0035683D01*
Y0035600D01*
X0000400Y0038200D02*
X0000817D01*
X0000900Y0038283D01*
Y0038450D01*
X0000817Y0038533D01*
X0000400D01*
Y0039033D02*
X0000483Y0038866D01*
X0000650Y0038700D01*
X0000817D01*
X0000900Y0038783D01*
Y0038950D01*
X0000817Y0039033D01*
X0000733D01*
X0000650Y0038950D01*
Y0038700D01*
X0012100Y0033525D02*
Y0033108D01*
X0012183Y0033025D01*
X0012350D01*
X0012433Y0033108D01*
Y0033525D01*
X0012933D02*
X0012600D01*
Y0033275D01*
X0012766Y0033358D01*
X0012850D01*
X0012933Y0033275D01*
Y0033108D01*
X0012850Y0033025D01*
X0012683D01*
X0012600Y0033108D01*
X0028475Y0019675D02*
Y0019258D01*
X0028558Y0019175D01*
X0028725D01*
X0028808Y0019258D01*
Y0019675D01*
X0028975Y0019592D02*
X0029058Y0019675D01*
X0029225D01*
X0029308Y0019592D01*
Y0019508D01*
X0029225Y0019425D01*
X0029141D01*
X0029225D01*
X0029308Y0019342D01*
Y0019258D01*
X0029225Y0019175D01*
X0029058D01*
X0028975Y0019258D01*
X0006736Y0017080D02*
Y0016664D01*
X0006819Y0016580D01*
X0006986D01*
X0007069Y0016664D01*
Y0017080D01*
X0007236Y0016580D02*
X0007402D01*
X0007319D01*
Y0017080D01*
X0007236Y0016997D01*
X0021533Y0016517D02*
X0021450Y0016600D01*
X0021283D01*
X0021200Y0016517D01*
Y0016433D01*
X0021283Y0016350D01*
X0021450D01*
X0021533Y0016267D01*
Y0016183D01*
X0021450Y0016100D01*
X0021283D01*
X0021200Y0016183D01*
X0021700Y0016600D02*
Y0016100D01*
X0021866Y0016267D01*
X0022033Y0016100D01*
Y0016600D01*
X0022200Y0016100D02*
X0022366D01*
X0022283D01*
Y0016600D01*
X0022200Y0016517D01*
X0007375Y0032725D02*
Y0033225D01*
X0007625D01*
X0007708Y0033142D01*
Y0032975D01*
X0007625Y0032892D01*
X0007375D01*
X0007542D02*
X0007708Y0032725D01*
X0008125D02*
Y0033225D01*
X0007875Y0032975D01*
X0008208D01*
X0008708Y0032725D02*
X0008375D01*
X0008708Y0033058D01*
Y0033142D01*
X0008625Y0033225D01*
X0008458D01*
X0008375Y0033142D01*
X0007450Y0033775D02*
Y0034275D01*
X0007700D01*
X0007783Y0034192D01*
Y0034025D01*
X0007700Y0033942D01*
X0007450D01*
X0007617D02*
X0007783Y0033775D01*
X0008200D02*
Y0034275D01*
X0007950Y0034025D01*
X0008283D01*
X0008450Y0033775D02*
X0008616D01*
X0008533D01*
Y0034275D01*
X0008450Y0034192D01*
X0001000Y0036200D02*
X0000500D01*
Y0036450D01*
X0000583Y0036533D01*
X0000750D01*
X0000833Y0036450D01*
Y0036200D01*
Y0036367D02*
X0001000Y0036533D01*
Y0036950D02*
X0000500D01*
X0000750Y0036700D01*
Y0037033D01*
X0000583Y0037200D02*
X0000500Y0037283D01*
Y0037450D01*
X0000583Y0037533D01*
X0000917D01*
X0001000Y0037450D01*
Y0037283D01*
X0000917Y0037200D01*
X0000583D01*
X0005550Y0028850D02*
Y0029350D01*
X0005800D01*
X0005883Y0029267D01*
Y0029100D01*
X0005800Y0029017D01*
X0005550D01*
X0005717D02*
X0005883Y0028850D01*
X0006050Y0029267D02*
X0006133Y0029350D01*
X0006300D01*
X0006383Y0029267D01*
Y0029183D01*
X0006300Y0029100D01*
X0006216D01*
X0006300D01*
X0006383Y0029017D01*
Y0028933D01*
X0006300Y0028850D01*
X0006133D01*
X0006050Y0028933D01*
X0006550D02*
X0006633Y0028850D01*
X0006800D01*
X0006883Y0028933D01*
Y0029267D01*
X0006800Y0029350D01*
X0006633D01*
X0006550Y0029267D01*
Y0029183D01*
X0006633Y0029100D01*
X0006883D01*
X0024500Y0032000D02*
X0024000D01*
Y0032250D01*
X0024083Y0032333D01*
X0024250D01*
X0024333Y0032250D01*
Y0032000D01*
Y0032167D02*
X0024500Y0032333D01*
X0024083Y0032500D02*
X0024000Y0032583D01*
Y0032750D01*
X0024083Y0032833D01*
X0024167D01*
X0024250Y0032750D01*
Y0032666D01*
Y0032750D01*
X0024333Y0032833D01*
X0024417D01*
X0024500Y0032750D01*
Y0032583D01*
X0024417Y0032500D01*
X0024000Y0033000D02*
Y0033333D01*
X0024083D01*
X0024417Y0033000D01*
X0024500D01*
X0021500Y0032300D02*
Y0032800D01*
X0021750D01*
X0021833Y0032717D01*
Y0032550D01*
X0021750Y0032467D01*
X0021500D01*
X0021667D02*
X0021833Y0032300D01*
X0022000Y0032717D02*
X0022083Y0032800D01*
X0022250D01*
X0022333Y0032717D01*
Y0032633D01*
X0022250Y0032550D01*
X0022166D01*
X0022250D01*
X0022333Y0032467D01*
Y0032383D01*
X0022250Y0032300D01*
X0022083D01*
X0022000Y0032383D01*
X0022833Y0032800D02*
X0022666Y0032717D01*
X0022500Y0032550D01*
Y0032383D01*
X0022583Y0032300D01*
X0022750D01*
X0022833Y0032383D01*
Y0032467D01*
X0022750Y0032550D01*
X0022500D01*
X0024200Y0027400D02*
X0024700D01*
Y0027150D01*
X0024617Y0027067D01*
X0024450D01*
X0024367Y0027150D01*
Y0027400D01*
Y0027233D02*
X0024200Y0027067D01*
X0024617Y0026900D02*
X0024700Y0026817D01*
Y0026650D01*
X0024617Y0026567D01*
X0024533D01*
X0024450Y0026650D01*
Y0026734D01*
Y0026650D01*
X0024367Y0026567D01*
X0024283D01*
X0024200Y0026650D01*
Y0026817D01*
X0024283Y0026900D01*
X0024700Y0026067D02*
Y0026400D01*
X0024450D01*
X0024533Y0026234D01*
Y0026150D01*
X0024450Y0026067D01*
X0024283D01*
X0024200Y0026150D01*
Y0026317D01*
X0024283Y0026400D01*
X0039000Y0022700D02*
X0039500D01*
Y0022450D01*
X0039417Y0022367D01*
X0039250D01*
X0039167Y0022450D01*
Y0022700D01*
Y0022533D02*
X0039000Y0022367D01*
X0039417Y0022200D02*
X0039500Y0022117D01*
Y0021950D01*
X0039417Y0021867D01*
X0039333D01*
X0039250Y0021950D01*
Y0022034D01*
Y0021950D01*
X0039167Y0021867D01*
X0039083D01*
X0039000Y0021950D01*
Y0022117D01*
X0039083Y0022200D01*
X0039000Y0021450D02*
X0039500D01*
X0039250Y0021700D01*
Y0021367D01*
X0026000Y0032300D02*
Y0032800D01*
X0026250D01*
X0026333Y0032717D01*
Y0032550D01*
X0026250Y0032467D01*
X0026000D01*
X0026167D02*
X0026333Y0032300D01*
X0026500Y0032717D02*
X0026583Y0032800D01*
X0026750D01*
X0026833Y0032717D01*
Y0032633D01*
X0026750Y0032550D01*
X0026666D01*
X0026750D01*
X0026833Y0032467D01*
Y0032383D01*
X0026750Y0032300D01*
X0026583D01*
X0026500Y0032383D01*
X0027000Y0032717D02*
X0027083Y0032800D01*
X0027250D01*
X0027333Y0032717D01*
Y0032633D01*
X0027250Y0032550D01*
X0027166D01*
X0027250D01*
X0027333Y0032467D01*
Y0032383D01*
X0027250Y0032300D01*
X0027083D01*
X0027000Y0032383D01*
X0033100Y0002000D02*
X0033600D01*
Y0001750D01*
X0033517Y0001667D01*
X0033350D01*
X0033267Y0001750D01*
Y0002000D01*
Y0001833D02*
X0033100Y0001667D01*
X0033517Y0001500D02*
X0033600Y0001417D01*
Y0001250D01*
X0033517Y0001167D01*
X0033433D01*
X0033350Y0001250D01*
Y0001334D01*
Y0001250D01*
X0033267Y0001167D01*
X0033183D01*
X0033100Y0001250D01*
Y0001417D01*
X0033183Y0001500D01*
X0033100Y0000667D02*
Y0001000D01*
X0033433Y0000667D01*
X0033517D01*
X0033600Y0000750D01*
Y0000917D01*
X0033517Y0001000D01*
X0037136Y0010586D02*
X0036636D01*
Y0010836D01*
X0036720Y0010919D01*
X0036886D01*
X0036970Y0010836D01*
Y0010586D01*
Y0010753D02*
X0037136Y0010919D01*
X0036720Y0011086D02*
X0036636Y0011169D01*
Y0011336D01*
X0036720Y0011419D01*
X0036803D01*
X0036886Y0011336D01*
Y0011253D01*
Y0011336D01*
X0036970Y0011419D01*
X0037053D01*
X0037136Y0011336D01*
Y0011169D01*
X0037053Y0011086D01*
X0037136Y0011586D02*
Y0011752D01*
Y0011669D01*
X0036636D01*
X0036720Y0011586D01*
X0037136Y0011586D02*
X0036636D01*
Y0011836D01*
X0036720Y0011919D01*
X0036886D01*
X0036970Y0011836D01*
Y0011586D01*
Y0011753D02*
X0037136Y0011919D01*
X0036720Y0012086D02*
X0036636Y0012169D01*
Y0012336D01*
X0036720Y0012419D01*
X0036803D01*
X0036886Y0012336D01*
Y0012253D01*
Y0012336D01*
X0036970Y0012419D01*
X0037053D01*
X0037136Y0012336D01*
Y0012169D01*
X0037053Y0012086D01*
X0036720Y0012586D02*
X0036636Y0012669D01*
Y0012836D01*
X0036720Y0012919D01*
X0037053D01*
X0037136Y0012836D01*
Y0012669D01*
X0037053Y0012586D01*
X0036720D01*
X0007975Y0031175D02*
X0007475D01*
Y0031425D01*
X0007558Y0031508D01*
X0007725D01*
X0007808Y0031425D01*
Y0031175D01*
Y0031342D02*
X0007975Y0031508D01*
Y0032008D02*
Y0031675D01*
X0007642Y0032008D01*
X0007558D01*
X0007475Y0031925D01*
Y0031758D01*
X0007558Y0031675D01*
X0007892Y0032175D02*
X0007975Y0032258D01*
Y0032425D01*
X0007892Y0032508D01*
X0007558D01*
X0007475Y0032425D01*
Y0032258D01*
X0007558Y0032175D01*
X0007642D01*
X0007725Y0032258D01*
Y0032508D01*
X0007950Y0029575D02*
X0007450D01*
Y0029825D01*
X0007533Y0029908D01*
X0007700D01*
X0007783Y0029825D01*
Y0029575D01*
Y0029742D02*
X0007950Y0029908D01*
Y0030408D02*
Y0030075D01*
X0007617Y0030408D01*
X0007533D01*
X0007450Y0030325D01*
Y0030158D01*
X0007533Y0030075D01*
Y0030575D02*
X0007450Y0030658D01*
Y0030825D01*
X0007533Y0030908D01*
X0007617D01*
X0007700Y0030825D01*
X0007783Y0030908D01*
X0007867D01*
X0007950Y0030825D01*
Y0030658D01*
X0007867Y0030575D01*
X0007783D01*
X0007700Y0030658D01*
X0007617Y0030575D01*
X0007533D01*
X0007700Y0030658D02*
Y0030825D01*
X0024300Y0015275D02*
X0023800D01*
Y0015525D01*
X0023883Y0015608D01*
X0024050D01*
X0024133Y0015525D01*
Y0015275D01*
Y0015442D02*
X0024300Y0015608D01*
Y0016108D02*
Y0015775D01*
X0023967Y0016108D01*
X0023883D01*
X0023800Y0016025D01*
Y0015858D01*
X0023883Y0015775D01*
X0023800Y0016275D02*
Y0016608D01*
X0023883D01*
X0024217Y0016275D01*
X0024300D01*
X0021475Y0013375D02*
X0020975D01*
Y0013625D01*
X0021058Y0013708D01*
X0021225D01*
X0021308Y0013625D01*
Y0013375D01*
Y0013542D02*
X0021475Y0013708D01*
Y0014208D02*
Y0013875D01*
X0021142Y0014208D01*
X0021058D01*
X0020975Y0014125D01*
Y0013958D01*
X0021058Y0013875D01*
X0020975Y0014708D02*
X0021058Y0014541D01*
X0021225Y0014375D01*
X0021392D01*
X0021475Y0014458D01*
Y0014625D01*
X0021392Y0014708D01*
X0021308D01*
X0021225Y0014625D01*
Y0014375D01*
X0021325Y0003725D02*
Y0004225D01*
X0021575D01*
X0021658Y0004142D01*
Y0003975D01*
X0021575Y0003892D01*
X0021325D01*
X0021492D02*
X0021658Y0003725D01*
X0022158D02*
X0021825D01*
X0022158Y0004058D01*
Y0004142D01*
X0022075Y0004225D01*
X0021908D01*
X0021825Y0004142D01*
X0022575Y0003725D02*
Y0004225D01*
X0022325Y0003975D01*
X0022658D01*
X0010300Y0027000D02*
X0009800D01*
Y0027250D01*
X0009883Y0027333D01*
X0010050D01*
X0010133Y0027250D01*
Y0027000D01*
Y0027167D02*
X0010300Y0027333D01*
Y0027833D02*
Y0027500D01*
X0009967Y0027833D01*
X0009883D01*
X0009800Y0027750D01*
Y0027583D01*
X0009883Y0027500D01*
X0009800Y0028333D02*
Y0028000D01*
X0010050D01*
X0009967Y0028166D01*
Y0028250D01*
X0010050Y0028333D01*
X0010217D01*
X0010300Y0028250D01*
Y0028083D01*
X0010217Y0028000D01*
X0011500Y0027000D02*
X0011000D01*
Y0027250D01*
X0011083Y0027333D01*
X0011250D01*
X0011333Y0027250D01*
Y0027000D01*
Y0027167D02*
X0011500Y0027333D01*
Y0027833D02*
Y0027500D01*
X0011167Y0027833D01*
X0011083D01*
X0011000Y0027750D01*
Y0027583D01*
X0011083Y0027500D01*
Y0028000D02*
X0011000Y0028083D01*
Y0028250D01*
X0011083Y0028333D01*
X0011167D01*
X0011250Y0028250D01*
Y0028166D01*
Y0028250D01*
X0011333Y0028333D01*
X0011417D01*
X0011500Y0028250D01*
Y0028083D01*
X0011417Y0028000D01*
X0006200Y0026200D02*
Y0026700D01*
X0006450D01*
X0006533Y0026617D01*
Y0026450D01*
X0006450Y0026367D01*
X0006200D01*
X0006367D02*
X0006533Y0026200D01*
X0007033D02*
X0006700D01*
X0007033Y0026533D01*
Y0026617D01*
X0006950Y0026700D01*
X0006783D01*
X0006700Y0026617D01*
X0007200Y0026200D02*
X0007366D01*
X0007283D01*
Y0026700D01*
X0007200Y0026617D01*
X0009500Y0026300D02*
X0009000D01*
Y0026550D01*
X0009083Y0026633D01*
X0009250D01*
X0009333Y0026550D01*
Y0026300D01*
Y0026467D02*
X0009500Y0026633D01*
Y0027133D02*
Y0026800D01*
X0009167Y0027133D01*
X0009083D01*
X0009000Y0027050D01*
Y0026883D01*
X0009083Y0026800D01*
Y0027300D02*
X0009000Y0027383D01*
Y0027550D01*
X0009083Y0027633D01*
X0009417D01*
X0009500Y0027550D01*
Y0027383D01*
X0009417Y0027300D01*
X0009083D01*
X0006200Y0026700D02*
Y0027200D01*
X0006450D01*
X0006533Y0027117D01*
Y0026950D01*
X0006450Y0026867D01*
X0006200D01*
X0006367D02*
X0006533Y0026700D01*
X0006700D02*
X0006866D01*
X0006783D01*
Y0027200D01*
X0006700Y0027117D01*
X0007116Y0026783D02*
X0007200Y0026700D01*
X0007366D01*
X0007450Y0026783D01*
Y0027117D01*
X0007366Y0027200D01*
X0007200D01*
X0007116Y0027117D01*
Y0027033D01*
X0007200Y0026950D01*
X0007450D01*
X0008700Y0020600D02*
X0008200D01*
Y0020850D01*
X0008283Y0020933D01*
X0008450D01*
X0008533Y0020850D01*
Y0020600D01*
Y0020767D02*
X0008700Y0020933D01*
Y0021100D02*
Y0021266D01*
Y0021183D01*
X0008200D01*
X0008283Y0021100D01*
Y0021516D02*
X0008200Y0021600D01*
Y0021766D01*
X0008283Y0021850D01*
X0008367D01*
X0008450Y0021766D01*
X0008533Y0021850D01*
X0008617D01*
X0008700Y0021766D01*
Y0021600D01*
X0008617Y0021516D01*
X0008533D01*
X0008450Y0021600D01*
X0008367Y0021516D01*
X0008283D01*
X0008450Y0021600D02*
Y0021766D01*
X0000625Y0012500D02*
Y0013000D01*
X0000875D01*
X0000958Y0012917D01*
Y0012750D01*
X0000875Y0012667D01*
X0000625D01*
X0000792D02*
X0000958Y0012500D01*
X0001125D02*
X0001291D01*
X0001208D01*
Y0013000D01*
X0001125Y0012917D01*
X0001791Y0012500D02*
Y0013000D01*
X0001541Y0012750D01*
X0001875D01*
X0004475Y0010500D02*
Y0011000D01*
X0004725D01*
X0004808Y0010917D01*
Y0010750D01*
X0004725Y0010667D01*
X0004475D01*
X0004642D02*
X0004808Y0010500D01*
X0004975D02*
X0005141D01*
X0005058D01*
Y0011000D01*
X0004975Y0010917D01*
X0005391D02*
X0005475Y0011000D01*
X0005641D01*
X0005725Y0010917D01*
Y0010833D01*
X0005641Y0010750D01*
X0005558D01*
X0005641D01*
X0005725Y0010667D01*
Y0010583D01*
X0005641Y0010500D01*
X0005475D01*
X0005391Y0010583D01*
X0000400Y0010000D02*
Y0010500D01*
X0000650D01*
X0000733Y0010417D01*
Y0010250D01*
X0000650Y0010167D01*
X0000400D01*
X0000567D02*
X0000733Y0010000D01*
X0000900D02*
X0001066D01*
X0000983D01*
Y0010500D01*
X0000900Y0010417D01*
X0001650Y0010000D02*
X0001316D01*
X0001650Y0010333D01*
Y0010417D01*
X0001566Y0010500D01*
X0001400D01*
X0001316Y0010417D01*
X0004400Y0008325D02*
Y0008825D01*
X0004650D01*
X0004733Y0008742D01*
Y0008575D01*
X0004650Y0008492D01*
X0004400D01*
X0004567D02*
X0004733Y0008325D01*
X0004900D02*
X0005066D01*
X0004983D01*
Y0008825D01*
X0004900Y0008742D01*
X0005316Y0008325D02*
X0005483D01*
X0005400D01*
Y0008825D01*
X0005316Y0008742D01*
X0007900Y0018200D02*
Y0018700D01*
X0008150D01*
X0008233Y0018617D01*
Y0018450D01*
X0008150Y0018367D01*
X0007900D01*
X0008067D02*
X0008233Y0018200D01*
X0008400D02*
X0008566D01*
X0008483D01*
Y0018700D01*
X0008400Y0018617D01*
X0008816D02*
X0008900Y0018700D01*
X0009066D01*
X0009150Y0018617D01*
Y0018283D01*
X0009066Y0018200D01*
X0008900D01*
X0008816Y0018283D01*
Y0018617D01*
X0000550Y0005100D02*
Y0005600D01*
X0000800D01*
X0000883Y0005517D01*
Y0005350D01*
X0000800Y0005267D01*
X0000550D01*
X0000717D02*
X0000883Y0005100D01*
X0001050Y0005183D02*
X0001133Y0005100D01*
X0001300D01*
X0001383Y0005183D01*
Y0005517D01*
X0001300Y0005600D01*
X0001133D01*
X0001050Y0005517D01*
Y0005433D01*
X0001133Y0005350D01*
X0001383D01*
X0001500Y0007700D02*
Y0008200D01*
X0001750D01*
X0001833Y0008117D01*
Y0007950D01*
X0001750Y0007867D01*
X0001500D01*
X0001667D02*
X0001833Y0007700D01*
X0002000Y0008117D02*
X0002083Y0008200D01*
X0002250D01*
X0002333Y0008117D01*
Y0008033D01*
X0002250Y0007950D01*
X0002333Y0007867D01*
Y0007783D01*
X0002250Y0007700D01*
X0002083D01*
X0002000Y0007783D01*
Y0007867D01*
X0002083Y0007950D01*
X0002000Y0008033D01*
Y0008117D01*
X0002083Y0007950D02*
X0002250D01*
X0000700Y0001600D02*
X0000200D01*
Y0001850D01*
X0000283Y0001933D01*
X0000450D01*
X0000533Y0001850D01*
Y0001600D01*
Y0001767D02*
X0000700Y0001933D01*
X0000200Y0002100D02*
Y0002433D01*
X0000283D01*
X0000617Y0002100D01*
X0000700D01*
Y0002600D02*
X0000200D01*
Y0002850D01*
X0000283Y0002933D01*
X0000450D01*
X0000533Y0002850D01*
Y0002600D01*
Y0002767D02*
X0000700Y0002933D01*
X0000200Y0003433D02*
X0000283Y0003266D01*
X0000450Y0003100D01*
X0000617D01*
X0000700Y0003183D01*
Y0003350D01*
X0000617Y0003433D01*
X0000533D01*
X0000450Y0003350D01*
Y0003100D01*
X0003200Y0001600D02*
X0002700D01*
Y0001850D01*
X0002783Y0001933D01*
X0002950D01*
X0003033Y0001850D01*
Y0001600D01*
Y0001767D02*
X0003200Y0001933D01*
X0002700Y0002433D02*
Y0002100D01*
X0002950D01*
X0002867Y0002266D01*
Y0002350D01*
X0002950Y0002433D01*
X0003117D01*
X0003200Y0002350D01*
Y0002183D01*
X0003117Y0002100D01*
X0003200Y0002700D02*
X0002700D01*
Y0002950D01*
X0002783Y0003033D01*
X0002950D01*
X0003033Y0002950D01*
Y0002700D01*
Y0002867D02*
X0003200Y0003033D01*
Y0003450D02*
X0002700D01*
X0002950Y0003200D01*
Y0003533D01*
X0005000Y0001700D02*
X0005500D01*
Y0001450D01*
X0005417Y0001367D01*
X0005250D01*
X0005167Y0001450D01*
Y0001700D01*
Y0001533D02*
X0005000Y0001367D01*
X0005417Y0001200D02*
X0005500Y0001117D01*
Y0000950D01*
X0005417Y0000867D01*
X0005333D01*
X0005250Y0000950D01*
Y0001034D01*
Y0000950D01*
X0005167Y0000867D01*
X0005083D01*
X0005000Y0000950D01*
Y0001117D01*
X0005083Y0001200D01*
X0005600Y0002700D02*
X0005100D01*
Y0002950D01*
X0005183Y0003033D01*
X0005350D01*
X0005433Y0002950D01*
Y0002700D01*
Y0002867D02*
X0005600Y0003033D01*
Y0003533D02*
Y0003200D01*
X0005267Y0003533D01*
X0005183D01*
X0005100Y0003450D01*
Y0003283D01*
X0005183Y0003200D01*
X0023300Y0008200D02*
X0023800D01*
Y0007950D01*
X0023717Y0007867D01*
X0023550D01*
X0023467Y0007950D01*
Y0008200D01*
Y0008033D02*
X0023300Y0007867D01*
Y0007700D02*
Y0007534D01*
Y0007617D01*
X0023800D01*
X0023717Y0007700D01*
X0003800Y0030200D02*
Y0030700D01*
X0004050D01*
X0004133Y0030617D01*
Y0030450D01*
X0004050Y0030367D01*
X0003800D01*
X0004300Y0030617D02*
X0004383Y0030700D01*
X0004550D01*
X0004633Y0030617D01*
Y0030533D01*
X0004550Y0030450D01*
X0004466D01*
X0004550D01*
X0004633Y0030367D01*
Y0030283D01*
X0004550Y0030200D01*
X0004383D01*
X0004300Y0030283D01*
X0006600Y0035800D02*
X0006100D01*
Y0036050D01*
X0006183Y0036133D01*
X0006350D01*
X0006433Y0036050D01*
Y0035800D01*
X0006600Y0036633D02*
Y0036300D01*
X0006267Y0036633D01*
X0006183D01*
X0006100Y0036550D01*
Y0036383D01*
X0006183Y0036300D01*
X0021225Y0002250D02*
Y0001750D01*
X0021558D01*
X0021725D02*
X0021891D01*
X0021808D01*
Y0002250D01*
X0021725Y0002167D01*
X0032961Y0004842D02*
Y0005008D01*
Y0004925D01*
X0032544D01*
X0032461Y0005008D01*
Y0005092D01*
X0032544Y0005175D01*
X0032461Y0004675D02*
X0032961D01*
Y0004425D01*
X0032877Y0004342D01*
X0032711D01*
X0032628Y0004425D01*
Y0004675D01*
X0032461Y0004175D02*
Y0004009D01*
Y0004092D01*
X0032961D01*
X0032877Y0004175D01*
X0039600Y0028000D02*
X0039100D01*
Y0027750D01*
X0039183Y0027667D01*
X0039517D01*
X0039600Y0027750D01*
Y0028000D01*
X0039100Y0027500D02*
Y0027334D01*
Y0027417D01*
X0039600D01*
X0039517Y0027500D01*
X0005983Y0037033D02*
X0005900Y0036950D01*
Y0036783D01*
X0005983Y0036700D01*
X0006317D01*
X0006400Y0036783D01*
Y0036950D01*
X0006317Y0037033D01*
X0006400Y0037450D02*
X0005900D01*
X0006150Y0037200D01*
Y0037533D01*
X0005900Y0037700D02*
Y0038033D01*
X0005983D01*
X0006317Y0037700D01*
X0006400D01*
X0014008Y0033292D02*
X0013925Y0033375D01*
X0013758D01*
X0013675Y0033292D01*
Y0032958D01*
X0013758Y0032875D01*
X0013925D01*
X0014008Y0032958D01*
X0014425Y0032875D02*
Y0033375D01*
X0014175Y0033125D01*
X0014508D01*
X0014675Y0033292D02*
X0014758Y0033375D01*
X0014925D01*
X0015008Y0033292D01*
Y0033208D01*
X0014925Y0033125D01*
X0015008Y0033042D01*
Y0032958D01*
X0014925Y0032875D01*
X0014758D01*
X0014675Y0032958D01*
Y0033042D01*
X0014758Y0033125D01*
X0014675Y0033208D01*
Y0033292D01*
X0014758Y0033125D02*
X0014925D01*
X0008833Y0033183D02*
X0008750Y0033100D01*
Y0032933D01*
X0008833Y0032850D01*
X0009167D01*
X0009250Y0032933D01*
Y0033100D01*
X0009167Y0033183D01*
X0009250Y0033600D02*
X0008750D01*
X0009000Y0033350D01*
Y0033683D01*
X0008750Y0034183D02*
X0008833Y0034016D01*
X0009000Y0033850D01*
X0009167D01*
X0009250Y0033933D01*
Y0034100D01*
X0009167Y0034183D01*
X0009083D01*
X0009000Y0034100D01*
Y0033850D01*
X0015433Y0028917D02*
X0015350Y0029000D01*
X0015183D01*
X0015100Y0028917D01*
Y0028583D01*
X0015183Y0028500D01*
X0015350D01*
X0015433Y0028583D01*
X0015850Y0028500D02*
Y0029000D01*
X0015600Y0028750D01*
X0015933D01*
X0016433Y0029000D02*
X0016100D01*
Y0028750D01*
X0016266Y0028833D01*
X0016350D01*
X0016433Y0028750D01*
Y0028583D01*
X0016350Y0028500D01*
X0016183D01*
X0016100Y0028583D01*
X0015433Y0029817D02*
X0015350Y0029900D01*
X0015183D01*
X0015100Y0029817D01*
Y0029483D01*
X0015183Y0029400D01*
X0015350D01*
X0015433Y0029483D01*
X0015850Y0029400D02*
Y0029900D01*
X0015600Y0029650D01*
X0015933D01*
X0016350Y0029400D02*
Y0029900D01*
X0016100Y0029650D01*
X0016433D01*
X0015433Y0031017D02*
X0015350Y0031100D01*
X0015183D01*
X0015100Y0031017D01*
Y0030683D01*
X0015183Y0030600D01*
X0015350D01*
X0015433Y0030683D01*
X0015850Y0030600D02*
Y0031100D01*
X0015600Y0030850D01*
X0015933D01*
X0016100Y0031017D02*
X0016183Y0031100D01*
X0016350D01*
X0016433Y0031017D01*
Y0030933D01*
X0016350Y0030850D01*
X0016266D01*
X0016350D01*
X0016433Y0030767D01*
Y0030683D01*
X0016350Y0030600D01*
X0016183D01*
X0016100Y0030683D01*
X0031820Y0002144D02*
X0031736Y0002061D01*
Y0001894D01*
X0031820Y0001811D01*
X0032153D01*
X0032236Y0001894D01*
Y0002061D01*
X0032153Y0002144D01*
X0032236Y0002561D02*
X0031736D01*
X0031986Y0002311D01*
Y0002644D01*
X0031820Y0002811D02*
X0031736Y0002894D01*
Y0003061D01*
X0031820Y0003144D01*
X0032153D01*
X0032236Y0003061D01*
Y0002894D01*
X0032153Y0002811D01*
X0031820D01*
Y0001144D02*
X0031736Y0001061D01*
Y0000894D01*
X0031820Y0000811D01*
X0032153D01*
X0032236Y0000894D01*
Y0001061D01*
X0032153Y0001144D01*
X0031820Y0001311D02*
X0031736Y0001394D01*
Y0001561D01*
X0031820Y0001644D01*
X0031903D01*
X0031986Y0001561D01*
Y0001478D01*
Y0001561D01*
X0032070Y0001644D01*
X0032153D01*
X0032236Y0001561D01*
Y0001394D01*
X0032153Y0001311D01*
Y0001811D02*
X0032236Y0001894D01*
Y0002061D01*
X0032153Y0002144D01*
X0031820D01*
X0031736Y0002061D01*
Y0001894D01*
X0031820Y0001811D01*
X0031903D01*
X0031986Y0001894D01*
Y0002144D01*
X0039083Y0007108D02*
X0039000Y0007025D01*
Y0006858D01*
X0039083Y0006775D01*
X0039417D01*
X0039500Y0006858D01*
Y0007025D01*
X0039417Y0007108D01*
X0039083Y0007275D02*
X0039000Y0007358D01*
Y0007525D01*
X0039083Y0007608D01*
X0039167D01*
X0039250Y0007525D01*
Y0007441D01*
Y0007525D01*
X0039333Y0007608D01*
X0039417D01*
X0039500Y0007525D01*
Y0007358D01*
X0039417Y0007275D01*
X0039083Y0007775D02*
X0039000Y0007858D01*
Y0008025D01*
X0039083Y0008108D01*
X0039167D01*
X0039250Y0008025D01*
X0039333Y0008108D01*
X0039417D01*
X0039500Y0008025D01*
Y0007858D01*
X0039417Y0007775D01*
X0039333D01*
X0039250Y0007858D01*
X0039167Y0007775D01*
X0039083D01*
X0039250Y0007858D02*
Y0008025D01*
X0024644Y0018480D02*
X0024561Y0018564D01*
X0024394D01*
X0024311Y0018480D01*
Y0018147D01*
X0024394Y0018064D01*
X0024561D01*
X0024644Y0018147D01*
X0024811Y0018480D02*
X0024894Y0018564D01*
X0025061D01*
X0025144Y0018480D01*
Y0018397D01*
X0025061Y0018314D01*
X0024978D01*
X0025061D01*
X0025144Y0018230D01*
Y0018147D01*
X0025061Y0018064D01*
X0024894D01*
X0024811Y0018147D01*
X0025311Y0018564D02*
X0025644D01*
Y0018480D01*
X0025311Y0018147D01*
Y0018064D01*
X0025108Y0021733D02*
X0025025Y0021650D01*
Y0021483D01*
X0025108Y0021400D01*
X0025442D01*
X0025525Y0021483D01*
Y0021650D01*
X0025442Y0021733D01*
X0025108Y0021900D02*
X0025025Y0021983D01*
Y0022150D01*
X0025108Y0022233D01*
X0025192D01*
X0025275Y0022150D01*
Y0022066D01*
Y0022150D01*
X0025358Y0022233D01*
X0025442D01*
X0025525Y0022150D01*
Y0021983D01*
X0025442Y0021900D01*
X0025025Y0022733D02*
X0025108Y0022566D01*
X0025275Y0022400D01*
X0025442D01*
X0025525Y0022483D01*
Y0022650D01*
X0025442Y0022733D01*
X0025358D01*
X0025275Y0022650D01*
Y0022400D01*
X0027108Y0019733D02*
X0027025Y0019650D01*
Y0019483D01*
X0027108Y0019400D01*
X0027442D01*
X0027525Y0019483D01*
Y0019650D01*
X0027442Y0019733D01*
X0027108Y0019900D02*
X0027025Y0019983D01*
Y0020150D01*
X0027108Y0020233D01*
X0027192D01*
X0027275Y0020150D01*
Y0020066D01*
Y0020150D01*
X0027358Y0020233D01*
X0027442D01*
X0027525Y0020150D01*
Y0019983D01*
X0027442Y0019900D01*
X0027025Y0020733D02*
Y0020400D01*
X0027275D01*
X0027192Y0020566D01*
Y0020650D01*
X0027275Y0020733D01*
X0027442D01*
X0027525Y0020650D01*
Y0020483D01*
X0027442Y0020400D01*
X0032880Y0016156D02*
X0032964Y0016239D01*
Y0016406D01*
X0032880Y0016489D01*
X0032547D01*
X0032464Y0016406D01*
Y0016239D01*
X0032547Y0016156D01*
X0032880Y0015989D02*
X0032964Y0015906D01*
Y0015739D01*
X0032880Y0015656D01*
X0032797D01*
X0032714Y0015739D01*
Y0015822D01*
Y0015739D01*
X0032630Y0015656D01*
X0032547D01*
X0032464Y0015739D01*
Y0015906D01*
X0032547Y0015989D01*
X0032464Y0015239D02*
X0032964D01*
X0032714Y0015489D01*
Y0015156D01*
X0022983Y0015433D02*
X0022900Y0015350D01*
Y0015183D01*
X0022983Y0015100D01*
X0023317D01*
X0023400Y0015183D01*
Y0015350D01*
X0023317Y0015433D01*
X0022983Y0015600D02*
X0022900Y0015683D01*
Y0015850D01*
X0022983Y0015933D01*
X0023067D01*
X0023150Y0015850D01*
Y0015766D01*
Y0015850D01*
X0023233Y0015933D01*
X0023317D01*
X0023400Y0015850D01*
Y0015683D01*
X0023317Y0015600D01*
X0022983Y0016100D02*
X0022900Y0016183D01*
Y0016350D01*
X0022983Y0016433D01*
X0023067D01*
X0023150Y0016350D01*
Y0016266D01*
Y0016350D01*
X0023233Y0016433D01*
X0023317D01*
X0023400Y0016350D01*
Y0016183D01*
X0023317Y0016100D01*
X0012033Y0017817D02*
X0011950Y0017900D01*
X0011783D01*
X0011700Y0017817D01*
Y0017483D01*
X0011783Y0017400D01*
X0011950D01*
X0012033Y0017483D01*
X0012200Y0017817D02*
X0012283Y0017900D01*
X0012450D01*
X0012533Y0017817D01*
Y0017733D01*
X0012450Y0017650D01*
X0012366D01*
X0012450D01*
X0012533Y0017567D01*
Y0017483D01*
X0012450Y0017400D01*
X0012283D01*
X0012200Y0017483D01*
X0012700Y0017817D02*
X0012783Y0017900D01*
X0012950D01*
X0013033Y0017817D01*
Y0017483D01*
X0012950Y0017400D01*
X0012783D01*
X0012700Y0017483D01*
Y0017817D01*
X0013733Y0020417D02*
X0013650Y0020500D01*
X0013483D01*
X0013400Y0020417D01*
Y0020083D01*
X0013483Y0020000D01*
X0013650D01*
X0013733Y0020083D01*
X0014233Y0020000D02*
X0013900D01*
X0014233Y0020333D01*
Y0020417D01*
X0014150Y0020500D01*
X0013983D01*
X0013900Y0020417D01*
X0014400Y0020083D02*
X0014483Y0020000D01*
X0014650D01*
X0014733Y0020083D01*
Y0020417D01*
X0014650Y0020500D01*
X0014483D01*
X0014400Y0020417D01*
Y0020333D01*
X0014483Y0020250D01*
X0014733D01*
X0008283Y0026633D02*
X0008200Y0026550D01*
Y0026383D01*
X0008283Y0026300D01*
X0008617D01*
X0008700Y0026383D01*
Y0026550D01*
X0008617Y0026633D01*
X0008283Y0026800D02*
X0008200Y0026883D01*
Y0027050D01*
X0008283Y0027133D01*
X0008367D01*
X0008450Y0027050D01*
Y0026966D01*
Y0027050D01*
X0008533Y0027133D01*
X0008617D01*
X0008700Y0027050D01*
Y0026883D01*
X0008617Y0026800D01*
X0008700Y0027633D02*
Y0027300D01*
X0008367Y0027633D01*
X0008283D01*
X0008200Y0027550D01*
Y0027383D01*
X0008283Y0027300D01*
X0009083Y0021033D02*
X0009000Y0020950D01*
Y0020783D01*
X0009083Y0020700D01*
X0009417D01*
X0009500Y0020783D01*
Y0020950D01*
X0009417Y0021033D01*
X0009083Y0021200D02*
X0009000Y0021283D01*
Y0021450D01*
X0009083Y0021533D01*
X0009167D01*
X0009250Y0021450D01*
Y0021366D01*
Y0021450D01*
X0009333Y0021533D01*
X0009417D01*
X0009500Y0021450D01*
Y0021283D01*
X0009417Y0021200D01*
X0009500Y0021700D02*
Y0021866D01*
Y0021783D01*
X0009000D01*
X0009083Y0021700D01*
X0006383Y0021967D02*
X0006300Y0022050D01*
X0006133D01*
X0006050Y0021967D01*
Y0021633D01*
X0006133Y0021550D01*
X0006300D01*
X0006383Y0021633D01*
X0006883Y0021550D02*
X0006550D01*
X0006883Y0021883D01*
Y0021967D01*
X0006800Y0022050D01*
X0006633D01*
X0006550Y0021967D01*
X0007050D02*
X0007133Y0022050D01*
X0007300D01*
X0007383Y0021967D01*
Y0021883D01*
X0007300Y0021800D01*
X0007383Y0021717D01*
Y0021633D01*
X0007300Y0021550D01*
X0007133D01*
X0007050Y0021633D01*
Y0021717D01*
X0007133Y0021800D01*
X0007050Y0021883D01*
Y0021967D01*
X0007133Y0021800D02*
X0007300D01*
X0006383Y0021317D02*
X0006300Y0021400D01*
X0006133D01*
X0006050Y0021317D01*
Y0020983D01*
X0006133Y0020900D01*
X0006300D01*
X0006383Y0020983D01*
X0006883Y0020900D02*
X0006550D01*
X0006883Y0021233D01*
Y0021317D01*
X0006800Y0021400D01*
X0006633D01*
X0006550Y0021317D01*
X0007050Y0021400D02*
X0007383D01*
Y0021317D01*
X0007050Y0020983D01*
Y0020900D01*
X0012883Y0001942D02*
X0012800Y0002025D01*
X0012633D01*
X0012550Y0001942D01*
Y0001608D01*
X0012633Y0001525D01*
X0012800D01*
X0012883Y0001608D01*
X0013383Y0001525D02*
X0013050D01*
X0013383Y0001858D01*
Y0001942D01*
X0013300Y0002025D01*
X0013133D01*
X0013050Y0001942D01*
X0013883Y0002025D02*
X0013716Y0001942D01*
X0013550Y0001775D01*
Y0001608D01*
X0013633Y0001525D01*
X0013800D01*
X0013883Y0001608D01*
Y0001692D01*
X0013800Y0001775D01*
X0013550D01*
X0014917Y0019167D02*
X0015000Y0019250D01*
Y0019417D01*
X0014917Y0019500D01*
X0014583D01*
X0014500Y0019417D01*
Y0019250D01*
X0014583Y0019167D01*
X0014500Y0018667D02*
Y0019000D01*
X0014833Y0018667D01*
X0014917D01*
X0015000Y0018750D01*
Y0018917D01*
X0014917Y0019000D01*
X0015000Y0018167D02*
Y0018500D01*
X0014750D01*
X0014833Y0018334D01*
Y0018250D01*
X0014750Y0018167D01*
X0014583D01*
X0014500Y0018250D01*
Y0018417D01*
X0014583Y0018500D01*
X0014033Y0016717D02*
X0013950Y0016800D01*
X0013783D01*
X0013700Y0016717D01*
Y0016383D01*
X0013783Y0016300D01*
X0013950D01*
X0014033Y0016383D01*
X0014533Y0016300D02*
X0014200D01*
X0014533Y0016633D01*
Y0016717D01*
X0014450Y0016800D01*
X0014283D01*
X0014200Y0016717D01*
X0014950Y0016300D02*
Y0016800D01*
X0014700Y0016550D01*
X0015033D01*
X0008433Y0002708D02*
X0008350Y0002625D01*
Y0002458D01*
X0008433Y0002375D01*
X0008767D01*
X0008850Y0002458D01*
Y0002625D01*
X0008767Y0002708D01*
X0008850Y0002875D02*
Y0003041D01*
Y0002958D01*
X0008350D01*
X0008433Y0002875D01*
X0008350Y0003291D02*
Y0003625D01*
X0008433D01*
X0008767Y0003291D01*
X0008850D01*
X0008308Y0001033D02*
X0008225Y0000950D01*
Y0000783D01*
X0008308Y0000700D01*
X0008642D01*
X0008725Y0000783D01*
Y0000950D01*
X0008642Y0001033D01*
X0008725Y0001200D02*
Y0001366D01*
Y0001283D01*
X0008225D01*
X0008308Y0001200D01*
X0008225Y0001950D02*
X0008308Y0001783D01*
X0008475Y0001616D01*
X0008642D01*
X0008725Y0001700D01*
Y0001866D01*
X0008642Y0001950D01*
X0008558D01*
X0008475Y0001866D01*
Y0001616D01*
X0011408Y0001942D02*
X0011325Y0002025D01*
X0011158D01*
X0011075Y0001942D01*
Y0001608D01*
X0011158Y0001525D01*
X0011325D01*
X0011408Y0001608D01*
X0011908Y0001525D02*
X0011575D01*
X0011908Y0001858D01*
Y0001942D01*
X0011825Y0002025D01*
X0011658D01*
X0011575Y0001942D01*
X0012408Y0001525D02*
X0012075D01*
X0012408Y0001858D01*
Y0001942D01*
X0012325Y0002025D01*
X0012158D01*
X0012075Y0001942D01*
X0019058Y0003817D02*
X0018975Y0003900D01*
X0018808D01*
X0018725Y0003817D01*
Y0003483D01*
X0018808Y0003400D01*
X0018975D01*
X0019058Y0003483D01*
X0019558Y0003400D02*
X0019225D01*
X0019558Y0003733D01*
Y0003817D01*
X0019475Y0003900D01*
X0019308D01*
X0019225Y0003817D01*
X0019725Y0003400D02*
X0019891D01*
X0019808D01*
Y0003900D01*
X0019725Y0003817D01*
X0015933Y0001917D02*
X0015850Y0002000D01*
X0015683D01*
X0015600Y0001917D01*
Y0001583D01*
X0015683Y0001500D01*
X0015850D01*
X0015933Y0001583D01*
X0016433Y0001500D02*
X0016100D01*
X0016433Y0001833D01*
Y0001917D01*
X0016350Y0002000D01*
X0016183D01*
X0016100Y0001917D01*
X0016600D02*
X0016683Y0002000D01*
X0016850D01*
X0016933Y0001917D01*
Y0001583D01*
X0016850Y0001500D01*
X0016683D01*
X0016600Y0001583D01*
Y0001917D01*
X0002633Y0012892D02*
X0002550Y0012975D01*
X0002383D01*
X0002300Y0012892D01*
Y0012558D01*
X0002383Y0012475D01*
X0002550D01*
X0002633Y0012558D01*
X0002800Y0012475D02*
X0002966D01*
X0002883D01*
Y0012975D01*
X0002800Y0012892D01*
X0003216Y0012558D02*
X0003300Y0012475D01*
X0003466D01*
X0003550Y0012558D01*
Y0012892D01*
X0003466Y0012975D01*
X0003300D01*
X0003216Y0012892D01*
Y0012808D01*
X0003300Y0012725D01*
X0003550D01*
X0004758Y0011642D02*
X0004675Y0011725D01*
X0004508D01*
X0004425Y0011642D01*
Y0011308D01*
X0004508Y0011225D01*
X0004675D01*
X0004758Y0011308D01*
X0004925Y0011225D02*
X0005091D01*
X0005008D01*
Y0011725D01*
X0004925Y0011642D01*
X0005341D02*
X0005425Y0011725D01*
X0005591D01*
X0005675Y0011642D01*
Y0011558D01*
X0005591Y0011475D01*
X0005675Y0011392D01*
Y0011308D01*
X0005591Y0011225D01*
X0005425D01*
X0005341Y0011308D01*
Y0011392D01*
X0005425Y0011475D01*
X0005341Y0011558D01*
Y0011642D01*
X0005425Y0011475D02*
X0005591D01*
X0002158Y0010442D02*
X0002075Y0010525D01*
X0001908D01*
X0001825Y0010442D01*
Y0010108D01*
X0001908Y0010025D01*
X0002075D01*
X0002158Y0010108D01*
X0002325Y0010025D02*
X0002491D01*
X0002408D01*
Y0010525D01*
X0002325Y0010442D01*
X0003075Y0010525D02*
X0002741D01*
Y0010275D01*
X0002908Y0010358D01*
X0002991D01*
X0003075Y0010275D01*
Y0010108D01*
X0002991Y0010025D01*
X0002825D01*
X0002741Y0010108D01*
X0004758Y0009417D02*
X0004675Y0009500D01*
X0004508D01*
X0004425Y0009417D01*
Y0009083D01*
X0004508Y0009000D01*
X0004675D01*
X0004758Y0009083D01*
X0004925Y0009000D02*
X0005091D01*
X0005008D01*
Y0009500D01*
X0004925Y0009417D01*
X0005591Y0009000D02*
Y0009500D01*
X0005341Y0009250D01*
X0005675D01*
X0017458Y0001633D02*
X0017375Y0001550D01*
Y0001383D01*
X0017458Y0001300D01*
X0017792D01*
X0017875Y0001383D01*
Y0001550D01*
X0017792Y0001633D01*
X0017875Y0001800D02*
Y0001966D01*
Y0001883D01*
X0017375D01*
X0017458Y0001800D01*
Y0002216D02*
X0017375Y0002300D01*
Y0002466D01*
X0017458Y0002550D01*
X0017792D01*
X0017875Y0002466D01*
Y0002300D01*
X0017792Y0002216D01*
X0017458D01*
X0020083Y0001433D02*
X0020000Y0001350D01*
Y0001183D01*
X0020083Y0001100D01*
X0020417D01*
X0020500Y0001183D01*
Y0001350D01*
X0020417Y0001433D01*
Y0001600D02*
X0020500Y0001683D01*
Y0001850D01*
X0020417Y0001933D01*
X0020083D01*
X0020000Y0001850D01*
Y0001683D01*
X0020083Y0001600D01*
X0020167D01*
X0020250Y0001683D01*
Y0001933D01*
X0008233Y0017617D02*
X0008150Y0017700D01*
X0007983D01*
X0007900Y0017617D01*
Y0017283D01*
X0007983Y0017200D01*
X0008150D01*
X0008233Y0017283D01*
X0008400Y0017200D02*
X0008566D01*
X0008483D01*
Y0017700D01*
X0008400Y0017617D01*
X0008816D02*
X0008900Y0017700D01*
X0009066D01*
X0009150Y0017617D01*
Y0017533D01*
X0009066Y0017450D01*
X0008983D01*
X0009066D01*
X0009150Y0017367D01*
Y0017283D01*
X0009066Y0017200D01*
X0008900D01*
X0008816Y0017283D01*
X0002908Y0008092D02*
X0002825Y0008175D01*
X0002658D01*
X0002575Y0008092D01*
Y0007758D01*
X0002658Y0007675D01*
X0002825D01*
X0002908Y0007758D01*
X0003075Y0007675D02*
X0003241D01*
X0003158D01*
Y0008175D01*
X0003075Y0008092D01*
X0003825Y0007675D02*
X0003491D01*
X0003825Y0008008D01*
Y0008092D01*
X0003741Y0008175D01*
X0003575D01*
X0003491Y0008092D01*
X0004783Y0007692D02*
X0004700Y0007775D01*
X0004533D01*
X0004450Y0007692D01*
Y0007358D01*
X0004533Y0007275D01*
X0004700D01*
X0004783Y0007358D01*
X0004950Y0007275D02*
X0005116D01*
X0005033D01*
Y0007775D01*
X0004950Y0007692D01*
X0005366Y0007275D02*
X0005533D01*
X0005450D01*
Y0007775D01*
X0005366Y0007692D01*
X0002133Y0000717D02*
X0002050Y0000800D01*
X0001883D01*
X0001800Y0000717D01*
Y0000383D01*
X0001883Y0000300D01*
X0002050D01*
X0002133Y0000383D01*
X0002300Y0000717D02*
X0002383Y0000800D01*
X0002550D01*
X0002633Y0000717D01*
Y0000633D01*
X0002550Y0000550D01*
X0002633Y0000467D01*
Y0000383D01*
X0002550Y0000300D01*
X0002383D01*
X0002300Y0000383D01*
Y0000467D01*
X0002383Y0000550D01*
X0002300Y0000633D01*
Y0000717D01*
X0002383Y0000550D02*
X0002550D01*
X0000283Y0004033D02*
X0000200Y0003950D01*
Y0003783D01*
X0000283Y0003700D01*
X0000617D01*
X0000700Y0003783D01*
Y0003950D01*
X0000617Y0004033D01*
X0000200Y0004200D02*
Y0004533D01*
X0000283D01*
X0000617Y0004200D01*
X0000700D01*
X0024108Y0010642D02*
X0024025Y0010725D01*
X0023858D01*
X0023775Y0010642D01*
Y0010308D01*
X0023858Y0010225D01*
X0024025D01*
X0024108Y0010308D01*
X0024525Y0010225D02*
Y0010725D01*
X0024275Y0010475D01*
X0024608D01*
X0022933Y0010642D02*
X0022850Y0010725D01*
X0022683D01*
X0022600Y0010642D01*
Y0010308D01*
X0022683Y0010225D01*
X0022850D01*
X0022933Y0010308D01*
X0023100Y0010642D02*
X0023183Y0010725D01*
X0023350D01*
X0023433Y0010642D01*
Y0010558D01*
X0023350Y0010475D01*
X0023266D01*
X0023350D01*
X0023433Y0010392D01*
Y0010308D01*
X0023350Y0010225D01*
X0023183D01*
X0023100Y0010308D01*
X0004433Y0000717D02*
X0004350Y0000800D01*
X0004183D01*
X0004100Y0000717D01*
Y0000383D01*
X0004183Y0000300D01*
X0004350D01*
X0004433Y0000383D01*
X0004933Y0000800D02*
X0004766Y0000717D01*
X0004600Y0000550D01*
Y0000383D01*
X0004683Y0000300D01*
X0004850D01*
X0004933Y0000383D01*
Y0000467D01*
X0004850Y0000550D01*
X0004600D01*
X0004333Y0004917D02*
X0004250Y0005000D01*
X0004083D01*
X0004000Y0004917D01*
Y0004583D01*
X0004083Y0004500D01*
X0004250D01*
X0004333Y0004583D01*
X0004833Y0005000D02*
X0004500D01*
Y0004750D01*
X0004666Y0004833D01*
X0004750D01*
X0004833Y0004750D01*
Y0004583D01*
X0004750Y0004500D01*
X0004583D01*
X0004500Y0004583D01*
X0006833Y0000717D02*
X0006750Y0000800D01*
X0006583D01*
X0006500Y0000717D01*
Y0000383D01*
X0006583Y0000300D01*
X0006750D01*
X0006833Y0000383D01*
X0007333Y0000300D02*
X0007000D01*
X0007333Y0000633D01*
Y0000717D01*
X0007250Y0000800D01*
X0007083D01*
X0007000Y0000717D01*
X0006033Y0005117D02*
X0005950Y0005200D01*
X0005783D01*
X0005700Y0005117D01*
Y0004783D01*
X0005783Y0004700D01*
X0005950D01*
X0006033Y0004783D01*
X0006200Y0004700D02*
X0006366D01*
X0006283D01*
Y0005200D01*
X0006200Y0005117D01*
X0035800Y0020550D02*
Y0021050D01*
X0035550D01*
X0035466Y0020967D01*
Y0020883D01*
X0035550Y0020800D01*
X0035800D01*
X0035550D01*
X0035466Y0020717D01*
Y0020633D01*
X0035550Y0020550D01*
X0035800D01*
X0035300D02*
X0034967D01*
X0035133D01*
Y0021050D01*
X0034800D02*
X0034633D01*
X0034717D01*
Y0020550D01*
X0034800Y0020633D01*
X0015800Y0019300D02*
Y0019800D01*
X0016050D01*
X0016133Y0019717D01*
Y0019550D01*
X0016050Y0019467D01*
X0015800D01*
X0015967D02*
X0016133Y0019300D01*
X0016633Y0019717D02*
X0016550Y0019800D01*
X0016383D01*
X0016300Y0019717D01*
Y0019383D01*
X0016383Y0019300D01*
X0016550D01*
X0016633Y0019383D01*
Y0019550D01*
X0016466D01*
X0016800Y0019800D02*
Y0019300D01*
X0017050D01*
X0017133Y0019383D01*
Y0019467D01*
X0017050Y0019550D01*
X0016800D01*
X0017050D01*
X0017133Y0019633D01*
Y0019717D01*
X0017050Y0019800D01*
X0016800D01*
X0017300Y0019300D02*
X0017466D01*
X0017383D01*
Y0019800D01*
X0017300Y0019717D01*
X0015700Y0020400D02*
Y0020900D01*
X0015950D01*
X0016033Y0020817D01*
Y0020650D01*
X0015950Y0020567D01*
X0015700D01*
X0015867D02*
X0016033Y0020400D01*
X0016533Y0020817D02*
X0016450Y0020900D01*
X0016283D01*
X0016200Y0020817D01*
Y0020483D01*
X0016283Y0020400D01*
X0016450D01*
X0016533Y0020483D01*
Y0020650D01*
X0016366D01*
X0016700Y0020900D02*
Y0020400D01*
X0016950D01*
X0017033Y0020483D01*
Y0020567D01*
X0016950Y0020650D01*
X0016700D01*
X0016950D01*
X0017033Y0020733D01*
Y0020817D01*
X0016950Y0020900D01*
X0016700D01*
X0017533Y0020400D02*
X0017200D01*
X0017533Y0020733D01*
Y0020817D01*
X0017449Y0020900D01*
X0017283D01*
X0017200Y0020817D01*
X0021000Y0023500D02*
Y0024000D01*
X0021250D01*
X0021333Y0023917D01*
Y0023750D01*
X0021250Y0023667D01*
X0021000D01*
X0021167D02*
X0021333Y0023500D01*
X0021833Y0023917D02*
X0021750Y0024000D01*
X0021583D01*
X0021500Y0023917D01*
Y0023583D01*
X0021583Y0023500D01*
X0021750D01*
X0021833Y0023583D01*
Y0023750D01*
X0021666D01*
X0022000Y0024000D02*
Y0023500D01*
X0022250D01*
X0022333Y0023583D01*
Y0023667D01*
X0022250Y0023750D01*
X0022000D01*
X0022250D01*
X0022333Y0023833D01*
Y0023917D01*
X0022250Y0024000D01*
X0022000D01*
X0022500Y0023917D02*
X0022583Y0024000D01*
X0022749D01*
X0022833Y0023917D01*
Y0023833D01*
X0022749Y0023750D01*
X0022666D01*
X0022749D01*
X0022833Y0023667D01*
Y0023583D01*
X0022749Y0023500D01*
X0022583D01*
X0022500Y0023583D01*
X0022500Y0020200D02*
Y0020700D01*
X0022750D01*
X0022833Y0020617D01*
Y0020450D01*
X0022750Y0020367D01*
X0022500D01*
X0022667D02*
X0022833Y0020200D01*
X0023333Y0020617D02*
X0023250Y0020700D01*
X0023083D01*
X0023000Y0020617D01*
Y0020283D01*
X0023083Y0020200D01*
X0023250D01*
X0023333Y0020283D01*
Y0020450D01*
X0023166D01*
X0023500Y0020700D02*
Y0020200D01*
X0023750D01*
X0023833Y0020283D01*
Y0020367D01*
X0023750Y0020450D01*
X0023500D01*
X0023750D01*
X0023833Y0020533D01*
Y0020617D01*
X0023750Y0020700D01*
X0023500D01*
X0024249Y0020200D02*
Y0020700D01*
X0024000Y0020450D01*
X0024333D01*
X0022400Y0019200D02*
Y0019700D01*
X0022650D01*
X0022733Y0019617D01*
Y0019450D01*
X0022650Y0019367D01*
X0022400D01*
X0022567D02*
X0022733Y0019200D01*
X0023233Y0019617D02*
X0023150Y0019700D01*
X0022983D01*
X0022900Y0019617D01*
Y0019283D01*
X0022983Y0019200D01*
X0023150D01*
X0023233Y0019283D01*
Y0019450D01*
X0023066D01*
X0023400Y0019700D02*
Y0019200D01*
X0023650D01*
X0023733Y0019283D01*
Y0019367D01*
X0023650Y0019450D01*
X0023400D01*
X0023650D01*
X0023733Y0019533D01*
Y0019617D01*
X0023650Y0019700D01*
X0023400D01*
X0024233D02*
X0023900D01*
Y0019450D01*
X0024066Y0019533D01*
X0024149D01*
X0024233Y0019450D01*
Y0019283D01*
X0024149Y0019200D01*
X0023983D01*
X0023900Y0019283D01*
X0017300Y0016000D02*
Y0016500D01*
X0017550D01*
X0017633Y0016417D01*
Y0016250D01*
X0017550Y0016167D01*
X0017300D01*
X0017467D02*
X0017633Y0016000D01*
X0018133Y0016417D02*
X0018050Y0016500D01*
X0017883D01*
X0017800Y0016417D01*
Y0016083D01*
X0017883Y0016000D01*
X0018050D01*
X0018133Y0016083D01*
Y0016250D01*
X0017966D01*
X0018300Y0016500D02*
Y0016000D01*
X0018550D01*
X0018633Y0016083D01*
Y0016167D01*
X0018550Y0016250D01*
X0018300D01*
X0018550D01*
X0018633Y0016333D01*
Y0016417D01*
X0018550Y0016500D01*
X0018300D01*
X0019133D02*
X0018966Y0016417D01*
X0018800Y0016250D01*
Y0016083D01*
X0018883Y0016000D01*
X0019049D01*
X0019133Y0016083D01*
Y0016167D01*
X0019049Y0016250D01*
X0018800D01*
X0004025Y0015400D02*
Y0015900D01*
X0004275D01*
X0004358Y0015817D01*
Y0015650D01*
X0004275Y0015567D01*
X0004025D01*
X0004525Y0015400D02*
X0004691D01*
X0004608D01*
Y0015900D01*
X0004525Y0015817D01*
X0018900Y0030900D02*
Y0030483D01*
X0018983Y0030400D01*
X0019150D01*
X0019233Y0030483D01*
Y0030900D01*
X0019650Y0030400D02*
Y0030900D01*
X0019400Y0030650D01*
X0019733D01*
X0027434Y0005942D02*
X0027851D01*
X0027934Y0006026D01*
Y0006192D01*
X0027851Y0006276D01*
X0027434D01*
X0027934Y0006775D02*
Y0006442D01*
X0027601Y0006775D01*
X0027518D01*
X0027434Y0006692D01*
Y0006525D01*
X0027518Y0006442D01*
X0032880Y0015156D02*
X0032964Y0015239D01*
Y0015406D01*
X0032880Y0015489D01*
X0032547D01*
X0032464Y0015406D01*
Y0015239D01*
X0032547Y0015156D01*
X0032464Y0014739D02*
X0032964D01*
X0032714Y0014989D01*
Y0014656D01*
X0032464Y0014489D02*
Y0014323D01*
Y0014406D01*
X0032964D01*
X0032880Y0014489D01*
X0024717Y0025267D02*
X0024800Y0025350D01*
Y0025517D01*
X0024717Y0025600D01*
X0024383D01*
X0024300Y0025517D01*
Y0025350D01*
X0024383Y0025267D01*
X0024300Y0024850D02*
X0024800D01*
X0024550Y0025100D01*
Y0024767D01*
X0024300Y0024267D02*
Y0024600D01*
X0024633Y0024267D01*
X0024717D01*
X0024800Y0024350D01*
Y0024517D01*
X0024717Y0024600D01*
X0004883Y0034233D02*
X0004800Y0034150D01*
Y0033983D01*
X0004883Y0033900D01*
X0005217D01*
X0005300Y0033983D01*
Y0034150D01*
X0005217Y0034233D01*
X0005300Y0034650D02*
X0004800D01*
X0005050Y0034400D01*
Y0034733D01*
X0005217Y0034900D02*
X0005300Y0034983D01*
Y0035150D01*
X0005217Y0035233D01*
X0004883D01*
X0004800Y0035150D01*
Y0034983D01*
X0004883Y0034900D01*
X0004967D01*
X0005050Y0034983D01*
Y0035233D01*
X0015100Y0023200D02*
X0014600D01*
Y0023450D01*
X0014683Y0023533D01*
X0014850D01*
X0014933Y0023450D01*
Y0023200D01*
Y0023367D02*
X0015100Y0023533D01*
X0014683Y0023700D02*
X0014600Y0023783D01*
Y0023950D01*
X0014683Y0024033D01*
X0014767D01*
X0014850Y0023950D01*
Y0023866D01*
Y0023950D01*
X0014933Y0024033D01*
X0015017D01*
X0015100Y0023950D01*
Y0023783D01*
X0015017Y0023700D01*
X0014683Y0024200D02*
X0014600Y0024283D01*
Y0024450D01*
X0014683Y0024533D01*
X0014767D01*
X0014850Y0024450D01*
X0014933Y0024533D01*
X0015017D01*
X0015100Y0024450D01*
Y0024283D01*
X0015017Y0024200D01*
X0014933D01*
X0014850Y0024283D01*
X0014767Y0024200D01*
X0014683D01*
X0014850Y0024283D02*
Y0024450D01*
M02*
